# This file uses centimeters as units for non-parametric coordinates.

mtllib MinePillar.mtl
g default
v -9.951998 -0.035289 7.107742
v -9.956471 4.365191 7.216827
v -9.956471 4.365191 6.467096
v -9.951998 -0.035289 6.576180
v -9.420435 -0.035289 7.001441
v -9.526707 -0.035289 7.107742
v -9.206739 4.365191 7.110524
v -9.313011 4.365191 7.216827
v -9.313011 4.365191 6.467096
v -9.206739 4.365191 6.573398
v -9.420435 -0.035289 6.682481
v -9.526707 -0.035289 6.576180
v -9.954234 2.164951 7.162285
v -9.419859 2.164951 7.162285
v -9.313587 2.164951 7.055983
v -9.313587 2.164951 6.627939
v -9.419859 2.164951 6.521638
v -9.954234 2.164951 6.521638
v -9.954145 2.077285 7.160112
v -9.424116 2.077285 7.160112
v -9.317844 2.077284 7.053809
v -9.317844 2.077285 6.630113
v -9.424116 2.077284 6.523811
v -9.954145 2.077284 6.523811
v -9.897788 2.084999 7.104121
v -9.461037 2.084999 7.104121
v -9.457529 2.157237 7.105912
v -9.897861 2.157237 7.105912
v -9.373468 2.084998 7.016527
v -9.369960 2.157237 7.018318
v -9.369960 2.157237 6.665605
v -9.373468 2.084999 6.667395
v -9.457529 2.157237 6.578011
v -9.461037 2.084998 6.579801
v -9.897861 2.157237 6.578011
v -9.897788 2.084998 6.579801
vt 0.375000 0.250000
vt 0.125000 0.000000
vt 0.125000 0.250000
vt 0.625000 0.285447
vt 0.375000 0.500000
vt 0.625000 0.799995
vt 0.625000 0.950005
vt 0.575019 1.000000
vt 0.375000 1.000000
vt 0.375000 0.000000
vt 0.575019 0.000000
vt 0.589564 0.500000
vt 0.375000 0.750000
vt 0.660447 0.250000
vt 0.825005 0.000000
vt 0.839553 0.250000
vt 0.674996 -0.000000
vt 0.589563 0.250000
vt 0.625000 0.464553
vt 0.575019 0.750000
vt 0.375000 0.125000
vt 0.582291 0.125000
vt 0.667721 0.125000
vt 0.832279 0.125000
vt 0.625000 0.632274
vt 0.582292 0.625000
vt 0.125000 0.125000
vt 0.375000 0.625000
vt 0.375000 0.120020
vt 0.582002 0.120019
vt 0.668011 0.120019
vt 0.831989 0.120019
vt 0.625000 0.638957
vt 0.582002 0.629981
vt 0.125000 0.120019
vt 0.375000 0.629981
vt 0.375000 0.120020
vt 0.582002 0.120019
vt 0.582291 0.125000
vt 0.375000 0.125000
vt 0.668011 0.120019
vt 0.667721 0.125000
vt 0.832279 0.125000
vt 0.831989 0.120019
vt 0.582292 0.625000
vt 0.625000 0.632274
vt 0.625000 0.638957
vt 0.582002 0.629981
vt 0.375000 0.625000
vt 0.375000 0.629981
vt 0.125000 0.120019
vt 0.125000 0.125000
vn 0.000000 -0.024782 0.999693
vn 0.000000 -0.024782 0.999693
vn 0.000000 -0.024782 0.999693
vn 0.000000 -0.024782 0.999693
vn 0.000000 1.000000 0.000000
vn 0.000000 1.000000 0.000000
vn 0.000000 1.000000 0.000000
vn 0.000000 1.000000 0.000000
vn 0.000000 1.000000 0.000000
vn 0.000000 1.000000 0.000000
vn 0.000000 -0.024782 -0.999693
vn 0.000000 -0.024782 -0.999693
vn 0.000000 -0.024782 -0.999693
vn 0.000000 -0.024782 -0.999693
vn 0.000000 -1.000000 0.000000
vn 0.000000 -1.000000 0.000000
vn 0.000000 -1.000000 0.000000
vn 0.000000 -1.000000 0.000000
vn 0.000000 -1.000000 0.000000
vn 0.000000 -1.000000 0.000000
vn 0.998823 -0.048505 0.000000
vn 0.998823 -0.048505 0.000000
vn 0.998823 -0.048505 0.000000
vn 0.998823 -0.048505 0.000000
vn -1.000000 -0.001017 0.000000
vn -1.000000 -0.001017 0.000000
vn -1.000000 -0.001017 0.000000
vn -1.000000 -0.001017 0.000000
vn 0.706258 -0.051800 0.706057
vn 0.706258 -0.051800 0.706057
vn 0.706258 -0.051800 0.706057
vn 0.706258 -0.051800 0.706057
vn 0.706258 -0.051800 -0.706057
vn 0.706258 -0.051800 -0.706057
vn 0.706258 -0.051800 -0.706057
vn 0.706258 -0.051800 -0.706057
vn 0.000000 -0.024778 0.999693
vn 0.000000 -0.024778 0.999693
vn 0.000000 -0.024778 0.999693
vn 0.000000 -0.024778 0.999693
vn 0.706257 -0.051799 0.706058
vn 0.706257 -0.051799 0.706058
vn 0.706257 -0.051799 0.706058
vn 0.706257 -0.051799 0.706058
vn 0.998823 -0.048504 -0.000000
vn 0.998823 -0.048504 -0.000000
vn 0.998823 -0.048504 -0.000000
vn 0.998823 -0.048504 -0.000000
vn 0.706258 -0.051799 -0.706057
vn 0.706258 -0.051799 -0.706057
vn 0.706258 -0.051799 -0.706057
vn 0.706258 -0.051799 -0.706057
vn 0.000000 -0.024778 -0.999693
vn 0.000000 -0.024778 -0.999693
vn 0.000000 -0.024778 -0.999693
vn 0.000000 -0.024778 -0.999693
vn -1.000000 -0.001012 0.000000
vn -1.000000 -0.001012 0.000000
vn -1.000000 -0.001012 0.000000
vn -1.000000 -0.001012 0.000000
vn 0.000000 -0.024782 0.999693
vn 0.000000 -0.024782 0.999693
vn 0.000000 -0.024782 0.999693
vn 0.000000 -0.024782 0.999693
vn 0.706258 -0.051800 0.706057
vn 0.706258 -0.051800 0.706057
vn 0.706258 -0.051800 0.706057
vn 0.706258 -0.051800 0.706057
vn 0.998823 -0.048505 -0.000000
vn 0.998823 -0.048505 -0.000000
vn 0.998823 -0.048505 -0.000000
vn 0.998823 -0.048505 -0.000000
vn 0.706258 -0.051800 -0.706057
vn 0.706258 -0.051800 -0.706057
vn 0.706258 -0.051800 -0.706057
vn 0.706258 -0.051800 -0.706057
vn 0.000000 -0.024782 -0.999693
vn 0.000000 -0.024782 -0.999693
vn 0.000000 -0.024782 -0.999693
vn 0.000000 -0.024782 -0.999693
vn -1.000000 -0.001017 0.000000
vn -1.000000 -0.001017 0.000000
vn -1.000000 -0.001017 0.000000
vn -1.000000 -0.001017 0.000000
vn 0.000000 0.990642 0.136484
vn 0.000000 0.990642 0.136484
vn 0.000000 0.990642 0.136484
vn 0.000000 0.990642 0.136484
vn 0.000000 -0.990767 0.135578
vn 0.000000 -0.990767 0.135578
vn 0.000000 -0.990767 0.135578
vn 0.000000 -0.990767 0.135578
vn 0.082476 0.993177 0.082447
vn 0.082476 0.993177 0.082447
vn 0.082476 0.993177 0.082447
vn 0.082476 0.993177 0.082447
vn 0.081495 -0.993338 0.081471
vn 0.081495 -0.993338 0.081471
vn 0.081495 -0.993338 0.081471
vn 0.081495 -0.993338 0.081471
vn 0.135578 -0.990767 0.000000
vn 0.135578 -0.990767 0.000000
vn 0.135578 -0.990767 0.000000
vn 0.135578 -0.990767 0.000000
vn 0.137369 0.990520 0.000001
vn 0.137369 0.990520 0.000001
vn 0.137369 0.990520 0.000001
vn 0.137369 0.990520 0.000001
vn 0.081495 -0.993338 -0.081471
vn 0.081495 -0.993338 -0.081471
vn 0.081495 -0.993338 -0.081471
vn 0.081495 -0.993338 -0.081471
vn 0.082472 0.993177 -0.082451
vn 0.082472 0.993177 -0.082451
vn 0.082472 0.993177 -0.082451
vn 0.082472 0.993177 -0.082451
vn 0.000000 -0.990767 -0.135577
vn 0.000000 -0.990767 -0.135577
vn 0.000000 -0.990767 -0.135577
vn 0.000000 -0.990767 -0.135577
vn 0.000000 0.990642 -0.136489
vn 0.000000 0.990642 -0.136489
vn 0.000000 0.990642 -0.136489
vn 0.000000 0.990642 -0.136489
vn -0.135614 0.990762 -0.000001
vn -0.135614 0.990762 -0.000001
vn -0.135614 0.990762 -0.000001
vn -0.135614 0.990762 -0.000001
vn -0.135578 -0.990767 0.000000
vn -0.135578 -0.990767 0.000000
vn -0.135578 -0.990767 0.000000
vn -0.135578 -0.990767 0.000000
s off
g pCube7
usemtl initialShadingGroup
f 13/21/1 14/22/2 8/18/3 2/1/4
f 2/1/5 8/18/6 7/4/7 10/19/8 9/12/9 3/5/10
f 3/5/11 9/12/12 17/26/13 18/28/14
f 4/13/15 12/20/16 11/6/17 5/7/18 6/8/19 1/9/20
f 7/14/21 15/23/22 16/24/23 10/16/24
f 18/27/25 13/21/26 2/1/27 3/3/28
f 14/22/29 15/23/30 7/14/31 8/18/32
f 9/12/33 10/19/34 16/25/35 17/26/36
f 25/37/37 26/38/38 27/39/39 28/40/40
f 26/38/41 29/41/42 30/42/43 27/39/44
f 31/43/45 30/42/46 29/41/47 32/44/48
f 33/45/49 31/46/50 32/47/51 34/48/52
f 35/49/53 33/45/54 34/48/55 36/50/56
f 36/51/57 25/37/58 28/40/59 35/52/60
f 1/10/61 6/11/62 20/30/63 19/29/64
f 6/11/65 5/17/66 21/31/67 20/30/68
f 22/32/69 21/31/70 5/17/71 11/15/72
f 23/34/73 22/33/74 11/6/75 12/20/76
f 24/36/77 23/34/78 12/20/79 4/13/80
f 4/2/81 1/10/82 19/29/83 24/35/84
f 19/29/85 20/30/86 26/38/87 25/37/88
f 14/22/89 13/21/90 28/40/91 27/39/92
f 20/30/93 21/31/94 29/41/95 26/38/96
f 15/23/97 14/22/98 27/39/99 30/42/100
f 16/24/101 15/23/102 30/42/103 31/43/104
f 21/31/105 22/32/106 32/44/107 29/41/108
f 17/26/109 16/25/110 31/46/111 33/45/112
f 22/33/113 23/34/114 34/48/115 32/47/116
f 18/28/117 17/26/118 33/45/119 35/49/120
f 23/34/121 24/36/122 36/50/123 34/48/124
f 24/35/125 19/29/126 25/37/127 36/51/128
f 13/21/129 18/27/130 35/52/131 28/40/132
