# This file uses centimeters as units for non-parametric coordinates.

mtllib MineTop1.mtl
g default
v -9.972771 4.327625 7.352337
v -9.972771 4.414239 7.420437
v -8.972771 4.414239 7.420437
v -9.040871 4.327625 7.352337
v -9.972771 4.905110 7.352337
v -9.972771 4.818496 7.420437
v -9.040871 4.905110 7.352337
v -8.972771 4.818496 7.420437
v -9.972771 4.818496 2.667710
v -9.972771 4.905110 2.735809
v -9.040871 4.905110 2.735809
v -8.972771 4.818496 2.667710
v -9.972771 4.327625 2.735809
v -9.972771 4.414239 2.667710
v -9.040871 4.327625 2.735809
v -8.972771 4.414239 2.667710
vt 0.125000 0.037496
vt 0.128582 0.000000
vt 0.371418 0.250000
vt 0.128582 0.250000
vt 0.125000 0.212504
vt 0.371418 0.000000
vt 0.607975 0.000000
vt 0.625000 1.000000
vt 0.607975 0.996418
vt 0.625000 0.712504
vt 0.375000 0.212504
vt 0.375000 0.496418
vt 0.375000 0.712504
vt 0.607975 0.753582
vt 0.375000 0.037496
vt 0.625000 0.037496
vt 0.375000 0.253582
vt 0.607975 0.253582
vt 0.607975 0.496418
vt 0.375000 0.537496
vt 0.625000 0.537496
vt 0.375000 0.753582
vt 0.375000 0.996418
vt 0.875000 0.037496
vt 0.875000 0.212504
vt 0.625000 0.212504
vn -1.000000 0.000000 0.000000
vn -1.000000 0.000000 0.000000
vn -1.000000 0.000000 0.000000
vn -1.000000 0.000000 0.000000
vn -1.000000 0.000000 0.000000
vn -1.000000 0.000000 0.000000
vn -1.000000 0.000000 0.000000
vn -1.000000 0.000000 0.000000
vn 0.000000 -0.618080 0.786115
vn 0.000000 -0.618080 0.786115
vn 0.000000 -0.618080 0.786115
vn 0.000000 -0.618080 0.786115
vn 0.786115 -0.618081 0.000000
vn 0.786115 -0.618081 0.000000
vn 0.786115 -0.618081 0.000000
vn 0.786115 -0.618081 0.000000
vn 0.000000 0.618080 0.786115
vn 0.000000 0.618080 0.786115
vn 0.000000 0.618080 0.786115
vn 0.000000 0.618080 0.786115
vn 0.786115 0.618081 0.000000
vn 0.786115 0.618081 0.000000
vn 0.786115 0.618081 0.000000
vn 0.786115 0.618081 0.000000
vn 0.000000 0.618079 -0.786116
vn 0.000000 0.618079 -0.786116
vn 0.000000 0.618079 -0.786116
vn 0.000000 0.618079 -0.786116
vn 0.000000 -0.618079 -0.786116
vn 0.000000 -0.618079 -0.786116
vn 0.000000 -0.618079 -0.786116
vn 0.000000 -0.618079 -0.786116
vn 0.000000 0.000000 1.000000
vn 0.000000 0.000000 1.000000
vn 0.000000 0.000000 1.000000
vn 0.000000 0.000000 1.000000
vn 0.000000 1.000000 0.000000
vn 0.000000 1.000000 0.000000
vn 0.000000 1.000000 0.000000
vn 0.000000 1.000000 0.000000
vn 0.000000 0.000000 -1.000000
vn 0.000000 0.000000 -1.000000
vn 0.000000 0.000000 -1.000000
vn 0.000000 0.000000 -1.000000
vn 0.000000 -1.000000 0.000000
vn 0.000000 -1.000000 0.000000
vn 0.000000 -1.000000 0.000000
vn 0.000000 -1.000000 0.000000
vn 1.000000 0.000000 0.000000
vn 1.000000 0.000000 0.000000
vn 1.000000 0.000000 0.000000
vn 1.000000 0.000000 0.000000
s off
g pCube2
usemtl initialShadingGroup
f 14/1/1 13/2/2 1/6/3 2/15/4 6/11/5 5/3/6 10/4/7 9/5/8
f 2/15/9 1/6/10 4/7/11 3/16/12
f 3/8/13 4/9/14 15/14/15 16/10/16
f 5/17/17 6/11/18 8/26/19 7/18/20
f 7/18/21 8/26/22 12/21/23 11/19/24
f 9/20/25 10/12/26 11/19/27 12/21/28
f 13/22/29 14/13/30 16/10/31 15/14/32
f 2/15/33 3/16/34 8/26/35 6/11/36
f 5/17/37 7/18/38 11/19/39 10/12/40
f 9/20/41 12/21/42 16/10/43 14/13/44
f 13/22/45 15/14/46 4/9/47 1/23/48
f 3/16/49 16/24/50 12/25/51 8/26/52
