# This file uses centimeters as units for non-parametric coordinates.

mtllib MineTop2.mtl
g default
v -9.972771 4.818496 -7.364656
v -9.972771 4.905110 -7.296556
v -9.040871 4.905110 -7.296556
v -8.972771 4.818496 -7.364656
v -9.972771 4.327624 -7.296556
v -9.972771 4.414239 -7.364656
v -9.040871 4.327624 -7.296556
v -8.972771 4.414239 -7.364656
v -9.972771 4.909602 -4.860406
v -9.040871 4.909602 -4.860406
v -8.972771 4.821641 -4.898766
v -8.972771 4.411094 -5.077816
v -9.040871 4.323133 -5.116178
v -9.972771 4.323133 -5.116178
v -9.972771 4.325205 -6.122296
v -9.040871 4.325205 -6.122296
v -9.044898 4.356960 -6.133059
v -8.972771 4.820190 -6.036632
v -9.040871 4.907529 -6.017295
v -9.972771 4.907529 -6.017295
v -9.972771 4.325483 -6.257046
v -9.040871 4.325483 -6.257046
v -9.044898 4.357154 -6.274390
v -8.972771 4.819995 -6.171691
v -9.040871 4.907252 -6.119692
v -9.972771 4.907252 -6.102357
v -9.044898 4.764604 -6.036632
v -9.044898 4.764410 -6.171691
v -9.112998 4.851944 -6.017295
v -9.112998 4.851667 -6.119692
v -10.044898 4.851944 -6.017295
v -10.044898 4.851667 -6.102357
vt 0.125000 0.037496
vt 0.128582 0.000000
vt 0.128582 0.250000
vt 0.125000 0.212504
vt 0.625000 0.712504
vt 0.375000 0.496418
vt 0.375000 0.712504
vt 0.607975 0.753582
vt 0.607975 0.496418
vt 0.375000 0.537496
vt 0.625000 0.537496
vt 0.375000 0.753582
vt 0.875000 0.037496
vt 0.875000 0.212504
vt 0.312500 0.312500
vt 0.607975 0.375000
vt 0.687500 0.293752
vt 0.687500 0.446874
vt 0.607975 0.875000
vt 0.312500 0.437500
vt 0.227633 0.235619
vt 0.341340 0.583354
vt 0.607975 0.818973
vt 0.625932 0.725750
vt 0.774147 0.257102
vt 0.658660 0.406226
vt 0.774020 0.256261
vt 0.607975 0.431027
vt 0.227633 0.283660
vt 0.341340 0.397367
vt 0.216266 0.208581
vt 0.345203 0.602888
vt 0.607975 0.811469
vt 0.624433 0.727269
vt 0.785563 0.231348
vt 0.654797 0.421289
vt 0.785608 0.251239
vt 0.607975 0.438531
vt 0.216266 0.279797
vt 0.345203 0.408734
vt 0.774020 0.256261
vt 0.785608 0.251239
vt 0.607975 0.431027
vt 0.658660 0.406226
vt 0.654797 0.421289
vt 0.607975 0.438531
vt 0.341340 0.397367
vt 0.345203 0.408734
vn -1.000000 0.000000 0.000000
vn -1.000000 0.000000 0.000000
vn -1.000000 0.000000 0.000000
vn -1.000000 0.000000 0.000000
vn 0.883327 -0.468369 -0.019079
vn 0.883327 -0.468369 -0.019079
vn 0.898057 -0.439504 -0.018179
vn 0.897023 -0.441607 -0.018245
vn 0.789519 0.613725 -0.000943
vn 0.789519 0.613725 -0.000943
vn 0.789519 0.613725 -0.000943
vn 0.789519 0.613725 -0.000943
vn 0.000000 0.618077 -0.786117
vn 0.000000 0.618077 -0.786117
vn 0.000000 0.618077 -0.786117
vn 0.000000 0.618077 -0.786117
vn 0.000000 -0.618076 -0.786119
vn 0.000000 -0.618076 -0.786119
vn 0.000000 -0.618076 -0.786119
vn 0.000000 -0.618076 -0.786119
vn 0.000000 0.999998 -0.001792
vn 0.000000 0.999998 -0.001792
vn 0.000000 0.999998 -0.001792
vn 0.000000 0.999998 -0.001792
vn 0.000000 0.000000 -1.000000
vn 0.000000 0.000000 -1.000000
vn 0.000000 0.000000 -1.000000
vn 0.000000 0.000000 -1.000000
vn 0.000000 -0.999998 -0.002060
vn 0.000000 -0.999998 -0.002060
vn 0.000000 -0.999998 -0.002060
vn 0.000000 -0.999998 -0.002060
vn 0.996886 -0.072532 -0.030947
vn 0.996886 -0.072532 -0.030947
vn 0.996886 -0.072532 -0.030947
vn 0.996886 -0.072532 -0.030947
vn 0.000000 -0.399759 0.916620
vn 0.000000 -0.399759 0.916620
vn 0.000000 -0.399759 0.916620
vn 0.000000 -0.399759 0.916620
vn -0.000012 -0.399759 0.916620
vn -0.000012 -0.399759 0.916620
vn -0.000012 -0.399759 0.916620
vn -0.000012 -0.399759 0.916620
vn 0.000000 -0.999998 -0.002060
vn 0.000000 -0.999998 -0.002060
vn 0.901413 -0.432662 0.016047
vn 0.896124 -0.443502 0.016341
vn 1.000000 0.000000 0.000000
vn 1.000000 0.000000 0.000000
vn 1.000000 0.000000 0.000000
vn 1.000000 0.000000 0.000000
vn 0.788227 0.615384 -0.001223
vn 0.788227 0.615384 -0.001223
vn 0.788227 0.615384 -0.001223
vn 0.788227 0.615384 -0.001223
vn -0.000028 0.999996 -0.002961
vn -0.000028 0.999996 -0.002961
vn -0.000028 0.999996 -0.002961
vn -0.000028 0.999996 -0.002961
vn -1.000000 0.000000 0.000000
vn -1.000000 0.000000 0.000000
vn 0.000000 -0.999998 -0.002060
vn 0.000000 -0.999998 -0.002060
vn 0.884242 -0.466721 0.016967
vn 0.884242 -0.466721 0.016967
vn 0.995835 -0.086312 0.029357
vn 0.995835 -0.086312 0.029357
vn 0.995835 -0.086313 0.029357
vn 0.995835 -0.086312 0.029357
vn 0.786907 0.617071 -0.000948
vn 0.786907 0.617071 -0.000948
vn 0.786907 0.617071 -0.000948
vn 0.786907 0.617071 -0.000948
vn -0.000017 0.999998 -0.001807
vn -0.000017 0.999998 -0.001807
vn -0.000017 0.999998 -0.001807
vn -0.000017 0.999998 -0.001807
vn -1.000000 0.000000 0.000000
vn -1.000000 0.000000 0.000000
vn -1.000000 0.000000 0.000000
vn -1.000000 0.000000 0.000000
vn -0.174675 0.226657 -0.958183
vn -0.174675 0.226657 -0.958183
vn -0.174675 0.226657 -0.958183
vn 0.185180 -0.240288 0.952875
vn 0.185180 -0.240288 0.952875
vn 0.185180 -0.240288 0.952875
vn -0.104991 0.136235 -0.985097
vn -0.104991 0.136235 -0.985097
vn -0.104991 0.136235 -0.985097
vn -0.104991 0.136235 -0.985097
vn 0.259559 -0.336802 0.905093
vn 0.259559 -0.336802 0.905093
vn 0.259559 -0.336802 0.905093
vn 0.259559 -0.336802 0.905093
vn 0.000000 0.000000 -1.000000
vn 0.000000 0.000000 -1.000000
vn 0.000000 0.000000 -1.000000
vn 0.000000 0.000000 -1.000000
vn 0.018593 -0.024126 0.999536
vn 0.018593 -0.024126 0.999536
vn 0.018593 -0.024126 0.999536
vn 0.018593 -0.024126 0.999536
vn 0.610419 -0.792074 0.002585
vn 0.610419 -0.792074 0.002585
vn 0.610419 -0.792074 0.002585
vn 0.610419 -0.792074 0.002585
s 1
g pCube9
usemtl initialShadingGroup
f 20/29/1 15/21/2 14/20/3 9/15/4
s 2
f 12/18/5 13/19/6 16/23/7 17/24/8
s off
f 10/16/9 11/17/10 18/26/11 19/28/12
f 1/10/13 2/6/14 3/9/15 4/11/16
f 5/12/17 6/7/18 8/5/19 7/8/20
f 9/15/21 10/16/22 19/28/23 20/30/24
f 1/10/25 4/11/26 8/5/27 6/7/28
s 3
f 15/22/29 16/23/30 13/19/31 14/20/32
s off
f 11/17/33 12/18/34 17/25/35 18/27/36
f 10/16/37 9/15/38 14/20/39 13/19/40
f 11/17/41 10/16/42 13/19/43 12/18/44
s 3
f 21/32/45 22/33/46 16/23/30 15/22/29
s 2
f 17/24/8 16/23/7 22/33/47 23/34/48
s off
f 27/41/49 17/25/50 23/35/51 28/42/52
f 29/43/53 27/44/54 28/45/55 30/46/56
f 31/47/57 29/43/58 30/46/59 32/48/60
s 1
f 26/39/61 21/31/62 15/21/2 20/29/1
s 3
f 5/12/63 7/8/64 22/33/46 21/32/45
s 2
f 23/34/48 22/33/47 7/8/65 8/5/66
s off
f 24/37/67 23/35/68 8/13/69 4/14/70
f 25/38/71 24/36/72 4/11/73 3/9/74
f 26/40/75 25/38/76 3/9/77 2/6/78
s 1
f 6/1/79 5/2/80 21/31/62 26/39/61 2/3/81 1/4/82
s off
f 18/27/83 17/25/84 27/41/85
f 23/35/86 24/37/87 28/42/88
f 19/28/89 18/26/90 27/44/91 29/43/92
f 24/36/93 25/38/94 30/46/95 28/45/96
f 20/30/97 19/28/98 29/43/99 31/47/100
f 25/38/101 26/40/102 32/48/103 30/46/104
f 26/40/105 20/30/106 31/47/107 32/48/108
