# This file uses centimeters as units for non-parametric coordinates.

mtllib BackPipe =8.mtl
g default
v 9.195457 -1.719461 -26.481768
v 9.282410 -1.719461 -26.749376
v 9.282409 -1.719461 -27.030758
v 9.195457 -1.719461 -27.298367
v 9.030065 -1.719461 -27.526009
v 8.802424 -1.719461 -27.691400
v 8.534815 -1.719461 -27.778351
v 8.253434 -1.719461 -27.778351
v 7.985825 -1.719461 -27.691399
v 7.758184 -1.719461 -27.526007
v 7.592792 -1.719461 -27.298366
v 7.505840 -1.719461 -27.030758
v 7.505841 -1.719461 -26.749376
v 7.592792 -1.719461 -26.481767
v 7.758183 -1.719461 -26.254126
v 7.985825 -1.719461 -26.088734
v 8.253434 -1.719461 -26.001783
v 8.534815 -1.719461 -26.001783
v 8.802423 -1.719461 -26.088735
v 9.030065 -1.719461 -26.254126
v 9.195457 -0.470930 -26.481768
v 9.282410 -0.470930 -26.749376
v 9.282409 -0.470930 -27.030758
v 9.195457 -0.470930 -27.298367
v 9.030065 -0.470930 -27.526009
v 8.802424 -0.470930 -27.691400
v 8.534815 -0.470930 -27.778351
v 8.253434 -0.470930 -27.778351
v 7.985825 -0.470930 -27.691399
v 7.758184 -0.470930 -27.526007
v 7.592792 -0.470930 -27.298366
v 7.505840 -0.470930 -27.030758
v 7.505841 -0.470930 -26.749376
v 7.592792 -0.470930 -26.481767
v 7.758183 -0.470930 -26.254126
v 7.985825 -0.470930 -26.088734
v 8.253434 -0.470930 -26.001783
v 8.534815 -0.470930 -26.001783
v 8.802423 -0.470930 -26.088735
v 9.030065 -0.470930 -26.254126
v 8.394124 -1.719461 -26.890067
v 9.192513 0.559773 -26.484712
v 9.279904 0.688681 -26.751881
v 9.280589 0.889462 -27.032577
v 9.194501 1.142457 -27.299322
v 9.030065 1.422903 -27.526009
v 8.803380 1.703356 -27.690444
v 8.536634 1.956347 -27.776532
v 8.255939 2.157131 -27.775846
v 7.988769 2.286040 -27.688455
v 7.761279 2.330453 -27.522913
v 7.595736 2.286040 -27.295422
v 7.508345 2.157131 -27.028252
v 7.507661 1.956347 -26.747556
v 7.593748 1.703356 -26.480811
v 7.758183 1.422903 -26.254126
v 7.984869 1.142457 -26.089690
v 8.251614 0.889462 -26.003603
v 8.532310 0.688681 -26.004288
v 8.799480 0.559773 -26.091678
v 9.026970 0.515355 -26.257221
v 10.939861 0.558767 -24.737364
v 11.209563 0.687825 -24.822222
v 11.494214 0.888840 -24.818953
v 11.765945 1.142129 -24.727879
v 11.998151 1.422902 -24.557923
v 12.168114 1.703679 -24.325710
v 12.259168 1.956973 -24.053998
v 12.262441 2.157983 -23.769344
v 12.177591 2.287042 -23.499634
v 12.012913 2.331513 -23.271278
v 11.784558 2.287042 -23.106600
v 11.514847 2.157983 -23.021750
v 11.230193 1.956972 -23.025024
v 10.958482 1.703679 -23.116078
v 10.726268 1.422902 -23.286041
v 10.556312 1.142129 -23.518247
v 10.465239 0.888840 -23.789978
v 10.461969 0.687825 -24.074629
v 10.546828 0.558767 -24.344330
v 10.711493 0.514298 -24.572698
v 10.935118 -1.735150 -24.742106
v 11.205532 -1.734083 -24.826253
v 11.362204 -1.728019 -23.921987
v 11.491284 -1.732425 -24.821882
v 11.764400 -1.730338 -24.729424
v 11.998146 -1.728019 -24.557928
v 12.169645 -1.725704 -24.324179
v 12.262097 -1.723606 -24.051069
v 12.266472 -1.721952 -23.765313
v 12.182324 -1.720889 -23.494901
v 12.017897 -1.720517 -23.266294
v 11.789291 -1.720889 -23.101867
v 11.518878 -1.721952 -23.017719
v 11.233122 -1.723606 -23.022095
v 10.960012 -1.725704 -23.114547
v 10.726263 -1.728019 -23.286046
v 10.554768 -1.730338 -23.519791
v 10.462310 -1.732425 -23.792907
v 10.457938 -1.734083 -24.078659
v 10.542085 -1.735150 -24.349073
v 10.706510 -1.735517 -24.577681
vt 0.375000 0.312500
vt 0.387500 0.312500
vt 0.387500 0.688440
vt 0.375000 0.688440
vt 0.400000 0.312500
vt 0.400000 0.688440
vt 0.412500 0.312500
vt 0.412500 0.688440
vt 0.425000 0.312500
vt 0.425000 0.688440
vt 0.437500 0.312500
vt 0.437500 0.688440
vt 0.450000 0.312500
vt 0.450000 0.688440
vt 0.462500 0.312500
vt 0.462500 0.688440
vt 0.475000 0.312500
vt 0.475000 0.688440
vt 0.487500 0.312500
vt 0.487500 0.688440
vt 0.500000 0.312500
vt 0.500000 0.688440
vt 0.512500 0.312500
vt 0.512500 0.688440
vt 0.525000 0.312500
vt 0.525000 0.688440
vt 0.537500 0.312500
vt 0.537500 0.688440
vt 0.550000 0.312500
vt 0.550000 0.688440
vt 0.562500 0.312500
vt 0.562500 0.688440
vt 0.575000 0.312500
vt 0.575000 0.688440
vt 0.587500 0.312500
vt 0.587500 0.688440
vt 0.600000 0.312500
vt 0.600000 0.688440
vt 0.612500 0.312500
vt 0.612500 0.688440
vt 0.625000 0.312500
vt 0.625000 0.688440
vt 0.626409 0.064408
vt 0.648603 0.107966
vt 0.500000 0.150000
vt 0.591842 0.029841
vt 0.548284 0.007647
vt 0.500000 -0.000000
vt 0.451716 0.007647
vt 0.408159 0.029841
vt 0.373591 0.064409
vt 0.351397 0.107966
vt 0.343750 0.156250
vt 0.351397 0.204534
vt 0.373591 0.248091
vt 0.408159 0.282659
vt 0.451716 0.304853
vt 0.500000 0.312500
vt 0.548284 0.304853
vt 0.591841 0.282659
vt 0.626409 0.248091
vt 0.648603 0.204534
vt 0.656250 0.156250
vt 0.648603 0.892034
vt 0.626409 0.935591
vt 0.500000 0.837500
vt 0.591841 0.970159
vt 0.548284 0.992353
vt 0.500000 1.000000
vt 0.451716 0.992353
vt 0.408159 0.970159
vt 0.373591 0.935591
vt 0.351397 0.892034
vt 0.343750 0.843750
vt 0.351397 0.795466
vt 0.373591 0.751909
vt 0.408159 0.717341
vt 0.451716 0.695147
vt 0.500000 0.687500
vt 0.548284 0.695147
vt 0.591842 0.717341
vt 0.626409 0.751908
vt 0.648603 0.795466
vt 0.656250 0.843750
vt 0.648603 0.892034
vt 0.626409 0.935591
vt 0.626409 0.935591
vt 0.648603 0.892034
vt 0.591841 0.970159
vt 0.591841 0.970159
vt 0.548284 0.992353
vt 0.548284 0.992353
vt 0.500000 1.000000
vt 0.500000 1.000000
vt 0.451716 0.992353
vt 0.451716 0.992353
vt 0.408159 0.970159
vt 0.408159 0.970159
vt 0.373591 0.935591
vt 0.373591 0.935591
vt 0.351397 0.892034
vt 0.351397 0.892034
vt 0.343750 0.843750
vt 0.343750 0.843750
vt 0.351397 0.795466
vt 0.351397 0.795466
vt 0.373591 0.751909
vt 0.373591 0.751909
vt 0.408159 0.717341
vt 0.408159 0.717341
vt 0.451716 0.695147
vt 0.451716 0.695147
vt 0.500000 0.687500
vt 0.500000 0.687500
vt 0.548284 0.695147
vt 0.548284 0.695147
vt 0.591842 0.717341
vt 0.591842 0.717341
vt 0.626409 0.751908
vt 0.626409 0.751908
vt 0.648603 0.795466
vt 0.648603 0.795466
vt 0.656250 0.843750
vt 0.656250 0.843750
vt 0.626409 0.935591
vt 0.648603 0.892034
vt 0.591841 0.970159
vt 0.548284 0.992353
vt 0.500000 1.000000
vt 0.451716 0.992353
vt 0.408159 0.970159
vt 0.373591 0.935591
vt 0.351397 0.892034
vt 0.343750 0.843750
vt 0.351397 0.795466
vt 0.373591 0.751909
vt 0.408159 0.717341
vt 0.451716 0.695147
vt 0.500000 0.687500
vt 0.548284 0.695147
vt 0.591842 0.717341
vt 0.626409 0.751908
vt 0.648603 0.795466
vt 0.656250 0.843750
vn 0.891005 0.000000 0.453994
vn 0.987688 0.000000 0.156435
vn 0.988365 0.001169 0.152094
vn 0.892063 0.001684 0.451908
vn 0.987688 0.000000 -0.156437
vn 0.986741 0.000590 -0.162303
vn 0.891006 0.000000 -0.453991
vn 0.887873 0.000176 -0.460089
vn 0.707107 0.000000 -0.707107
vn 0.702084 0.000034 -0.712094
vn 0.453990 0.000000 -0.891007
vn 0.448077 0.000148 -0.893995
vn 0.156435 0.000000 -0.987688
vn 0.150936 0.000422 -0.988543
vn -0.156434 0.000000 -0.987688
vn -0.160391 0.000734 -0.987053
vn -0.453993 0.000000 -0.891005
vn -0.455857 0.000972 -0.890053
vn -0.707107 -0.000000 -0.707107
vn -0.707106 0.001060 -0.707106
vn -0.891005 -0.000000 -0.453993
vn -0.890053 0.000972 -0.455856
vn -0.987688 -0.000000 -0.156434
vn -0.987054 0.000735 -0.160389
vn -0.987688 -0.000000 0.156435
vn -0.988543 0.000423 0.150936
vn -0.891007 -0.000000 0.453990
vn -0.893995 0.000148 0.448077
vn -0.707107 -0.000000 0.707107
vn -0.712094 0.000034 0.702084
vn -0.453990 -0.000000 0.891007
vn -0.460088 0.000176 0.887873
vn -0.156434 -0.000000 0.987688
vn -0.162302 0.000590 0.986741
vn 0.156434 -0.000000 0.987688
vn 0.152093 0.001168 0.988365
vn 0.453991 -0.000000 0.891006
vn 0.451905 0.001684 0.892064
vn 0.707106 0.000000 0.707107
vn 0.707105 0.001892 0.707106
vn 0.000000 -1.000000 0.000000
vn 0.000000 -1.000000 0.000000
vn -0.000000 -1.000000 0.000000
vn 0.000000 -1.000000 -0.000000
vn 0.000000 -1.000000 -0.000000
vn 0.000000 -1.000000 -0.000000
vn 0.000000 -1.000000 -0.000000
vn 0.000000 -1.000000 -0.000000
vn -0.000000 -1.000000 -0.000000
vn -0.000000 -1.000000 -0.000000
vn -0.000000 -1.000000 -0.000000
vn -0.000000 -1.000000 -0.000000
vn -0.000000 -1.000000 -0.000000
vn -0.000000 -1.000000 0.000000
vn -0.000000 -1.000000 0.000000
vn -0.000000 -1.000000 0.000000
vn -0.000000 -1.000000 0.000000
vn -0.000000 -1.000000 0.000000
vn 0.000000 -1.000000 0.000000
vn 0.000000 -1.000000 0.000000
vn 0.000000 -1.000000 0.000000
vn 0.005720 -0.999967 0.005716
vn 0.005719 -0.999967 0.005716
vn 0.005718 -0.999967 0.005718
vn 0.005711 -0.999967 0.005715
vn 0.005714 -0.999967 0.005719
vn 0.005717 -0.999967 0.005717
vn 0.005720 -0.999967 0.005728
vn 0.005725 -0.999967 0.005721
vn 0.005721 -0.999967 0.005705
vn 0.005714 -0.999967 0.005721
vn 0.005720 -0.999967 0.005720
vn 0.005721 -0.999967 0.005714
vn 0.005705 -0.999967 0.005721
vn 0.005721 -0.999967 0.005725
vn 0.005728 -0.999967 0.005720
vn 0.005717 -0.999967 0.005717
vn 0.005719 -0.999967 0.005714
vn 0.005715 -0.999967 0.005711
vn 0.005716 -0.999967 0.005719
vn 0.005716 -0.999967 0.005720
vn 0.005717 -0.999967 0.005717
vn 0.995087 0.002184 0.098984
vn 0.905159 0.003592 0.425059
vn 0.973204 0.000898 -0.229940
vn 0.746119 -0.159445 -0.646439
vn 0.686444 0.058489 -0.724827
vn 0.585676 0.272923 -0.763215
vn 0.079597 0.000742 -0.996827
vn -0.216711 0.001158 -0.976235
vn -0.485036 0.001440 -0.874493
vn -0.707106 0.001536 -0.707106
vn -0.874493 0.001440 -0.485036
vn -0.976236 0.001158 -0.216709
vn -0.996827 0.000743 0.079599
vn -0.763215 0.272924 0.585675
vn -0.724827 0.058489 0.686444
vn -0.646439 -0.159446 0.746119
vn -0.229938 0.000898 0.973205
vn 0.098984 0.002184 0.995087
vn 0.425056 0.003591 0.905160
vn 0.707100 0.004234 0.707101
vn 0.241788 -0.939590 -0.242302
vn 0.450275 -0.770856 -0.450593
vn 0.450818 -0.770221 -0.451135
vn 0.242192 -0.939381 -0.242706
vn 0.602752 -0.522704 -0.602885
vn 0.603177 -0.521723 -0.603310
vn 0.625998 -0.127841 -0.769274
vn 0.730406 0.048972 -0.681255
vn 0.794091 0.231403 -0.562025
vn 0.541452 0.643065 -0.541569
vn 0.540844 0.644087 -0.540961
vn 0.383444 0.840120 -0.383626
vn 0.382676 0.840820 -0.382859
vn 0.197094 0.960322 -0.197322
vn 0.196487 0.960571 -0.196715
vn -0.000122 1.000000 -0.000122
vn -0.000122 1.000000 -0.000122
vn -0.197322 0.960322 0.197094
vn -0.196715 0.960571 0.196487
vn -0.383626 0.840120 0.383444
vn -0.382859 0.840820 0.382677
vn -0.541569 0.643064 0.541453
vn -0.540961 0.644086 0.540845
vn -0.562025 0.231403 0.794091
vn -0.681255 0.048972 0.730406
vn -0.769275 -0.127841 0.625998
vn -0.602885 -0.522705 0.602751
vn -0.603310 -0.521724 0.603177
vn -0.450593 -0.770855 0.450275
vn -0.451135 -0.770221 0.450818
vn -0.242302 -0.939589 0.241788
vn -0.242706 -0.939381 0.242193
vn -0.000301 -1.000000 -0.000300
vn -0.000301 -1.000000 -0.000300
vn -0.419620 0.002629 -0.907696
vn -0.089885 0.001697 -0.995951
vn -0.139637 0.001854 -0.990201
vn -0.444882 0.002688 -0.895585
vn 0.237208 0.000753 -0.971459
vn 0.174457 0.000931 -0.984664
vn 0.466413 0.000277 -0.884567
vn 0.711358 0.000053 -0.702830
vn 0.889838 0.000230 -0.456276
vn 0.995300 0.000777 -0.096839
vn 0.986296 0.000665 -0.164987
vn 0.979432 0.001252 0.201769
vn 0.989224 0.001168 0.146406
vn 0.878696 0.001588 0.477378
vn 0.894002 0.001558 0.448061
vn 0.707106 0.001705 0.707106
vn 0.707106 0.001705 0.707106
vn 0.477378 0.001588 0.878696
vn 0.448060 0.001558 0.894002
vn 0.201769 0.001252 0.979432
vn 0.146405 0.001168 0.989224
vn -0.096840 0.000777 0.995300
vn -0.164987 0.000665 0.986295
vn -0.456275 0.000230 0.889839
vn -0.702830 0.000053 0.711358
vn -0.884567 0.000277 0.466412
vn -0.971459 0.000753 0.237208
vn -0.984664 0.000931 0.174458
vn -0.995951 0.001697 -0.089884
vn -0.990201 0.001854 -0.139636
vn -0.907696 0.002629 -0.419620
vn -0.895585 0.002688 -0.444882
vn -0.707104 0.003027 -0.707104
vn -0.707104 0.003027 -0.707104
s 1
g pCylinder27 pCylinder3 pCylinder2
usemtl initialShadingGroup
f 1/1/1 2/2/2 22/3/3 21/4/4
f 2/2/2 3/5/5 23/6/6 22/3/3
f 3/5/5 4/7/7 24/8/8 23/6/6
f 4/7/7 5/9/9 25/10/10 24/8/8
f 5/9/9 6/11/11 26/12/12 25/10/10
f 6/11/11 7/13/13 27/14/14 26/12/12
f 7/13/13 8/15/15 28/16/16 27/14/14
f 8/15/15 9/17/17 29/18/18 28/16/16
f 9/17/17 10/19/19 30/20/20 29/18/18
f 10/19/19 11/21/21 31/22/22 30/20/20
f 11/21/21 12/23/23 32/24/24 31/22/22
f 12/23/23 13/25/25 33/26/26 32/24/24
f 13/25/25 14/27/27 34/28/28 33/26/26
f 14/27/27 15/29/29 35/30/30 34/28/28
f 15/29/29 16/31/31 36/32/32 35/30/30
f 16/31/31 17/33/33 37/34/34 36/32/32
f 17/33/33 18/35/35 38/36/36 37/34/34
f 18/35/35 19/37/37 39/38/38 38/36/36
f 19/37/37 20/39/39 40/40/40 39/38/38
f 20/39/39 1/41/1 21/42/4 40/40/40
s 2
f 2/43/41 1/44/42 41/45/43
f 3/46/44 2/43/41 41/45/43
f 4/47/45 3/46/44 41/45/43
f 5/48/46 4/47/45 41/45/43
f 6/49/47 5/48/46 41/45/43
f 7/50/48 6/49/47 41/45/43
f 8/51/49 7/50/48 41/45/43
f 9/52/50 8/51/49 41/45/43
f 10/53/51 9/52/50 41/45/43
f 11/54/52 10/53/51 41/45/43
f 12/55/53 11/54/52 41/45/43
f 13/56/54 12/55/53 41/45/43
f 14/57/55 13/56/54 41/45/43
f 15/58/56 14/57/55 41/45/43
f 16/59/57 15/58/56 41/45/43
f 17/60/58 16/59/57 41/45/43
f 18/61/59 17/60/58 41/45/43
f 19/62/60 18/61/59 41/45/43
f 20/63/61 19/62/60 41/45/43
f 1/44/42 20/63/61 41/45/43
s 3
f 82/64/62 83/65/63 84/66/64
f 83/65/63 85/67/65 84/66/64
f 85/67/65 86/68/66 84/66/64
f 86/68/66 87/69/67 84/66/64
f 87/69/67 88/70/68 84/66/64
f 88/70/68 89/71/69 84/66/64
f 89/71/69 90/72/70 84/66/64
f 90/72/70 91/73/71 84/66/64
f 91/73/71 92/74/72 84/66/64
f 92/74/72 93/75/73 84/66/64
f 93/75/73 94/76/74 84/66/64
f 94/76/74 95/77/75 84/66/64
f 95/77/75 96/78/76 84/66/64
f 96/78/76 97/79/77 84/66/64
f 97/79/77 98/80/78 84/66/64
f 98/80/78 99/81/79 84/66/64
f 99/81/79 100/82/80 84/66/64
f 100/82/80 101/83/81 84/66/64
f 101/83/81 102/84/82 84/66/64
f 102/84/82 82/64/62 84/66/64
s 1
f 21/85/4 22/86/3 43/87/83 42/88/84
f 22/86/3 23/89/6 44/90/85 43/87/83
f 23/89/6 24/91/8 45/92/86 44/90/85
f 24/91/8 25/93/10 46/94/87 45/92/86
f 25/93/10 26/95/12 47/96/88 46/94/87
f 26/95/12 27/97/14 48/98/89 47/96/88
f 27/97/14 28/99/16 49/100/90 48/98/89
f 28/99/16 29/101/18 50/102/91 49/100/90
f 29/101/18 30/103/20 51/104/92 50/102/91
f 30/103/20 31/105/22 52/106/93 51/104/92
f 31/105/22 32/107/24 53/108/94 52/106/93
f 32/107/24 33/109/26 54/110/95 53/108/94
f 33/109/26 34/111/28 55/112/96 54/110/95
f 34/111/28 35/113/30 56/114/97 55/112/96
f 35/113/30 36/115/32 57/116/98 56/114/97
f 36/115/32 37/117/34 58/118/99 57/116/98
f 37/117/34 38/119/36 59/120/100 58/118/99
f 38/119/36 39/121/38 60/122/101 59/120/100
f 39/121/38 40/123/40 61/124/102 60/122/101
f 40/123/40 21/85/4 42/88/84 61/124/102
f 42/88/103 43/87/104 63/125/105 62/126/106
f 43/87/104 44/90/107 64/127/108 63/125/105
f 44/90/107 45/92/86 65/128/109 64/127/108
f 45/92/86 46/94/87 66/129/110 65/128/109
f 46/94/87 47/96/88 67/130/111 66/129/110
f 47/96/88 48/98/112 68/131/113 67/130/111
f 48/98/112 49/100/114 69/132/115 68/131/113
f 49/100/114 50/102/116 70/133/117 69/132/115
f 50/102/116 51/104/118 71/134/119 70/133/117
f 51/104/118 52/106/120 72/135/121 71/134/119
f 52/106/120 53/108/122 73/136/123 72/135/121
f 53/108/122 54/110/124 74/137/125 73/136/123
f 54/110/124 55/112/96 75/138/126 74/137/125
f 55/112/96 56/114/97 76/139/127 75/138/126
f 56/114/97 57/116/98 77/140/128 76/139/127
f 57/116/98 58/118/129 78/141/130 77/140/128
f 58/118/129 59/120/131 79/142/132 78/141/130
f 59/120/131 60/122/133 80/143/134 79/142/132
f 60/122/133 61/124/135 81/144/136 80/143/134
f 61/124/135 42/88/103 62/126/106 81/144/136
f 62/126/137 63/125/138 83/65/139 82/64/140
f 63/125/138 64/127/141 85/67/142 83/65/139
f 64/127/141 65/128/109 86/68/143 85/67/142
f 65/128/109 66/129/110 87/69/144 86/68/143
f 66/129/110 67/130/111 88/70/145 87/69/144
f 67/130/111 68/131/146 89/71/147 88/70/145
f 68/131/146 69/132/148 90/72/149 89/71/147
f 69/132/148 70/133/150 91/73/151 90/72/149
f 70/133/150 71/134/152 92/74/153 91/73/151
f 71/134/152 72/135/154 93/75/155 92/74/153
f 72/135/154 73/136/156 94/76/157 93/75/155
f 73/136/156 74/137/158 95/77/159 94/76/157
f 74/137/158 75/138/126 96/78/160 95/77/159
f 75/138/126 76/139/127 97/79/161 96/78/160
f 76/139/127 77/140/128 98/80/162 97/79/161
f 77/140/128 78/141/163 99/81/164 98/80/162
f 78/141/163 79/142/165 100/82/166 99/81/164
f 79/142/165 80/143/167 101/83/168 100/82/166
f 80/143/167 81/144/169 102/84/170 101/83/168
f 81/144/169 62/126/137 82/64/140 102/84/170
