# This file uses centimeters as units for non-parametric coordinates.

mtllib BackPipe3.mtl
g default
v -6.654668 -0.890663 -25.386620
v -6.568557 -0.890663 -25.651642
v -6.568557 -0.890663 -25.930303
v -6.654669 -0.890663 -26.195324
v -6.818461 -0.890663 -26.420766
v -7.043903 -0.890663 -26.584558
v -7.308924 -0.890663 -26.670670
v -7.587585 -0.890663 -26.670670
v -7.852607 -0.890663 -26.584559
v -8.078052 -0.890663 -26.420763
v -8.241845 -0.890663 -26.195321
v -8.327955 -0.890663 -25.930300
v -8.327956 -0.890663 -25.651638
v -8.241842 -0.890663 -25.386619
v -8.078052 -0.890663 -25.161175
v -7.852608 -0.890663 -24.997385
v -7.587589 -0.890663 -24.911271
v -7.308927 -0.890663 -24.911272
v -7.043906 -0.890663 -24.997382
v -6.818464 -0.890663 -25.161175
v -6.671055 11.411455 -25.401762
v -6.583150 11.294588 -25.663871
v -6.579922 11.112563 -25.938422
v -6.661700 10.883198 -26.198535
v -6.820468 10.628949 -26.418759
v -7.040692 10.374700 -26.577528
v -7.300805 10.145336 -26.659305
v -7.575356 9.963310 -26.656077
v -7.837465 9.846444 -26.568172
v -8.061477 9.806176 -26.404187
v -8.225458 9.846444 -26.180179
v -8.313367 9.963310 -25.918067
v -8.316589 10.145337 -25.643522
v -8.234818 10.374700 -25.383401
v -8.076045 10.628949 -25.163182
v -7.855826 10.883198 -25.004409
v -7.595706 11.112561 -24.922639
v -7.321161 11.294588 -24.925860
v -7.059049 11.411453 -25.013769
v -6.835040 11.451723 -25.177750
v -7.448258 -0.890663 -25.790969
v -6.654668 9.341586 -25.386620
v -6.568558 9.341586 -25.651641
v -6.568557 9.341585 -25.930303
v -6.654669 9.341584 -26.195324
v -6.818461 9.341586 -26.420766
v -7.043903 9.341587 -26.584558
v -7.308924 9.341587 -26.670670
v -7.587586 9.341586 -26.670669
v -7.852607 9.341587 -26.584559
v -8.078052 9.341587 -26.420763
v -8.241845 9.341587 -26.195321
v -8.327955 9.341586 -25.930300
v -8.327956 9.341587 -25.651638
v -8.241842 9.341587 -25.386619
v -8.078052 9.341586 -25.161175
v -7.852608 9.341584 -24.997385
v -7.587589 9.341584 -24.911271
v -7.308927 9.341586 -24.911272
v -7.043906 9.341586 -24.997382
v -6.818464 9.341585 -25.161175
v -8.016235 11.414205 -26.746943
v -7.840456 11.296928 -26.921177
v -7.700362 11.114263 -27.058862
v -7.609676 10.884094 -27.146512
v -7.577269 10.628949 -27.175560
v -7.606318 10.373804 -27.143154
v -7.693970 10.143634 -27.052469
v -7.831652 9.960971 -26.912373
v -8.005887 9.843694 -26.736595
v -8.199620 9.803283 -26.542331
v -8.393881 9.843694 -26.348601
v -8.569663 9.960971 -26.174363
v -8.709753 10.143635 -26.036686
v -8.800445 10.373804 -25.949028
v -8.832846 10.628949 -25.919983
v -8.803803 10.884094 -25.952386
v -8.716144 11.114263 -26.043077
v -8.578467 11.296927 -26.183167
v -8.404229 11.414203 -26.358949
v -8.210499 11.454616 -26.553210
v -8.163465 11.417311 -26.894173
v -8.078220 11.299569 -27.158941
v -8.079135 11.116181 -27.437635
v -8.166131 10.885099 -27.702966
v -8.330685 10.628949 -27.928975
v -8.556694 10.372798 -28.093529
v -8.822026 10.141718 -28.180526
v -9.100718 9.958327 -28.181439
v -9.365487 9.840588 -28.096195
v -9.590415 9.800018 -27.933125
v -9.753481 9.840588 -27.708201
v -9.838729 9.958327 -27.443429
v -9.837809 10.141718 -27.164742
v -9.750820 10.372798 -26.899403
v -9.586261 10.628949 -26.673399
v -9.360257 10.885099 -26.508840
v -9.094918 11.116178 -26.421851
v -8.816231 11.299569 -26.420931
v -8.551461 11.417308 -26.506182
v -8.326535 11.457880 -26.669245
v -8.161909 12.838937 -26.892616
v -8.076895 12.838086 -27.157617
v -8.958474 12.833231 -27.301185
v -8.078175 12.836755 -27.436674
v -8.165628 12.835081 -27.702463
v -8.330684 12.833231 -27.928975
v -8.557197 12.831379 -28.094032
v -8.822986 12.829706 -28.181486
v -9.102043 12.828374 -28.182764
v -9.367043 12.827524 -28.097750
v -9.592050 12.827230 -27.934761
v -9.755036 12.827524 -27.709757
v -9.840054 12.828374 -27.444754
v -9.838768 12.829706 -27.165701
v -9.751323 12.831379 -26.899906
v -9.586261 12.833231 -26.673398
v -9.359754 12.835081 -26.508337
v -9.093959 12.836752 -26.420892
v -8.814907 12.838086 -26.419606
v -8.549905 12.838938 -26.504625
v -8.324899 12.839229 -26.667609
vt 0.648603 0.107966
vt 0.626409 0.064408
vt 0.591842 0.029841
vt 0.548284 0.007647
vt 0.500000 -0.000000
vt 0.451716 0.007647
vt 0.408159 0.029841
vt 0.373591 0.064409
vt 0.351397 0.107966
vt 0.343750 0.156250
vt 0.351397 0.204534
vt 0.373591 0.248091
vt 0.408159 0.282659
vt 0.451716 0.304853
vt 0.500000 0.312500
vt 0.548284 0.304853
vt 0.591841 0.282659
vt 0.626409 0.248091
vt 0.648603 0.204534
vt 0.656250 0.156250
vt 0.375000 0.312500
vt 0.387500 0.312500
vt 0.400000 0.312500
vt 0.412500 0.312500
vt 0.425000 0.312500
vt 0.437500 0.312500
vt 0.450000 0.312500
vt 0.462500 0.312500
vt 0.475000 0.312500
vt 0.487500 0.312500
vt 0.500000 0.312500
vt 0.512500 0.312500
vt 0.525000 0.312500
vt 0.537500 0.312500
vt 0.550000 0.312500
vt 0.562500 0.312500
vt 0.575000 0.312500
vt 0.587500 0.312500
vt 0.600000 0.312500
vt 0.612500 0.312500
vt 0.625000 0.312500
vt 0.375000 0.688440
vt 0.387500 0.688440
vt 0.400000 0.688440
vt 0.412500 0.688440
vt 0.425000 0.688440
vt 0.437500 0.688440
vt 0.450000 0.688440
vt 0.462500 0.688440
vt 0.475000 0.688440
vt 0.487500 0.688440
vt 0.500000 0.688440
vt 0.512500 0.688440
vt 0.525000 0.688440
vt 0.537500 0.688440
vt 0.550000 0.688440
vt 0.562500 0.688440
vt 0.575000 0.688440
vt 0.587500 0.688440
vt 0.600000 0.688440
vt 0.612500 0.688440
vt 0.625000 0.688440
vt 0.648603 0.795466
vt 0.626409 0.751908
vt 0.591842 0.717341
vt 0.548284 0.695147
vt 0.500000 0.687500
vt 0.451716 0.695147
vt 0.408159 0.717341
vt 0.373591 0.751909
vt 0.351397 0.795466
vt 0.343750 0.843750
vt 0.351397 0.892034
vt 0.373591 0.935591
vt 0.408159 0.970159
vt 0.451716 0.992353
vt 0.500000 1.000000
vt 0.548284 0.992353
vt 0.591841 0.970159
vt 0.626409 0.935591
vt 0.648603 0.892034
vt 0.656250 0.843750
vt 0.500000 0.150000
vt 0.500000 0.837500
vt 0.625000 0.646427
vt 0.375000 0.646427
vt 0.387500 0.646427
vt 0.400000 0.646427
vt 0.412500 0.646427
vt 0.425000 0.646427
vt 0.437500 0.646427
vt 0.450000 0.646427
vt 0.462500 0.646427
vt 0.475000 0.646427
vt 0.487500 0.646427
vt 0.500000 0.646427
vt 0.512500 0.646427
vt 0.525000 0.646427
vt 0.537500 0.646427
vt 0.550000 0.646427
vt 0.562500 0.646427
vt 0.575000 0.646427
vt 0.587500 0.646427
vt 0.600000 0.646427
vt 0.612500 0.646427
vt 0.648603 0.892034
vt 0.626409 0.935591
vt 0.591841 0.970159
vt 0.548284 0.992353
vt 0.500000 1.000000
vt 0.451716 0.992353
vt 0.408159 0.970159
vt 0.373591 0.935591
vt 0.351397 0.892034
vt 0.343750 0.843750
vt 0.351397 0.795466
vt 0.373591 0.751909
vt 0.408159 0.717341
vt 0.451716 0.695147
vt 0.500000 0.687500
vt 0.548284 0.695147
vt 0.591842 0.717341
vt 0.626409 0.751908
vt 0.648603 0.795466
vt 0.656250 0.843750
vt 0.648603 0.892034
vt 0.626409 0.935591
vt 0.591841 0.970159
vt 0.548284 0.992353
vt 0.500000 1.000000
vt 0.451716 0.992353
vt 0.408159 0.970159
vt 0.373591 0.935591
vt 0.351397 0.892034
vt 0.343750 0.843750
vt 0.351397 0.795466
vt 0.373591 0.751909
vt 0.408159 0.717341
vt 0.451716 0.695147
vt 0.500000 0.687500
vt 0.548284 0.695147
vt 0.591842 0.717341
vt 0.626409 0.751908
vt 0.648603 0.795466
vt 0.656250 0.843750
vt 0.648603 0.892034
vt 0.626409 0.935591
vt 0.591841 0.970159
vt 0.548284 0.992353
vt 0.500000 1.000000
vt 0.451716 0.992353
vt 0.408159 0.970159
vt 0.373591 0.935591
vt 0.351397 0.892034
vt 0.343750 0.843750
vt 0.351397 0.795466
vt 0.373591 0.751909
vt 0.408159 0.717341
vt 0.451716 0.695147
vt 0.500000 0.687500
vt 0.548284 0.695147
vt 0.591842 0.717341
vt 0.626409 0.751908
vt 0.648603 0.795466
vt 0.656250 0.843750
vn 0.890605 0.001712 0.454774
vn 0.987441 0.001326 0.157986
vn 0.976347 0.008752 0.216031
vn 0.874913 0.010404 0.484168
vn 0.987990 0.000842 -0.154516
vn 0.996814 0.006320 -0.079505
vn 0.891888 0.000441 -0.452256
vn 0.831795 0.200097 -0.517763
vn 0.708262 0.000287 -0.705949
vn 0.739929 0.046494 -0.671076
vn 0.455013 0.000460 -0.890485
vn 0.603060 -0.099280 -0.791493
vn 0.157076 0.000914 -0.987586
vn 0.225436 0.010453 -0.974202
vn -0.156162 0.001484 -0.987730
vn -0.104667 0.023207 -0.994236
vn -0.453924 0.001949 -0.891038
vn -0.428490 0.039181 -0.902697
vn -0.707105 0.002127 -0.707105
vn -0.706317 0.047264 -0.706316
vn -0.891040 0.001949 -0.453921
vn -0.902697 0.039180 -0.428489
vn -0.987730 0.001484 -0.156162
vn -0.994237 0.023206 -0.104660
vn -0.987585 0.000914 0.157080
vn -0.974203 0.010450 0.225433
vn -0.890485 0.000460 0.455013
vn -0.791492 -0.099277 0.603062
vn -0.705949 0.000287 0.708263
vn -0.671077 0.046485 0.739929
vn -0.452256 0.000440 0.891888
vn -0.517757 0.200108 0.831796
vn -0.154519 0.000841 0.987989
vn -0.079510 0.006319 0.996814
vn 0.157985 0.001326 0.987440
vn 0.216033 0.008752 0.976347
vn 0.454770 0.001712 0.890607
vn 0.484165 0.010404 0.874915
vn 0.707105 0.001857 0.707106
vn 0.707064 0.010974 0.707065
vn 0.000000 -1.000000 0.000000
vn 0.000000 -1.000000 0.000000
vn 0.000000 -1.000000 0.000000
vn 0.000000 -1.000000 0.000000
vn 0.000000 -1.000000 0.000000
vn 0.000000 -1.000000 0.000000
vn 0.000000 -1.000000 0.000000
vn 0.000000 -1.000000 0.000000
vn 0.000000 -1.000000 0.000000
vn 0.000000 -1.000000 0.000000
vn 0.000000 -1.000000 0.000000
vn 0.000000 -1.000000 0.000000
vn 0.000000 -1.000000 0.000000
vn 0.000000 -1.000000 0.000000
vn 0.000000 -1.000000 0.000000
vn 0.000000 -1.000000 0.000000
vn 0.000000 -1.000000 0.000000
vn 0.000000 -1.000000 0.000000
vn 0.000000 -1.000000 0.000000
vn 0.000000 -1.000000 0.000000
vn 0.000000 -1.000000 0.000000
vn -0.004736 0.999978 -0.004732
vn -0.004735 0.999977 -0.004740
vn -0.004735 0.999978 -0.004734
vn -0.004733 0.999977 -0.004746
vn -0.004729 0.999978 -0.004733
vn -0.004727 0.999978 -0.004727
vn -0.004732 0.999978 -0.004730
vn -0.004745 0.999977 -0.004734
vn -0.004741 0.999977 -0.004736
vn -0.004732 0.999978 -0.004736
vn -0.004735 0.999978 -0.004735
vn -0.004738 0.999978 -0.004730
vn -0.004739 0.999978 -0.004738
vn -0.004735 0.999977 -0.004744
vn -0.004731 0.999978 -0.004731
vn -0.004727 0.999978 -0.004727
vn -0.004729 0.999978 -0.004727
vn -0.004746 0.999977 -0.004730
vn -0.004746 0.999977 -0.004734
vn -0.004732 0.999978 -0.004737
vn -0.004732 0.999978 -0.004736
vn 0.891005 0.000000 0.453993
vn 0.987688 0.000000 0.156435
vn 0.987688 0.000000 -0.156435
vn 0.891006 0.000000 -0.453991
vn 0.707107 0.000000 -0.707107
vn 0.453991 0.000000 -0.891006
vn 0.156436 0.000000 -0.987688
vn -0.156434 0.000000 -0.987688
vn -0.453993 0.000000 -0.891005
vn -0.707107 0.000000 -0.707107
vn -0.891007 0.000000 -0.453990
vn -0.987688 0.000000 -0.156434
vn -0.987688 0.000000 0.156439
vn -0.891006 0.000000 0.453991
vn -0.707107 0.000000 0.707107
vn -0.453991 0.000000 0.891006
vn -0.156439 0.000000 0.987688
vn 0.156435 0.000000 0.987688
vn 0.453989 0.000000 0.891007
vn 0.707106 0.000000 0.707107
vn 0.182936 0.966324 -0.180973
vn 0.360297 0.861129 -0.358670
vn 0.397186 0.828641 -0.394458
vn 0.206324 0.957269 -0.202648
vn 0.520364 0.677928 -0.519265
vn 0.557963 0.615667 -0.556446
vn 0.667817 0.329717 -0.667314
vn 0.707160 -0.000324 -0.707053
vn 0.667674 -0.330286 -0.667175
vn 0.595317 -0.541870 -0.593275
vn 0.557740 -0.616052 -0.556243
vn 0.441253 -0.784896 -0.435010
vn 0.396961 -0.828832 -0.394284
vn 0.242300 -0.942834 -0.228809
vn 0.206160 -0.957321 -0.202570
vn 0.009203 -0.999915 0.009204
vn 0.001965 -0.999996 0.001965
vn -0.228807 -0.942836 0.242298
vn -0.202570 -0.957321 0.206160
vn -0.435016 -0.784889 0.441259
vn -0.394287 -0.828829 0.396963
vn -0.593267 -0.541888 0.595308
vn -0.556242 -0.616054 0.557738
vn -0.667173 -0.330293 0.667672
vn -0.707053 -0.000323 0.707160
vn -0.667312 0.329724 0.667815
vn -0.519271 0.677918 0.520370
vn -0.556444 0.615670 0.557961
vn -0.358665 0.861133 0.360292
vn -0.394458 0.828641 0.397186
vn -0.180976 0.966324 0.182938
vn -0.202648 0.957269 0.206324
vn 0.001033 0.999999 0.001041
vn 0.002012 0.999996 0.002020
vn 0.446140 0.780083 -0.438668
vn 0.249581 0.940027 -0.232503
vn 0.597387 0.537646 -0.595034
vn 0.814042 0.066554 -0.576980
vn 0.666608 -0.032775 -0.744688
vn 0.491327 -0.149542 -0.858041
vn 0.520266 -0.678180 -0.519033
vn 0.360083 -0.861388 -0.358261
vn 0.182719 -0.966449 -0.180526
vn 0.001158 -0.999999 0.001158
vn -0.180527 -0.966449 0.182720
vn -0.358260 -0.861389 0.360082
vn -0.519039 -0.678170 0.520272
vn -0.858048 -0.149551 0.491313
vn -0.744682 -0.032770 0.666614
vn -0.576985 0.066550 0.814039
vn -0.595026 0.537664 0.597378
vn -0.438673 0.780078 0.446143
vn -0.232500 0.940029 0.249579
vn 0.012091 0.999854 0.012100
vn 0.905054 -0.001390 0.425295
vn 0.995025 -0.000882 0.099620
vn 0.989300 -0.000961 0.145893
vn 0.893810 -0.001420 0.448444
vn 0.973611 -0.000382 -0.228214
vn 0.985679 -0.000470 -0.168631
vn 0.885805 -0.000136 -0.464058
vn 0.701138 -0.000025 -0.713026
vn 0.449703 -0.000107 -0.893178
vn 0.089674 -0.000350 -0.995971
vn 0.154733 -0.000303 -0.987956
vn -0.207944 -0.000557 -0.978141
vn -0.156347 -0.000523 -0.987702
vn -0.480253 -0.000700 -0.877130
vn -0.453547 -0.000689 -0.891232
vn -0.707106 -0.000750 -0.707107
vn -0.707107 -0.000750 -0.707107
vn -0.877130 -0.000700 -0.480252
vn -0.891232 -0.000689 -0.453547
vn -0.978140 -0.000557 -0.207945
vn -0.987703 -0.000523 -0.156343
vn -0.995970 -0.000350 0.089685
vn -0.987956 -0.000303 0.154731
vn -0.893182 -0.000107 0.449696
vn -0.713025 -0.000025 0.701139
vn -0.464054 -0.000135 0.885807
vn -0.228199 -0.000382 0.973614
vn -0.168626 -0.000469 0.985680
vn 0.099615 -0.000882 0.995026
vn 0.145894 -0.000961 0.989300
vn 0.425296 -0.001390 0.905053
vn 0.448443 -0.001420 0.893810
vn 0.707101 -0.001611 0.707110
vn 0.707101 -0.001611 0.707110
s 1
g pCylinder21
usemtl initialShadingGroup
f 42/86/1 43/87/2 22/43/3 21/42/4
f 43/87/2 44/88/5 23/44/6 22/43/3
f 44/88/5 45/89/7 24/45/8 23/44/6
f 45/89/7 46/90/9 25/46/10 24/45/8
f 46/90/9 47/91/11 26/47/12 25/46/10
f 47/91/11 48/92/13 27/48/14 26/47/12
f 48/92/13 49/93/15 28/49/16 27/48/14
f 49/93/15 50/94/17 29/50/18 28/49/16
f 50/94/17 51/95/19 30/51/20 29/50/18
f 51/95/19 52/96/21 31/52/22 30/51/20
f 52/96/21 53/97/23 32/53/24 31/52/22
f 53/97/23 54/98/25 33/54/26 32/53/24
f 54/98/25 55/99/27 34/55/28 33/54/26
f 55/99/27 56/100/29 35/56/30 34/55/28
f 56/100/29 57/101/31 36/57/32 35/56/30
f 57/101/31 58/102/33 37/58/34 36/57/32
f 58/102/33 59/103/35 38/59/36 37/58/34
f 59/103/35 60/104/37 39/60/38 38/59/36
f 60/104/37 61/105/39 40/61/40 39/60/38
f 61/105/39 42/85/1 21/62/4 40/61/40
s 2
f 2/2/41 1/1/42 41/83/43
f 3/3/44 2/2/41 41/83/43
f 4/4/45 3/3/44 41/83/43
f 5/5/46 4/4/45 41/83/43
f 6/6/47 5/5/46 41/83/43
f 7/7/48 6/6/47 41/83/43
f 8/8/49 7/7/48 41/83/43
f 9/9/50 8/8/49 41/83/43
f 10/10/51 9/9/50 41/83/43
f 11/11/52 10/10/51 41/83/43
f 12/12/53 11/11/52 41/83/43
f 13/13/54 12/12/53 41/83/43
f 14/14/55 13/13/54 41/83/43
f 15/15/56 14/14/55 41/83/43
f 16/16/57 15/15/56 41/83/43
f 17/17/58 16/16/57 41/83/43
f 18/18/59 17/17/58 41/83/43
f 19/19/60 18/18/59 41/83/43
f 20/20/61 19/19/60 41/83/43
f 1/1/42 20/20/61 41/83/43
s 3
f 102/146/62 103/147/63 104/84/64
f 103/147/63 105/148/65 104/84/64
f 105/148/65 106/149/66 104/84/64
f 106/149/66 107/150/67 104/84/64
f 107/150/67 108/151/68 104/84/64
f 108/151/68 109/152/69 104/84/64
f 109/152/69 110/153/70 104/84/64
f 110/153/70 111/154/71 104/84/64
f 111/154/71 112/155/72 104/84/64
f 112/155/72 113/156/73 104/84/64
f 113/156/73 114/157/74 104/84/64
f 114/157/74 115/158/75 104/84/64
f 115/158/75 116/159/76 104/84/64
f 116/159/76 117/160/77 104/84/64
f 117/160/77 118/161/78 104/84/64
f 118/161/78 119/162/79 104/84/64
f 119/162/79 120/163/80 104/84/64
f 120/163/80 121/164/81 104/84/64
f 121/164/81 122/165/82 104/84/64
f 122/165/82 102/146/62 104/84/64
s 1
f 1/21/83 2/22/84 43/87/2 42/86/1
f 2/22/84 3/23/85 44/88/5 43/87/2
f 3/23/85 4/24/86 45/89/7 44/88/5
f 4/24/86 5/25/87 46/90/9 45/89/7
f 5/25/87 6/26/88 47/91/11 46/90/9
f 6/26/88 7/27/89 48/92/13 47/91/11
f 7/27/89 8/28/90 49/93/15 48/92/13
f 8/28/90 9/29/91 50/94/17 49/93/15
f 9/29/91 10/30/92 51/95/19 50/94/17
f 10/30/92 11/31/93 52/96/21 51/95/19
f 11/31/93 12/32/94 53/97/23 52/96/21
f 12/32/94 13/33/95 54/98/25 53/97/23
f 13/33/95 14/34/96 55/99/27 54/98/25
f 14/34/96 15/35/97 56/100/29 55/99/27
f 15/35/97 16/36/98 57/101/31 56/100/29
f 16/36/98 17/37/99 58/102/33 57/101/31
f 17/37/99 18/38/100 59/103/35 58/102/33
f 18/38/100 19/39/101 60/104/37 59/103/35
f 19/39/101 20/40/102 61/105/39 60/104/37
f 20/40/102 1/41/83 42/85/1 61/105/39
f 21/81/103 22/80/104 63/107/105 62/106/106
f 22/80/104 23/79/107 64/108/108 63/107/105
f 23/79/107 24/78/8 65/109/109 64/108/108
f 24/78/8 25/77/10 66/110/110 65/109/109
f 25/77/10 26/76/12 67/111/111 66/110/110
f 26/76/12 27/75/112 68/112/113 67/111/111
f 27/75/112 28/74/114 69/113/115 68/112/113
f 28/74/114 29/73/116 70/114/117 69/113/115
f 29/73/116 30/72/118 71/115/119 70/114/117
f 30/72/118 31/71/120 72/116/121 71/115/119
f 31/71/120 32/70/122 73/117/123 72/116/121
f 32/70/122 33/69/124 74/118/125 73/117/123
f 33/69/124 34/68/28 75/119/126 74/118/125
f 34/68/28 35/67/30 76/120/127 75/119/126
f 35/67/30 36/66/32 77/121/128 76/120/127
f 36/66/32 37/65/129 78/122/130 77/121/128
f 37/65/129 38/64/131 79/123/132 78/122/130
f 38/64/131 39/63/133 80/124/134 79/123/132
f 39/63/133 40/82/135 81/125/136 80/124/134
f 40/82/135 21/81/103 62/106/106 81/125/136
f 62/106/106 63/107/105 83/127/137 82/126/138
f 63/107/105 64/108/108 84/128/139 83/127/137
f 64/108/108 65/109/109 85/129/140 84/128/139
f 65/109/109 66/110/110 86/130/141 85/129/140
f 66/110/110 67/111/111 87/131/142 86/130/141
f 67/111/111 68/112/113 88/132/143 87/131/142
f 68/112/113 69/113/115 89/133/144 88/132/143
f 69/113/115 70/114/117 90/134/145 89/133/144
f 70/114/117 71/115/119 91/135/146 90/134/145
f 71/115/119 72/116/121 92/136/147 91/135/146
f 72/116/121 73/117/123 93/137/148 92/136/147
f 73/117/123 74/118/125 94/138/149 93/137/148
f 74/118/125 75/119/126 95/139/150 94/138/149
f 75/119/126 76/120/127 96/140/151 95/139/150
f 76/120/127 77/121/128 97/141/152 96/140/151
f 77/121/128 78/122/130 98/142/153 97/141/152
f 78/122/130 79/123/132 99/143/154 98/142/153
f 79/123/132 80/124/134 100/144/155 99/143/154
f 80/124/134 81/125/136 101/145/156 100/144/155
f 81/125/136 62/106/106 82/126/138 101/145/156
f 82/126/157 83/127/158 103/147/159 102/146/160
f 83/127/158 84/128/161 105/148/162 103/147/159
f 84/128/161 85/129/140 106/149/163 105/148/162
f 85/129/140 86/130/141 107/150/164 106/149/163
f 86/130/141 87/131/142 108/151/165 107/150/164
f 87/131/142 88/132/166 109/152/167 108/151/165
f 88/132/166 89/133/168 110/153/169 109/152/167
f 89/133/168 90/134/170 111/154/171 110/153/169
f 90/134/170 91/135/172 112/155/173 111/154/171
f 91/135/172 92/136/174 113/156/175 112/155/173
f 92/136/174 93/137/176 114/157/177 113/156/175
f 93/137/176 94/138/178 115/158/179 114/157/177
f 94/138/178 95/139/150 116/159/180 115/158/179
f 95/139/150 96/140/151 117/160/181 116/159/180
f 96/140/151 97/141/152 118/161/182 117/160/181
f 97/141/152 98/142/183 119/162/184 118/161/182
f 98/142/183 99/143/185 120/163/186 119/162/184
f 99/143/185 100/144/187 121/164/188 120/163/186
f 100/144/187 101/145/189 122/165/190 121/164/188
f 101/145/189 82/126/157 102/146/160 122/165/190
