# This file uses centimeters as units for non-parametric coordinates.

mtllib Casing2.mtl
g default
v 0.660033 -0.583567 -0.197277
v 0.569694 -0.591400 -0.375242
v 0.428987 -0.603600 -0.516477
v 0.251686 -0.618973 -0.607156
v 0.055147 -0.636015 -0.638401
v -0.141393 -0.653056 -0.607156
v -0.318694 -0.668429 -0.516477
v -0.459400 -0.680629 -0.375242
v -0.549739 -0.688462 -0.197277
v -0.580868 -0.691161 0.000000
v -0.549739 -0.688462 0.197277
v -0.459400 -0.680629 0.375242
v -0.318694 -0.668429 0.516477
v -0.141393 -0.653056 0.607156
v 0.055147 -0.636015 0.638401
v 0.251686 -0.618973 0.607156
v 0.428987 -0.603600 0.516477
v 0.569693 -0.591400 0.375242
v 0.660032 -0.583567 0.197277
v 0.691161 -0.580868 0.000000
v 0.520612 1.024399 -0.197277
v 0.430273 1.016566 -0.375242
v 0.289566 1.004365 -0.516477
v 0.112265 0.988992 -0.607156
v -0.084274 0.971951 -0.638401
v -0.280814 0.954910 -0.607156
v -0.458114 0.939537 -0.516477
v -0.598821 0.927337 -0.375242
v -0.689160 0.919504 -0.197277
v -0.720289 0.916805 0.000000
v -0.689160 0.919504 0.197277
v -0.598821 0.927337 0.375242
v -0.458114 0.939537 0.516477
v -0.280814 0.954910 0.607156
v -0.084274 0.971951 0.638401
v 0.112265 0.988992 0.607156
v 0.289566 1.004365 0.516477
v 0.430272 1.016566 0.375242
v 0.520611 1.024399 0.197277
v 0.551740 1.027098 0.000000
v 0.591457 -0.589513 -0.174911
v 0.511359 -0.596458 -0.332700
v 0.386605 -0.607275 -0.457923
v 0.229404 -0.620905 -0.538322
v 0.055147 -0.636015 -0.566024
v -0.119111 -0.651124 -0.538322
v -0.276311 -0.664754 -0.457923
v -0.401066 -0.675571 -0.332700
v -0.481164 -0.682516 -0.174911
v -0.508763 -0.684909 0.000000
v -0.481164 -0.682516 0.174911
v -0.401066 -0.675571 0.332700
v -0.276311 -0.664754 0.457923
v -0.119111 -0.651124 0.538322
v 0.055147 -0.636015 0.566024
v 0.229404 -0.620905 0.538322
v 0.386604 -0.607275 0.457923
v 0.511359 -0.596458 0.332700
v 0.591456 -0.589513 0.174911
v 0.619056 -0.587120 0.000000
v 0.452036 1.018453 -0.174911
v 0.371939 1.011508 -0.332700
v 0.247184 1.000691 -0.457923
v 0.089983 0.987060 -0.538322
v -0.084274 0.971951 -0.566024
v -0.258532 0.956842 -0.538322
v -0.415732 0.943212 -0.457923
v -0.540487 0.932395 -0.332700
v -0.620584 0.925450 -0.174911
v -0.648184 0.923057 0.000000
v -0.620584 0.925450 0.174911
v -0.540487 0.932395 0.332700
v -0.415732 0.943212 0.457923
v -0.258532 0.956842 0.538322
v -0.084274 0.971951 0.566024
v 0.089983 0.987060 0.538322
v 0.247183 1.000691 0.457923
v 0.371938 1.011508 0.332700
v 0.452036 1.018453 0.174911
v 0.479635 1.020846 0.000000
vt 0.648603 0.107966
vt 0.626409 0.064408
vt 0.591842 0.029841
vt 0.548284 0.007647
vt 0.500000 -0.000000
vt 0.451716 0.007647
vt 0.408159 0.029841
vt 0.373591 0.064409
vt 0.351397 0.107966
vt 0.343750 0.156250
vt 0.351397 0.204534
vt 0.373591 0.248091
vt 0.408159 0.282659
vt 0.451716 0.304853
vt 0.500000 0.312500
vt 0.548284 0.304853
vt 0.591841 0.282659
vt 0.626409 0.248091
vt 0.648603 0.204534
vt 0.656250 0.156250
vt 0.375000 0.312500
vt 0.387500 0.312500
vt 0.400000 0.312500
vt 0.412500 0.312500
vt 0.425000 0.312500
vt 0.437500 0.312500
vt 0.450000 0.312500
vt 0.462500 0.312500
vt 0.475000 0.312500
vt 0.487500 0.312500
vt 0.500000 0.312500
vt 0.512500 0.312500
vt 0.525000 0.312500
vt 0.537500 0.312500
vt 0.550000 0.312500
vt 0.562500 0.312500
vt 0.575000 0.312500
vt 0.587500 0.312500
vt 0.600000 0.312500
vt 0.612500 0.312500
vt 0.625000 0.312500
vt 0.375000 0.688440
vt 0.387500 0.688440
vt 0.400000 0.688440
vt 0.412500 0.688440
vt 0.425000 0.688440
vt 0.437500 0.688440
vt 0.450000 0.688440
vt 0.462500 0.688440
vt 0.475000 0.688440
vt 0.487500 0.688440
vt 0.500000 0.688440
vt 0.512500 0.688440
vt 0.525000 0.688440
vt 0.537500 0.688440
vt 0.550000 0.688440
vt 0.562500 0.688440
vt 0.575000 0.688440
vt 0.587500 0.688440
vt 0.600000 0.688440
vt 0.612500 0.688440
vt 0.625000 0.688440
vt 0.648603 0.795466
vt 0.626409 0.751908
vt 0.591842 0.717341
vt 0.548284 0.695147
vt 0.500000 0.687500
vt 0.451716 0.695147
vt 0.408159 0.717341
vt 0.373591 0.751909
vt 0.351397 0.795466
vt 0.343750 0.843750
vt 0.351397 0.892034
vt 0.373591 0.935591
vt 0.408159 0.970159
vt 0.451716 0.992353
vt 0.500000 1.000000
vt 0.548284 0.992353
vt 0.591841 0.970159
vt 0.626409 0.935591
vt 0.648603 0.892034
vt 0.656250 0.843750
vt 0.626409 0.064408
vt 0.648603 0.107966
vt 0.591842 0.029841
vt 0.548284 0.007647
vt 0.500000 -0.000000
vt 0.451716 0.007647
vt 0.408159 0.029841
vt 0.373591 0.064409
vt 0.351397 0.107966
vt 0.343750 0.156250
vt 0.351397 0.204534
vt 0.373591 0.248091
vt 0.408159 0.282659
vt 0.451716 0.304853
vt 0.500000 0.312500
vt 0.548284 0.304853
vt 0.591841 0.282659
vt 0.626409 0.248091
vt 0.648603 0.204534
vt 0.656250 0.156250
vt 0.648603 0.892034
vt 0.626409 0.935591
vt 0.591841 0.970159
vt 0.548284 0.992353
vt 0.500000 1.000000
vt 0.451716 0.992353
vt 0.408159 0.970159
vt 0.373591 0.935591
vt 0.351397 0.892034
vt 0.343750 0.843750
vt 0.351397 0.795466
vt 0.373591 0.751909
vt 0.408159 0.717341
vt 0.451716 0.695147
vt 0.500000 0.687500
vt 0.548284 0.695147
vt 0.591842 0.717341
vt 0.626409 0.751908
vt 0.648603 0.795466
vt 0.656250 0.843750
vn 0.947502 0.082154 -0.309017
vn 0.805993 0.069885 -0.587785
vn 0.805993 0.069885 -0.587785
vn 0.947502 0.082154 -0.309017
vn 0.585590 0.050774 -0.809016
vn 0.585590 0.050774 -0.809016
vn 0.307861 0.026694 -0.951057
vn 0.307861 0.026694 -0.951057
vn 0.000000 0.000000 -1.000000
vn 0.000000 0.000000 -1.000000
vn -0.307862 -0.026694 -0.951057
vn -0.307862 -0.026694 -0.951057
vn -0.585591 -0.050774 -0.809015
vn -0.585591 -0.050774 -0.809015
vn -0.805993 -0.069885 -0.587785
vn -0.805993 -0.069885 -0.587785
vn -0.947501 -0.082154 -0.309018
vn -0.947501 -0.082154 -0.309018
vn -0.996262 -0.086382 0.000000
vn -0.996262 -0.086382 0.000000
vn -0.947501 -0.082154 0.309018
vn -0.947501 -0.082154 0.309018
vn -0.805993 -0.069885 0.587785
vn -0.805993 -0.069885 0.587785
vn -0.585591 -0.050774 0.809015
vn -0.585591 -0.050774 0.809015
vn -0.307862 -0.026694 0.951057
vn -0.307862 -0.026694 0.951057
vn 0.000000 0.000000 1.000000
vn 0.000000 0.000000 1.000000
vn 0.307862 0.026694 0.951057
vn 0.307862 0.026694 0.951057
vn 0.585591 0.050774 0.809015
vn 0.585591 0.050774 0.809015
vn 0.805993 0.069885 0.587785
vn 0.805993 0.069885 0.587785
vn 0.947501 0.082154 0.309018
vn 0.947501 0.082154 0.309018
vn 0.996262 0.086382 0.000001
vn 0.996262 0.086382 0.000001
vn 0.086382 -0.996262 0.000000
vn 0.086382 -0.996262 0.000000
vn 0.086382 -0.996262 0.000000
vn 0.086382 -0.996262 0.000000
vn 0.086382 -0.996262 0.000000
vn 0.086382 -0.996262 0.000000
vn 0.086382 -0.996262 0.000000
vn 0.086382 -0.996262 0.000000
vn 0.086382 -0.996262 0.000000
vn 0.086382 -0.996262 0.000000
vn 0.086382 -0.996262 0.000000
vn 0.086382 -0.996262 0.000000
vn 0.086382 -0.996262 0.000000
vn 0.086382 -0.996262 0.000000
vn 0.086382 -0.996262 0.000000
vn 0.086382 -0.996262 0.000000
vn 0.086382 -0.996262 0.000000
vn 0.086382 -0.996262 0.000000
vn 0.086382 -0.996262 0.000000
vn 0.086382 -0.996262 0.000000
vn 0.086382 -0.996262 0.000000
vn 0.086382 -0.996262 0.000000
vn 0.086382 -0.996262 0.000000
vn 0.086382 -0.996262 0.000000
vn 0.086382 -0.996262 0.000000
vn 0.086382 -0.996262 0.000000
vn 0.086382 -0.996262 0.000000
vn 0.086382 -0.996262 0.000000
vn 0.086382 -0.996262 0.000000
vn 0.086382 -0.996262 0.000000
vn 0.086382 -0.996262 0.000000
vn 0.086382 -0.996262 0.000000
vn 0.086382 -0.996262 0.000000
vn 0.086382 -0.996262 0.000000
vn 0.086382 -0.996262 0.000000
vn 0.086382 -0.996262 0.000000
vn 0.086382 -0.996262 0.000000
vn 0.086382 -0.996262 0.000000
vn 0.086382 -0.996262 0.000000
vn 0.086382 -0.996262 0.000000
vn 0.086382 -0.996262 0.000000
vn 0.086382 -0.996262 0.000000
vn 0.086382 -0.996262 0.000000
vn 0.086382 -0.996262 0.000000
vn 0.086382 -0.996262 0.000000
vn 0.086382 -0.996262 0.000000
vn 0.086382 -0.996262 0.000000
vn 0.086382 -0.996262 0.000000
vn 0.086382 -0.996262 0.000000
vn 0.086382 -0.996262 0.000000
vn 0.086382 -0.996262 0.000000
vn 0.086382 -0.996262 0.000000
vn 0.086382 -0.996262 0.000000
vn 0.086382 -0.996262 0.000000
vn 0.086382 -0.996262 0.000000
vn 0.086382 -0.996262 0.000000
vn 0.086382 -0.996262 0.000000
vn 0.086382 -0.996262 0.000000
vn 0.086382 -0.996262 0.000000
vn 0.086382 -0.996262 0.000000
vn 0.086382 -0.996262 0.000000
vn 0.086382 -0.996262 0.000000
vn 0.086382 -0.996262 0.000000
vn 0.086382 -0.996262 0.000000
vn 0.086382 -0.996262 0.000000
vn 0.086382 -0.996262 0.000000
vn 0.086382 -0.996262 0.000000
vn 0.086382 -0.996262 0.000000
vn 0.086382 -0.996262 0.000000
vn 0.086382 -0.996262 0.000000
vn 0.086382 -0.996262 0.000000
vn 0.086382 -0.996262 0.000000
vn 0.086382 -0.996262 0.000000
vn 0.086382 -0.996262 0.000000
vn 0.086382 -0.996262 0.000000
vn 0.086382 -0.996262 0.000000
vn 0.086382 -0.996262 0.000000
vn 0.086382 -0.996262 0.000000
vn 0.086382 -0.996262 0.000000
vn 0.086382 -0.996262 0.000000
vn -0.086382 0.996262 -0.000000
vn -0.086382 0.996262 -0.000000
vn -0.086382 0.996262 -0.000000
vn -0.086382 0.996262 -0.000000
vn -0.086382 0.996262 0.000000
vn -0.086382 0.996262 0.000000
vn -0.086382 0.996262 0.000000
vn -0.086382 0.996262 0.000000
vn -0.086382 0.996262 -0.000001
vn -0.086382 0.996262 -0.000001
vn -0.086382 0.996262 -0.000001
vn -0.086382 0.996262 -0.000001
vn -0.086382 0.996262 -0.000001
vn -0.086382 0.996262 -0.000001
vn -0.086382 0.996262 -0.000001
vn -0.086382 0.996262 -0.000001
vn -0.086382 0.996262 0.000001
vn -0.086382 0.996262 0.000001
vn -0.086382 0.996262 0.000001
vn -0.086382 0.996262 0.000001
vn -0.086382 0.996262 0.000000
vn -0.086382 0.996262 0.000000
vn -0.086382 0.996262 0.000000
vn -0.086382 0.996262 0.000000
vn -0.086382 0.996262 -0.000000
vn -0.086382 0.996262 -0.000000
vn -0.086382 0.996262 -0.000000
vn -0.086382 0.996262 -0.000000
vn -0.086382 0.996262 0.000000
vn -0.086382 0.996262 0.000000
vn -0.086382 0.996262 0.000000
vn -0.086382 0.996262 0.000000
vn -0.086382 0.996262 0.000000
vn -0.086382 0.996262 0.000000
vn -0.086382 0.996262 0.000000
vn -0.086382 0.996262 0.000000
vn -0.086382 0.996262 0.000000
vn -0.086382 0.996262 0.000000
vn -0.086382 0.996262 0.000000
vn -0.086382 0.996262 0.000000
vn -0.086382 0.996262 -0.000000
vn -0.086382 0.996262 -0.000000
vn -0.086382 0.996262 -0.000000
vn -0.086382 0.996262 -0.000000
vn -0.086382 0.996262 0.000000
vn -0.086382 0.996262 0.000000
vn -0.086382 0.996262 0.000000
vn -0.086382 0.996262 0.000000
vn -0.086382 0.996262 0.000000
vn -0.086382 0.996262 0.000000
vn -0.086382 0.996262 0.000000
vn -0.086382 0.996262 0.000000
vn -0.086382 0.996262 -0.000001
vn -0.086382 0.996262 -0.000001
vn -0.086382 0.996262 -0.000001
vn -0.086382 0.996262 -0.000001
vn -0.086382 0.996262 0.000001
vn -0.086382 0.996262 0.000001
vn -0.086382 0.996262 0.000001
vn -0.086382 0.996262 0.000001
vn -0.086382 0.996262 0.000000
vn -0.086382 0.996262 0.000000
vn -0.086382 0.996262 0.000000
vn -0.086382 0.996262 0.000000
vn -0.086382 0.996262 0.000000
vn -0.086382 0.996262 0.000000
vn -0.086382 0.996262 0.000000
vn -0.086382 0.996262 0.000000
vn -0.086382 0.996262 0.000000
vn -0.086382 0.996262 0.000000
vn -0.086382 0.996262 0.000000
vn -0.086382 0.996262 0.000000
vn -0.086382 0.996262 0.000000
vn -0.086382 0.996262 0.000000
vn -0.086382 0.996262 0.000000
vn -0.086382 0.996262 0.000000
vn -0.086382 0.996262 0.000000
vn -0.086382 0.996262 0.000000
vn -0.086382 0.996262 0.000000
vn -0.086382 0.996262 0.000000
vn -0.155846 -0.013513 -0.987689
vn -0.155846 -0.013513 -0.987689
vn -0.155846 -0.013513 -0.987689
vn -0.155846 -0.013513 -0.987689
vn 0.155846 0.013513 -0.987689
vn 0.155846 0.013513 -0.987689
vn 0.155846 0.013513 -0.987689
vn 0.155846 0.013513 -0.987689
vn 0.452296 0.039217 -0.891005
vn 0.452296 0.039217 -0.891005
vn 0.452296 0.039217 -0.891005
vn 0.452296 0.039217 -0.891005
vn 0.704465 0.061082 -0.707105
vn 0.704465 0.061082 -0.707105
vn 0.704465 0.061082 -0.707105
vn 0.704465 0.061082 -0.707105
vn 0.887674 0.076967 -0.453994
vn 0.887674 0.076967 -0.453994
vn 0.887674 0.076967 -0.453994
vn 0.887674 0.076967 -0.453994
vn 0.983996 0.085319 -0.156435
vn 0.983996 0.085319 -0.156435
vn 0.983996 0.085319 -0.156435
vn 0.983996 0.085319 -0.156435
vn 0.983996 0.085319 0.156435
vn 0.983996 0.085319 0.156435
vn 0.983996 0.085319 0.156435
vn 0.983996 0.085319 0.156435
vn 0.887674 0.076967 0.453994
vn 0.887674 0.076967 0.453994
vn 0.887674 0.076967 0.453994
vn 0.887674 0.076967 0.453994
vn 0.704466 0.061082 0.707105
vn 0.704466 0.061082 0.707105
vn 0.704466 0.061082 0.707105
vn 0.704466 0.061082 0.707105
vn 0.452295 0.039217 0.891005
vn 0.452295 0.039217 0.891005
vn 0.452295 0.039217 0.891005
vn 0.452295 0.039217 0.891005
vn 0.155846 0.013513 0.987689
vn 0.155846 0.013513 0.987689
vn 0.155846 0.013513 0.987689
vn 0.155846 0.013513 0.987689
vn -0.155846 -0.013513 0.987689
vn -0.155846 -0.013513 0.987689
vn -0.155846 -0.013513 0.987689
vn -0.155846 -0.013513 0.987689
vn -0.452295 -0.039217 0.891006
vn -0.452295 -0.039217 0.891006
vn -0.452295 -0.039217 0.891006
vn -0.452295 -0.039217 0.891006
vn -0.704466 -0.061082 0.707105
vn -0.704466 -0.061082 0.707105
vn -0.704466 -0.061082 0.707105
vn -0.704466 -0.061082 0.707105
vn -0.887675 -0.076967 0.453993
vn -0.887675 -0.076967 0.453993
vn -0.887675 -0.076967 0.453993
vn -0.887675 -0.076967 0.453993
vn -0.983997 -0.085319 0.156433
vn -0.983997 -0.085319 0.156433
vn -0.983997 -0.085319 0.156433
vn -0.983997 -0.085319 0.156433
vn -0.983996 -0.085319 -0.156435
vn -0.983996 -0.085319 -0.156435
vn -0.983996 -0.085319 -0.156435
vn -0.983996 -0.085319 -0.156435
vn -0.887675 -0.076967 -0.453993
vn -0.887675 -0.076967 -0.453993
vn -0.887675 -0.076967 -0.453993
vn -0.887675 -0.076967 -0.453993
vn -0.704466 -0.061082 -0.707105
vn -0.704466 -0.061082 -0.707105
vn -0.704466 -0.061082 -0.707105
vn -0.704466 -0.061082 -0.707105
vn -0.452296 -0.039217 -0.891005
vn -0.452296 -0.039217 -0.891005
vn -0.452296 -0.039217 -0.891005
vn -0.452296 -0.039217 -0.891005
s 1
g pCylinder7
usemtl initialShadingGroup
f 1/21/1 2/22/2 22/43/3 21/42/4
f 2/22/2 3/23/5 23/44/6 22/43/3
f 3/23/5 4/24/7 24/45/8 23/44/6
f 4/24/7 5/25/9 25/46/10 24/45/8
f 5/25/9 6/26/11 26/47/12 25/46/10
f 6/26/11 7/27/13 27/48/14 26/47/12
f 7/27/13 8/28/15 28/49/16 27/48/14
f 8/28/15 9/29/17 29/50/18 28/49/16
f 9/29/17 10/30/19 30/51/20 29/50/18
f 10/30/19 11/31/21 31/52/22 30/51/20
f 11/31/21 12/32/23 32/53/24 31/52/22
f 12/32/23 13/33/25 33/54/26 32/53/24
f 13/33/25 14/34/27 34/55/28 33/54/26
f 14/34/27 15/35/29 35/56/30 34/55/28
f 15/35/29 16/36/31 36/57/32 35/56/30
f 16/36/31 17/37/33 37/58/34 36/57/32
f 17/37/33 18/38/35 38/59/36 37/58/34
f 18/38/35 19/39/37 39/60/38 38/59/36
f 19/39/37 20/40/39 40/61/40 39/60/38
f 20/40/39 1/41/1 21/62/4 40/61/40
s off
f 2/2/41 1/1/42 41/84/43 42/83/44
f 3/3/45 2/2/46 42/83/47 43/85/48
f 4/4/49 3/3/50 43/85/51 44/86/52
f 5/5/53 4/4/54 44/86/55 45/87/56
f 6/6/57 5/5/58 45/87/59 46/88/60
f 7/7/61 6/6/62 46/88/63 47/89/64
f 8/8/65 7/7/66 47/89/67 48/90/68
f 9/9/69 8/8/70 48/90/71 49/91/72
f 10/10/73 9/9/74 49/91/75 50/92/76
f 11/11/77 10/10/78 50/92/79 51/93/80
f 12/12/81 11/11/82 51/93/83 52/94/84
f 13/13/85 12/12/86 52/94/87 53/95/88
f 14/14/89 13/13/90 53/95/91 54/96/92
f 15/15/93 14/14/94 54/96/95 55/97/96
f 16/16/97 15/15/98 55/97/99 56/98/100
f 17/17/101 16/16/102 56/98/103 57/99/104
f 18/18/105 17/17/106 57/99/107 58/100/108
f 19/19/109 18/18/110 58/100/111 59/101/112
f 20/20/113 19/19/114 59/101/115 60/102/116
f 1/1/117 20/20/118 60/102/119 41/84/120
f 21/81/121 22/80/122 62/104/123 61/103/124
f 22/80/125 23/79/126 63/105/127 62/104/128
f 23/79/129 24/78/130 64/106/131 63/105/132
f 24/78/133 25/77/134 65/107/135 64/106/136
f 25/77/137 26/76/138 66/108/139 65/107/140
f 26/76/141 27/75/142 67/109/143 66/108/144
f 27/75/145 28/74/146 68/110/147 67/109/148
f 28/74/149 29/73/150 69/111/151 68/110/152
f 29/73/153 30/72/154 70/112/155 69/111/156
f 30/72/157 31/71/158 71/113/159 70/112/160
f 31/71/161 32/70/162 72/114/163 71/113/164
f 32/70/165 33/69/166 73/115/167 72/114/168
f 33/69/169 34/68/170 74/116/171 73/115/172
f 34/68/173 35/67/174 75/117/175 74/116/176
f 35/67/177 36/66/178 76/118/179 75/117/180
f 36/66/181 37/65/182 77/119/183 76/118/184
f 37/65/185 38/64/186 78/120/187 77/119/188
f 38/64/189 39/63/190 79/121/191 78/120/192
f 39/63/193 40/82/194 80/122/195 79/121/196
f 40/82/197 21/81/198 61/103/199 80/122/200
f 56/98/201 55/97/202 75/117/203 76/118/204
f 55/97/205 54/96/206 74/116/207 75/117/208
f 54/96/209 53/95/210 73/115/211 74/116/212
f 53/95/213 52/94/214 72/114/215 73/115/216
f 52/94/217 51/93/218 71/113/219 72/114/220
f 51/93/221 50/92/222 70/112/223 71/113/224
f 50/92/225 49/91/226 69/111/227 70/112/228
f 49/91/229 48/90/230 68/110/231 69/111/232
f 48/90/233 47/89/234 67/109/235 68/110/236
f 47/89/237 46/88/238 66/108/239 67/109/240
f 46/88/241 45/87/242 65/107/243 66/108/244
f 45/87/245 44/86/246 64/106/247 65/107/248
f 44/86/249 43/85/250 63/105/251 64/106/252
f 43/85/253 42/83/254 62/104/255 63/105/256
f 42/83/257 41/84/258 61/103/259 62/104/260
f 41/84/261 60/102/262 80/122/263 61/103/264
f 60/102/265 59/101/266 79/121/267 80/122/268
f 59/101/269 58/100/270 78/120/271 79/121/272
f 58/100/273 57/99/274 77/119/275 78/120/276
f 57/99/277 56/98/278 76/118/279 77/119/280
