# This file uses centimeters as units for non-parametric coordinates.

mtllib Pipe1.mtl
g default
v 5.169849 0.291812 -1.303143
v 5.042107 0.542525 -1.303143
v 4.843139 0.741491 -1.303143
v 4.592427 0.869235 -1.303143
v 4.314510 0.913253 -1.303143
v 4.036594 0.869235 -1.303143
v 3.785882 0.741491 -1.303143
v 3.586915 0.542525 -1.303143
v 3.459172 0.291812 -1.303143
v 3.415155 0.013896 -1.303143
v 3.459172 -0.264021 -1.303143
v 3.586915 -0.514733 -1.303143
v 3.785882 -0.713699 -1.303143
v 4.036594 -0.841443 -1.303143
v 4.314510 -0.885461 -1.303143
v 4.592427 -0.841443 -1.303143
v 4.843139 -0.713699 -1.303143
v 5.042105 -0.514733 -1.303143
v 5.169849 -0.264021 -1.303143
v 5.213867 0.013896 -1.303143
v 5.169849 0.291812 0.985420
v 5.042107 0.542525 0.985420
v 4.843139 0.741491 0.985420
v 4.592427 0.869235 0.985420
v 4.314510 0.913253 0.985420
v 4.036594 0.869235 0.985420
v 3.785882 0.741491 0.985420
v 3.586915 0.542525 0.985420
v 3.459172 0.291812 0.985420
v 3.415155 0.013896 0.985420
v 3.459172 -0.264021 0.985420
v 3.586915 -0.514733 0.985420
v 3.785882 -0.713699 0.985420
v 4.036594 -0.841443 0.985420
v 4.314510 -0.885461 0.985420
v 4.592427 -0.841443 0.985420
v 4.843139 -0.713699 0.985420
v 5.042105 -0.514733 0.985420
v 5.169849 -0.264021 0.985420
v 5.213867 0.013896 0.985420
v 4.314510 0.013896 -1.303143
v 5.165686 0.291812 4.015972
v 5.038564 0.542525 4.144881
v 4.840566 0.741491 4.345661
v 4.591075 0.869235 4.598656
v 4.314510 0.913252 4.879102
v 4.037946 0.869235 5.159555
v 3.788454 0.741491 5.412546
v 3.590458 0.542525 5.613330
v 3.463335 0.291812 5.742239
v 3.419532 0.013896 5.786652
v 3.463335 -0.264021 5.742239
v 3.590458 -0.514733 5.613330
v 3.788456 -0.713699 5.412546
v 4.037946 -0.841443 5.159555
v 4.314510 -0.885461 4.879102
v 4.591075 -0.841443 4.598656
v 4.840565 -0.713699 4.345661
v 5.038563 -0.514733 4.144881
v 5.165686 -0.264021 4.015972
v 5.209489 0.013896 3.971554
v 10.094257 0.291812 4.014966
v 10.224961 0.542525 4.144024
v 10.428551 0.741491 4.345039
v 10.685092 0.869235 4.598328
v 10.969464 0.913252 4.879101
v 11.253846 0.869235 5.159878
v 11.510360 0.741491 5.413172
v 11.713955 0.542524 5.614182
v 11.844671 0.291812 5.743242
v 11.889698 0.013896 5.787712
v 11.844671 -0.264021 5.743242
v 11.713955 -0.514733 5.614182
v 11.510360 -0.713699 5.413172
v 11.253846 -0.841443 5.159878
v 10.969464 -0.885461 4.879101
v 10.685092 -0.841443 4.598328
v 10.428551 -0.713699 4.345039
v 10.224961 -0.514733 4.144024
v 10.094257 -0.264021 4.014966
v 10.049212 0.013896 3.970497
v 10.087549 0.291812 0.516973
v 10.219260 0.542525 0.518039
v 10.969457 0.013896 0.524103
v 10.424408 0.741491 0.519697
v 10.682909 0.869235 0.521784
v 10.969457 0.913252 0.524103
v 11.256011 0.869235 0.526418
v 11.514502 0.741491 0.528517
v 11.719656 0.542524 0.530170
v 11.851365 0.291812 0.531234
v 11.896747 0.013896 0.531605
v 11.851365 -0.264021 0.531234
v 11.719656 -0.514733 0.530170
v 11.514502 -0.713699 0.528517
v 11.256011 -0.841443 0.526418
v 10.969457 -0.885461 0.524103
v 10.682909 -0.841443 0.521784
v 10.424408 -0.713699 0.519697
v 10.219260 -0.514733 0.518039
v 10.087549 -0.264021 0.516973
v 10.042166 0.013896 0.516605
vt 0.375000 0.312500
vt 0.387500 0.312500
vt 0.387500 0.688440
vt 0.375000 0.688440
vt 0.400000 0.312500
vt 0.400000 0.688440
vt 0.412500 0.312500
vt 0.412500 0.688440
vt 0.425000 0.312500
vt 0.425000 0.688440
vt 0.437500 0.312500
vt 0.437500 0.688440
vt 0.450000 0.312500
vt 0.450000 0.688440
vt 0.462500 0.312500
vt 0.462500 0.688440
vt 0.475000 0.312500
vt 0.475000 0.688440
vt 0.487500 0.312500
vt 0.487500 0.688440
vt 0.500000 0.312500
vt 0.500000 0.688440
vt 0.512500 0.312500
vt 0.512500 0.688440
vt 0.525000 0.312500
vt 0.525000 0.688440
vt 0.537500 0.312500
vt 0.537500 0.688440
vt 0.550000 0.312500
vt 0.550000 0.688440
vt 0.562500 0.312500
vt 0.562500 0.688440
vt 0.575000 0.312500
vt 0.575000 0.688440
vt 0.587500 0.312500
vt 0.587500 0.688440
vt 0.600000 0.312500
vt 0.600000 0.688440
vt 0.612500 0.312500
vt 0.612500 0.688440
vt 0.625000 0.312500
vt 0.625000 0.688440
vt 0.626409 0.064408
vt 0.648603 0.107966
vt 0.500000 0.150000
vt 0.591842 0.029841
vt 0.548284 0.007647
vt 0.500000 -0.000000
vt 0.451716 0.007647
vt 0.408159 0.029841
vt 0.373591 0.064409
vt 0.351397 0.107966
vt 0.343750 0.156250
vt 0.351397 0.204534
vt 0.373591 0.248091
vt 0.408159 0.282659
vt 0.451716 0.304853
vt 0.500000 0.312500
vt 0.548284 0.304853
vt 0.591841 0.282659
vt 0.626409 0.248091
vt 0.648603 0.204534
vt 0.656250 0.156250
vt 0.648603 0.892034
vt 0.626409 0.935591
vt 0.500000 0.837500
vt 0.591841 0.970159
vt 0.548284 0.992353
vt 0.500000 1.000000
vt 0.451716 0.992353
vt 0.408159 0.970159
vt 0.373591 0.935591
vt 0.351397 0.892034
vt 0.343750 0.843750
vt 0.351397 0.795466
vt 0.373591 0.751909
vt 0.408159 0.717341
vt 0.451716 0.695147
vt 0.500000 0.687500
vt 0.548284 0.695147
vt 0.591842 0.717341
vt 0.626409 0.751908
vt 0.648603 0.795466
vt 0.656250 0.843750
vt 0.648603 0.892034
vt 0.626409 0.935591
vt 0.626409 0.935591
vt 0.648603 0.892034
vt 0.591841 0.970159
vt 0.591841 0.970159
vt 0.548284 0.992353
vt 0.548284 0.992353
vt 0.500000 1.000000
vt 0.500000 1.000000
vt 0.451716 0.992353
vt 0.451716 0.992353
vt 0.408159 0.970159
vt 0.408159 0.970159
vt 0.373591 0.935591
vt 0.373591 0.935591
vt 0.351397 0.892034
vt 0.351397 0.892034
vt 0.343750 0.843750
vt 0.343750 0.843750
vt 0.351397 0.795466
vt 0.351397 0.795466
vt 0.373591 0.751909
vt 0.373591 0.751909
vt 0.408159 0.717341
vt 0.408159 0.717341
vt 0.451716 0.695147
vt 0.451716 0.695147
vt 0.500000 0.687500
vt 0.500000 0.687500
vt 0.548284 0.695147
vt 0.548284 0.695147
vt 0.591842 0.717341
vt 0.591842 0.717341
vt 0.626409 0.751908
vt 0.626409 0.751908
vt 0.648603 0.795466
vt 0.648603 0.795466
vt 0.656250 0.843750
vt 0.656250 0.843750
vt 0.626409 0.935591
vt 0.648603 0.892034
vt 0.591841 0.970159
vt 0.548284 0.992353
vt 0.500000 1.000000
vt 0.451716 0.992353
vt 0.408159 0.970159
vt 0.373591 0.935591
vt 0.351397 0.892034
vt 0.343750 0.843750
vt 0.351397 0.795466
vt 0.373591 0.751909
vt 0.408159 0.717341
vt 0.451716 0.695147
vt 0.500000 0.687500
vt 0.548284 0.695147
vt 0.591842 0.717341
vt 0.626409 0.751908
vt 0.648603 0.795466
vt 0.656250 0.843750
vn 0.951058 0.309013 0.000000
vn 0.809017 0.587785 0.000000
vn 0.808119 0.589019 0.000519
vn 0.950828 0.309717 0.000725
vn 0.587784 0.809018 0.000000
vn 0.585887 0.810393 0.000273
vn 0.309016 0.951057 0.000000
vn 0.306080 0.952006 0.000086
vn -0.000000 1.000000 0.000000
vn -0.003598 0.999994 0.000017
vn -0.309017 0.951056 0.000000
vn -0.312560 0.949898 0.000078
vn -0.587785 0.809017 0.000000
vn -0.590522 0.807021 0.000231
vn -0.809017 0.587785 0.000000
vn -0.810529 0.585698 0.000411
vn -0.951057 0.309014 0.000000
vn -0.951486 0.307692 0.000551
vn -1.000000 0.000000 0.000000
vn -1.000000 0.000000 0.000604
vn -0.951057 -0.309015 0.000000
vn -0.951486 -0.307692 0.000551
vn -0.809017 -0.587786 0.000000
vn -0.810528 -0.585699 0.000411
vn -0.587785 -0.809018 0.000000
vn -0.590522 -0.807022 0.000231
vn -0.309017 -0.951056 0.000000
vn -0.312561 -0.949898 0.000078
vn -0.000000 -1.000000 0.000000
vn -0.003598 -0.999994 0.000017
vn 0.309017 -0.951056 0.000000
vn 0.306081 -0.952006 0.000086
vn 0.587785 -0.809017 0.000000
vn 0.585888 -0.810392 0.000273
vn 0.809017 -0.587785 0.000000
vn 0.808118 -0.589020 0.000518
vn 0.951057 -0.309017 0.000000
vn 0.950827 -0.309720 0.000725
vn 1.000000 -0.000001 0.000000
vn 1.000000 -0.000001 0.000806
vn 0.000000 0.000001 -1.000000
vn 0.000000 -0.000000 -1.000000
vn 0.000000 0.000000 -1.000000
vn 0.000000 0.000000 -1.000000
vn 0.000000 -0.000000 -1.000000
vn 0.000000 -0.000000 -1.000000
vn 0.000000 -0.000000 -1.000000
vn 0.000000 -0.000000 -1.000000
vn 0.000000 -0.000000 -1.000000
vn 0.000000 0.000001 -1.000000
vn 0.000000 -0.000000 -1.000000
vn 0.000000 0.000000 -1.000000
vn 0.000000 0.000001 -1.000000
vn 0.000000 -0.000000 -1.000000
vn 0.000000 -0.000000 -1.000000
vn 0.000000 -0.000000 -1.000000
vn 0.000000 -0.000000 -1.000000
vn 0.000000 -0.000000 -1.000000
vn 0.000000 -0.000000 -1.000000
vn 0.000000 -0.000000 -1.000000
vn 0.000000 -0.000000 -1.000000
vn 0.008086 0.000003 -0.999967
vn 0.008085 0.000003 -0.999967
vn 0.008086 0.000000 -0.999967
vn 0.008080 -0.000002 -0.999967
vn 0.008084 -0.000003 -0.999967
vn 0.008086 -0.000000 -0.999967
vn 0.008095 -0.000006 -0.999967
vn 0.008094 0.000003 -0.999967
vn 0.008079 0.000011 -0.999967
vn 0.008086 -0.000005 -0.999967
vn 0.008090 -0.000000 -0.999967
vn 0.008086 0.000005 -0.999967
vn 0.008079 -0.000011 -0.999967
vn 0.008094 -0.000002 -0.999967
vn 0.008095 0.000006 -0.999967
vn 0.008086 -0.000000 -0.999967
vn 0.008084 0.000003 -0.999967
vn 0.008080 0.000003 -0.999967
vn 0.008085 -0.000002 -0.999967
vn 0.008086 -0.000003 -0.999967
vn 0.008086 0.000000 -0.999967
vn 0.777260 0.629179 0.000821
vn 0.941888 0.335926 0.001244
vn 0.530625 0.847607 0.000373
vn 0.086993 0.985248 -0.147372
vn -0.030543 0.998182 0.051952
vn -0.145469 0.956825 0.251646
vn -0.646724 0.762724 0.000410
vn -0.842636 0.538484 0.000659
vn -0.961084 0.276254 0.000833
vn -1.000000 -0.000000 0.000894
vn -0.961084 -0.276254 0.000833
vn -0.842634 -0.538486 0.000659
vn -0.646723 -0.762725 0.000410
vn -0.145469 -0.956824 0.251646
vn -0.030543 -0.998182 0.051952
vn 0.086993 -0.985248 -0.147373
vn 0.530626 -0.847606 0.000373
vn 0.777260 -0.629179 0.000821
vn 0.941887 -0.335928 0.001243
vn 0.999999 -0.000000 0.001419
vn -0.000184 0.339838 -0.940484
vn -0.000120 0.633994 -0.773338
vn -0.000120 0.634791 -0.772684
vn -0.000184 0.340424 -0.940272
vn -0.000054 0.850453 -0.526051
vn -0.000054 0.851082 -0.525032
vn -0.093101 0.985956 -0.138647
vn 0.031641 0.998245 0.050049
vn 0.153025 0.958491 0.240579
vn -0.000056 0.766901 0.641765
vn -0.000056 0.766036 0.642798
vn -0.000090 0.543419 0.839462
vn -0.000090 0.542332 0.840164
vn -0.000114 0.279528 0.960138
vn -0.000114 0.278672 0.960387
vn -0.000122 -0.000000 1.000000
vn -0.000122 0.000000 1.000000
vn -0.000114 -0.279528 0.960138
vn -0.000114 -0.278672 0.960387
vn -0.000090 -0.543419 0.839462
vn -0.000090 -0.542332 0.840164
vn -0.000056 -0.766902 0.641764
vn -0.000056 -0.766037 0.642797
vn 0.153026 -0.958491 0.240580
vn 0.031641 -0.998245 0.050049
vn -0.093101 -0.985956 -0.138648
vn -0.000054 -0.850453 -0.526052
vn -0.000054 -0.851082 -0.525033
vn -0.000120 -0.633994 -0.773338
vn -0.000120 -0.634791 -0.772684
vn -0.000184 -0.339838 -0.940484
vn -0.000184 -0.340425 -0.940272
vn -0.000211 -0.000000 -1.000000
vn -0.000211 -0.000000 -1.000000
vn -0.938856 0.344305 0.001731
vn -0.768718 0.639587 0.001140
vn -0.799847 0.600202 0.001241
vn -0.948128 0.317884 0.001768
vn -0.520584 0.853810 0.000520
vn -0.574507 0.818500 0.000638
vn -0.297639 0.954679 0.000195
vn 0.004145 0.999991 0.000038
vn 0.305096 0.952322 0.000170
vn 0.634657 0.772794 0.000587
vn 0.579815 0.814748 0.000501
vn 0.834910 0.550386 0.000956
vn 0.802567 0.596561 0.000890
vn 0.958799 0.284083 0.001220
vn 0.948868 0.315672 0.001197
vn 0.999999 0.000000 0.001313
vn 0.999999 0.000000 0.001313
vn 0.958799 -0.284083 0.001220
vn 0.948868 -0.315672 0.001197
vn 0.834909 -0.550387 0.000956
vn 0.802567 -0.596562 0.000890
vn 0.634656 -0.772794 0.000587
vn 0.579814 -0.814749 0.000501
vn 0.305097 -0.952321 0.000170
vn 0.004145 -0.999991 0.000038
vn -0.297640 -0.954678 0.000195
vn -0.520584 -0.853810 0.000520
vn -0.574506 -0.818500 0.000639
vn -0.768717 -0.639588 0.001140
vn -0.799847 -0.600203 0.001241
vn -0.938856 -0.344306 0.001731
vn -0.948128 -0.317884 0.001768
vn -0.999998 -0.000000 0.001978
vn -0.999998 0.000000 0.001978
s 1
g pCylinder3 pCylinder3 pCylinder2
usemtl initialShadingGroup
f 1/1/1 2/2/2 22/3/3 21/4/4
f 2/2/2 3/5/5 23/6/6 22/3/3
f 3/5/5 4/7/7 24/8/8 23/6/6
f 4/7/7 5/9/9 25/10/10 24/8/8
f 5/9/9 6/11/11 26/12/12 25/10/10
f 6/11/11 7/13/13 27/14/14 26/12/12
f 7/13/13 8/15/15 28/16/16 27/14/14
f 8/15/15 9/17/17 29/18/18 28/16/16
f 9/17/17 10/19/19 30/20/20 29/18/18
f 10/19/19 11/21/21 31/22/22 30/20/20
f 11/21/21 12/23/23 32/24/24 31/22/22
f 12/23/23 13/25/25 33/26/26 32/24/24
f 13/25/25 14/27/27 34/28/28 33/26/26
f 14/27/27 15/29/29 35/30/30 34/28/28
f 15/29/29 16/31/31 36/32/32 35/30/30
f 16/31/31 17/33/33 37/34/34 36/32/32
f 17/33/33 18/35/35 38/36/36 37/34/34
f 18/35/35 19/37/37 39/38/38 38/36/36
f 19/37/37 20/39/39 40/40/40 39/38/38
f 20/39/39 1/41/1 21/42/4 40/40/40
s 2
f 2/43/41 1/44/42 41/45/43
f 3/46/44 2/43/41 41/45/43
f 4/47/45 3/46/44 41/45/43
f 5/48/46 4/47/45 41/45/43
f 6/49/47 5/48/46 41/45/43
f 7/50/48 6/49/47 41/45/43
f 8/51/49 7/50/48 41/45/43
f 9/52/50 8/51/49 41/45/43
f 10/53/51 9/52/50 41/45/43
f 11/54/52 10/53/51 41/45/43
f 12/55/53 11/54/52 41/45/43
f 13/56/54 12/55/53 41/45/43
f 14/57/55 13/56/54 41/45/43
f 15/58/56 14/57/55 41/45/43
f 16/59/57 15/58/56 41/45/43
f 17/60/58 16/59/57 41/45/43
f 18/61/59 17/60/58 41/45/43
f 19/62/60 18/61/59 41/45/43
f 20/63/61 19/62/60 41/45/43
f 1/44/42 20/63/61 41/45/43
s 3
f 82/64/62 83/65/63 84/66/64
f 83/65/63 85/67/65 84/66/64
f 85/67/65 86/68/66 84/66/64
f 86/68/66 87/69/67 84/66/64
f 87/69/67 88/70/68 84/66/64
f 88/70/68 89/71/69 84/66/64
f 89/71/69 90/72/70 84/66/64
f 90/72/70 91/73/71 84/66/64
f 91/73/71 92/74/72 84/66/64
f 92/74/72 93/75/73 84/66/64
f 93/75/73 94/76/74 84/66/64
f 94/76/74 95/77/75 84/66/64
f 95/77/75 96/78/76 84/66/64
f 96/78/76 97/79/77 84/66/64
f 97/79/77 98/80/78 84/66/64
f 98/80/78 99/81/79 84/66/64
f 99/81/79 100/82/80 84/66/64
f 100/82/80 101/83/81 84/66/64
f 101/83/81 102/84/82 84/66/64
f 102/84/82 82/64/62 84/66/64
s 1
f 21/85/4 22/86/3 43/87/83 42/88/84
f 22/86/3 23/89/6 44/90/85 43/87/83
f 23/89/6 24/91/8 45/92/86 44/90/85
f 24/91/8 25/93/10 46/94/87 45/92/86
f 25/93/10 26/95/12 47/96/88 46/94/87
f 26/95/12 27/97/14 48/98/89 47/96/88
f 27/97/14 28/99/16 49/100/90 48/98/89
f 28/99/16 29/101/18 50/102/91 49/100/90
f 29/101/18 30/103/20 51/104/92 50/102/91
f 30/103/20 31/105/22 52/106/93 51/104/92
f 31/105/22 32/107/24 53/108/94 52/106/93
f 32/107/24 33/109/26 54/110/95 53/108/94
f 33/109/26 34/111/28 55/112/96 54/110/95
f 34/111/28 35/113/30 56/114/97 55/112/96
f 35/113/30 36/115/32 57/116/98 56/114/97
f 36/115/32 37/117/34 58/118/99 57/116/98
f 37/117/34 38/119/36 59/120/100 58/118/99
f 38/119/36 39/121/38 60/122/101 59/120/100
f 39/121/38 40/123/40 61/124/102 60/122/101
f 40/123/40 21/85/4 42/88/84 61/124/102
f 42/88/103 43/87/104 63/125/105 62/126/106
f 43/87/104 44/90/107 64/127/108 63/125/105
f 44/90/107 45/92/86 65/128/109 64/127/108
f 45/92/86 46/94/87 66/129/110 65/128/109
f 46/94/87 47/96/88 67/130/111 66/129/110
f 47/96/88 48/98/112 68/131/113 67/130/111
f 48/98/112 49/100/114 69/132/115 68/131/113
f 49/100/114 50/102/116 70/133/117 69/132/115
f 50/102/116 51/104/118 71/134/119 70/133/117
f 51/104/118 52/106/120 72/135/121 71/134/119
f 52/106/120 53/108/122 73/136/123 72/135/121
f 53/108/122 54/110/124 74/137/125 73/136/123
f 54/110/124 55/112/96 75/138/126 74/137/125
f 55/112/96 56/114/97 76/139/127 75/138/126
f 56/114/97 57/116/98 77/140/128 76/139/127
f 57/116/98 58/118/129 78/141/130 77/140/128
f 58/118/129 59/120/131 79/142/132 78/141/130
f 59/120/131 60/122/133 80/143/134 79/142/132
f 60/122/133 61/124/135 81/144/136 80/143/134
f 61/124/135 42/88/103 62/126/106 81/144/136
f 62/126/137 63/125/138 83/65/139 82/64/140
f 63/125/138 64/127/141 85/67/142 83/65/139
f 64/127/141 65/128/109 86/68/143 85/67/142
f 65/128/109 66/129/110 87/69/144 86/68/143
f 66/129/110 67/130/111 88/70/145 87/69/144
f 67/130/111 68/131/146 89/71/147 88/70/145
f 68/131/146 69/132/148 90/72/149 89/71/147
f 69/132/148 70/133/150 91/73/151 90/72/149
f 70/133/150 71/134/152 92/74/153 91/73/151
f 71/134/152 72/135/154 93/75/155 92/74/153
f 72/135/154 73/136/156 94/76/157 93/75/155
f 73/136/156 74/137/158 95/77/159 94/76/157
f 74/137/158 75/138/126 96/78/160 95/77/159
f 75/138/126 76/139/127 97/79/161 96/78/160
f 76/139/127 77/140/128 98/80/162 97/79/161
f 77/140/128 78/141/163 99/81/164 98/80/162
f 78/141/163 79/142/165 100/82/166 99/81/164
f 79/142/165 80/143/167 101/83/168 100/82/166
f 80/143/167 81/144/169 102/84/170 101/83/168
f 81/144/169 62/126/137 82/64/140 102/84/170
