# This file uses centimeters as units for non-parametric coordinates.

mtllib Room1Edge3.mtl
g default
v 5.968878 -5.364049 9.988198
v 9.948131 -5.364049 -9.908064
v 9.948131 -5.364049 -6.963816
v 5.636291 -5.364048 8.266374
v 5.219405 -5.364048 7.492478
v 4.960773 -5.364048 6.439431
v 5.210281 -5.364048 5.707946
v 5.780159 -5.364048 5.410852
v 6.381414 -5.364048 5.074073
v 6.994858 -5.364048 4.493021
v 7.387513 -5.364048 3.737040
v 7.990900 -5.364048 1.521598
v 8.249595 -5.364048 0.236571
v 8.037591 -5.364048 -0.921197
v 7.489650 -5.364048 -1.631874
v 6.809765 -5.364048 -2.192484
v 6.520433 -5.364048 -2.565132
v 6.450287 -5.364048 -3.022802
v 6.589536 -5.364048 -3.390023
v 6.792287 -5.364048 -3.804786
v 6.909803 -5.364048 -4.102616
v 6.845880 -5.364048 -4.388780
v 6.652483 -5.364048 -4.826773
v 6.523588 -5.364048 -5.204289
v 6.705087 -5.364048 -5.655754
v 7.115923 -5.364048 -5.886862
v 7.740455 -5.364048 -5.828875
v 8.110042 -5.364048 -5.559636
v 8.210238 -5.364048 -6.326870
v 8.502765 -5.364048 -6.969892
v 8.846946 -5.364048 -7.200883
v 9.422271 -5.364048 -7.263716
v 9.948131 -3.700253 -6.963816
v 9.422271 -3.699868 -7.263716
v 8.846946 -3.699917 -7.200883
v 8.502765 -3.700075 -6.969892
v 8.210238 -3.700147 -6.326870
v 8.110042 -3.700251 -5.559636
v 7.740455 -3.699978 -5.828875
v 7.115923 -3.700083 -5.886862
v 6.705087 -3.699964 -5.655754
v 6.523588 -3.700190 -5.204289
v 6.652483 -3.700149 -4.826773
v 6.845880 -3.700336 -4.388780
v 6.909803 -3.700500 -4.102616
v 6.792287 -3.700275 -3.804786
v 6.589536 -3.700163 -3.390023
v 6.450287 -3.699762 -3.022802
v 6.520433 -3.700063 -2.565132
v 6.809765 -3.700181 -2.192484
v 7.489650 -3.700368 -1.631874
v 8.037591 -3.700622 -0.921197
v 8.249595 -3.700533 0.236571
v 7.990900 -3.700291 1.521598
v 7.387513 -3.700438 3.737040
v 6.994858 -3.700385 4.493021
v 6.381414 -3.700356 5.074073
v 5.780159 -3.700273 5.410852
v 5.210281 -3.699358 5.707947
v 4.960773 -3.699308 6.439431
v 5.219405 -3.700001 7.492478
v 5.636291 -3.700583 8.266374
v 5.968878 -3.700253 9.988198
v 9.948131 -3.722475 -9.908064
vt 1.000000 1.000000
vt 0.000000 1.000000
vt 1.000000 1.000000
vt 0.000000 1.000000
vt 1.000000 1.000000
vt 0.000000 1.000000
vt 1.000000 1.000000
vt 0.000000 1.000000
vt 1.000000 1.000000
vt 0.000000 1.000000
vt 0.999999 1.000000
vt 0.000000 1.000000
vt 1.000000 1.000000
vt 0.000000 1.000000
vt 1.000000 1.000000
vt 0.000000 1.000000
vt 1.000000 1.000000
vt 0.000000 1.000000
vt 1.000000 1.000000
vt 0.000000 1.000000
vt 1.000000 1.000000
vt 0.000000 1.000000
vt 1.000000 1.000000
vt 0.000000 1.000000
vt 1.000000 1.000000
vt 0.000000 1.000000
vt 1.000000 1.000000
vt 0.000000 1.000000
vt 1.000000 1.000000
vt 0.000000 1.000000
vt 1.000000 1.000000
vt 0.000000 1.000000
vt 0.999999 1.000000
vt 0.000000 1.000000
vt 1.000000 1.000000
vt 0.000000 1.000000
vt 1.000000 1.000000
vt 0.000000 1.000000
vt 0.999999 1.000000
vt 0.000000 1.000000
vt 1.000000 1.000000
vt 0.000000 1.000000
vt 0.999999 1.000000
vt 0.000000 1.000000
vt 1.000000 1.000000
vt 0.000000 1.000000
vt 0.999999 1.000000
vt 0.000000 1.000000
vt 1.000000 1.000000
vt 0.000000 1.000000
vt 1.000000 1.000000
vt 0.000000 1.000000
vt 1.000000 1.000000
vt 0.000000 1.000000
vt 0.999999 1.000000
vt 0.000000 1.000000
vt 0.999997 1.000000
vt 0.000000 1.000000
vt 1.000000 1.000000
vt 0.000000 1.000000
vt 1.000000 1.000000
vt 0.000000 1.000000
vt 1.000000 0.542071
vt 0.000000 0.542071
vt 0.000000 0.541913
vt 1.000000 0.541913
vt 0.000000 0.541933
vt 1.000000 0.541933
vt 0.000000 0.541999
vt 0.999997 0.541999
vt 0.000000 0.542028
vt 0.999999 0.542028
vt 0.000000 0.542071
vt 1.000000 0.542071
vt 0.000000 0.541959
vt 1.000000 0.541959
vt 0.000000 0.542002
vt 1.000000 0.542002
vt 0.000000 0.541952
vt 0.999999 0.541952
vt 0.000000 0.542046
vt 1.000000 0.542046
vt 0.000000 0.542029
vt 0.999999 0.542029
vt 0.000000 0.542106
vt 1.000000 0.542106
vt 0.000000 0.542175
vt 0.999999 0.542175
vt 0.000000 0.542081
vt 1.000000 0.542081
vt 0.000000 0.542036
vt 1.000000 0.542035
vt 0.000000 0.541869
vt 0.999999 0.541869
vt 0.000000 0.541993
vt 1.000000 0.541993
vt 0.000000 0.542042
vt 1.000000 0.542042
vt 0.000000 0.542120
vt 1.000000 0.542121
vt 0.000000 0.542225
vt 1.000000 0.542225
vt 0.000000 0.542188
vt 1.000000 0.542188
vt 0.000000 0.542087
vt 1.000000 0.542087
vt 0.000000 0.542148
vt 1.000000 0.542148
vt 0.000000 0.542127
vt 1.000000 0.542127
vt 0.000000 0.542114
vt 1.000000 0.542114
vt 0.000000 0.542081
vt 1.000000 0.542081
vt 0.000000 0.541703
vt 1.000000 0.541702
vt 0.000000 0.541682
vt 1.000000 0.541682
vt 0.000000 0.541968
vt 1.000000 0.541968
vt 0.000000 0.542208
vt 1.000000 0.542208
vt 1.000000 0.542071
vt 0.000000 0.692629
vn 0.981851 0.000000 -0.189654
vn 0.981851 0.000000 -0.189654
vn 0.981851 0.000000 -0.189654
vn 0.957744 0.000000 -0.287621
vn 0.880389 0.000000 -0.474252
vn 0.880389 0.000000 -0.474252
vn 0.957744 0.000000 -0.287621
vn 0.937950 0.000000 -0.346772
vn 0.971139 0.000000 -0.238515
vn 0.971139 0.000000 -0.238515
vn 0.937950 0.000000 -0.346772
vn 0.971139 0.000000 -0.238515
vn 0.946456 0.000000 0.322834
vn 0.946456 0.000000 0.322834
vn 0.946455 -0.000000 0.322835
vn 0.946455 -0.000000 0.322835
vn 0.462281 -0.000000 0.886734
vn 0.462281 -0.000000 0.886734
vn 0.462282 -0.000001 0.886733
vn 0.475996 -0.000000 0.879448
vn 0.488688 0.000000 0.872459
vn 0.488688 0.000000 0.872459
vn 0.475996 -0.000000 0.879448
vn 0.602855 0.000000 0.797851
vn 0.687679 0.000000 0.726015
vn 0.687679 0.000000 0.726015
vn 0.602855 0.000000 0.797851
vn 0.799044 0.000000 0.601273
vn 0.887435 0.000000 0.460933
vn 0.887435 0.000000 0.460932
vn 0.799044 0.000000 0.601273
vn 0.948149 0.000000 0.317825
vn 0.964855 0.000000 0.262783
vn 0.964855 0.000000 0.262783
vn 0.948149 0.000000 0.317825
vn 0.970987 0.000000 0.239132
vn 0.980332 -0.000000 0.197355
vn 0.980332 -0.000000 0.197355
vn 0.970987 0.000000 0.239132
vn 0.999817 0.000000 0.019124
vn 0.983645 0.000000 -0.180119
vn 0.983645 0.000000 -0.180119
vn 0.999817 0.000000 0.019124
vn 0.926309 0.000000 -0.376764
vn 0.791941 0.000000 -0.610597
vn 0.791941 0.000000 -0.610597
vn 0.926309 0.000000 -0.376764
vn 0.719287 0.000000 -0.694713
vn 0.636184 0.000000 -0.771538
vn 0.636184 0.000000 -0.771538
vn 0.719287 0.000000 -0.694713
vn 0.693623 0.000000 -0.720339
vn 0.789871 0.000000 -0.613273
vn 0.789871 0.000000 -0.613273
vn 0.693623 0.000000 -0.720339
vn 0.917697 0.000000 -0.397281
vn 0.988458 0.000000 -0.151499
vn 0.988458 0.000000 -0.151499
vn 0.917697 0.000000 -0.397281
vn 0.996510 0.000000 0.083474
vn 0.935032 0.000000 0.354562
vn 0.935032 0.000000 0.354562
vn 0.996510 0.000000 0.083474
vn 0.916210 0.000000 0.400698
vn 0.898404 0.000000 0.439171
vn 0.898404 0.000000 0.439171
vn 0.916210 0.000000 0.400698
vn 0.912112 0.000000 0.409942
vn 0.930207 0.000000 0.367036
vn 0.930207 0.000000 0.367036
vn 0.912112 0.000000 0.409942
vn 0.930207 0.000000 0.367036
vn 0.975948 0.000000 -0.218005
vn 0.975948 0.000000 -0.218005
vn 0.975947 0.000000 -0.218007
vn 0.942277 0.000000 -0.334835
vn 0.914791 0.000000 -0.403929
vn 0.914791 0.000000 -0.403929
vn 0.942277 0.000000 -0.334835
vn 0.930007 0.000000 -0.367541
vn 0.946360 0.000000 -0.323115
vn 0.946360 0.000000 -0.323115
vn 0.930007 0.000000 -0.367541
vn 0.946360 0.000000 -0.323115
vn 0.927828 0.000000 0.373008
vn 0.927828 0.000000 0.373008
vn 0.927828 0.000000 0.373008
vn 0.927828 0.000000 0.373008
vn 0.490282 0.000000 0.871564
vn 0.490282 0.000000 0.871564
vn 0.490282 0.000000 0.871564
vn 0.490282 0.000000 0.871564
vn -0.092451 0.000000 0.995717
vn -0.092451 0.000000 0.995717
vn -0.092452 0.000000 0.995717
vn -0.092452 0.000000 0.995717
vn -0.588814 0.000000 0.808269
vn -0.588814 0.000000 0.808269
vn -0.588813 0.000000 0.808269
vn -0.588813 0.000000 0.808269
vn 0.991580 0.000000 0.129495
vn 0.991580 0.000000 0.129495
vn 0.991580 0.000000 0.129494
vn 0.963343 0.000000 0.268274
vn 0.910237 0.000000 0.414088
vn 0.910237 0.000000 0.414088
vn 0.963343 0.000000 0.268274
vn 0.910236 0.000000 0.414090
vn 0.557264 0.000000 0.830336
vn 0.557264 0.000000 0.830336
vn 0.557265 0.000000 0.830335
vn 0.304373 0.000000 0.952553
vn 0.108568 0.000000 0.994089
vn 0.108568 0.000000 0.994089
vn 0.304373 0.000000 0.952553
vn 0.108568 0.000000 0.994089
vn -0.495402 0.000000 0.868664
vn -0.495402 0.000000 0.868664
vn -0.495402 0.000000 0.868664
vn -0.495402 0.000000 0.868664
vn 1.000000 0.000000 0.000000
vn 1.000000 0.000000 0.000000
vn 1.000000 -0.000001 0.000000
vn 1.000000 -0.000001 0.000000
s off
g initialShadingGroup pPlane6
f 62/121/1 63/123/2 1/3/3 4/4/4
f 61/119/5 62/122/6 4/5/7 5/6/8
f 60/117/9 61/120/10 5/7/11 6/8/12
f 59/115/13 60/118/14 6/9/15 7/10/16
f 58/113/17 59/116/18 7/11/19 8/12/20
f 57/111/21 58/114/22 8/13/23 9/14/24
f 56/109/25 57/112/26 9/15/27 10/16/28
f 55/107/29 56/110/30 10/17/31 11/18/32
f 54/105/33 55/108/34 11/19/35 12/20/36
f 53/103/37 54/106/38 12/21/39 13/22/40
f 52/101/41 53/104/42 13/23/43 14/24/44
f 51/99/45 52/102/46 14/25/47 15/26/48
f 50/97/49 51/100/50 15/27/51 16/28/52
f 49/95/53 50/98/54 16/29/55 17/30/56
f 48/93/57 49/96/58 17/31/59 18/32/60
f 47/91/61 48/94/62 18/33/63 19/34/64
f 46/89/65 47/92/66 19/35/67 20/36/68
f 45/87/69 46/90/70 20/37/71 21/38/72
f 44/85/73 45/88/74 21/39/75 22/40/76
f 43/83/77 44/86/78 22/41/79 23/42/80
f 42/81/81 43/84/82 23/43/83 24/44/84
f 41/79/85 42/82/86 24/45/87 25/46/88
f 40/77/89 41/80/90 25/47/91 26/48/92
f 39/75/93 40/78/94 26/49/95 27/50/96
f 38/73/97 39/76/98 27/51/99 28/52/100
f 37/71/101 38/74/102 28/53/103 29/54/104
f 36/69/105 37/72/106 29/55/107 30/56/108
f 35/67/109 36/70/110 30/57/111 31/58/112
f 34/65/113 35/68/114 31/59/115 32/60/116
f 33/64/117 34/66/118 32/61/119 3/62/120
f 64/124/121 33/63/122 3/1/123 2/2/124
