# This file uses centimeters as units for non-parametric coordinates.

mtllib Room1Floor.mtl
g default
v 0.664388 -0.023348 -0.252756
v 2.486700 -0.023348 -2.354727
v 2.855705 -0.023348 -2.295512
v -0.643445 -0.023349 0.748251
v 1.589445 -0.023348 -1.358290
v 1.913980 -0.023348 -1.012086
v -0.660129 -0.023349 1.738357
v 3.318382 -0.023348 -2.349805
v 0.643445 -0.023348 0.748251
v 3.798546 -0.023348 -2.461210
v 2.052241 -0.023348 -0.630426
v 4.236751 -0.023348 -2.581769
v -0.710217 -0.023349 2.597080
v 2.093810 -0.023348 -0.188499
v 4.573546 -0.023348 -2.663522
v 0.660129 -0.023348 1.738357
v -0.789482 -0.023349 3.203936
v 2.128271 -0.023348 0.338500
v 4.871118 -0.023348 -2.635221
v -0.960583 -0.023349 3.670738
v -1.286176 -0.023349 4.109301
v 5.191662 -0.023348 -2.425623
v -1.589475 -0.023349 4.538589
v 2.289571 -0.023348 0.822727
v 3.803754 -0.023348 -0.791396
v 3.995957 -0.023348 -0.914765
v 0.710217 -0.023348 2.597080
v -1.693695 -0.023349 4.977576
v 4.273775 -0.023348 -0.962711
v 3.770716 -0.023348 -0.438716
v 5.413896 -0.023348 -2.090654
v 4.603615 -0.023348 -1.004657
v 3.968041 -0.023348 -0.285014
v -1.594043 -0.023349 5.376175
v 2.711659 -0.023348 1.136339
v 4.951897 -0.023348 -1.110030
v 5.416545 -0.023348 -1.686245
v 0.789482 -0.023348 3.203935
v 5.246811 -0.023348 -1.322627
v 4.327300 -0.023348 -0.207113
v 0.960583 -0.023348 3.670738
v 4.744427 -0.023348 -0.143589
v -1.285727 -0.023349 5.684304
v 3.267419 -0.023348 1.307026
v 5.115357 -0.023348 -0.033015
v -0.867105 -0.023348 5.798164
v 1.286176 -0.023348 4.109301
v -0.436539 -0.023348 5.613951
v 3.829737 -0.023348 1.362481
v 3.720796 -0.023348 -0.622688
v 5.374914 -0.023348 0.161572
v 4.386101 -0.023348 1.297468
v 5.457924 -0.023348 0.477136
v 0.436539 -0.023348 5.613951
v 1.589475 -0.023348 4.538589
v 5.321812 -0.023348 0.822566
v 0.867105 -0.023348 5.798164
v 1.693695 -0.023348 4.977576
v 1.285727 -0.023348 5.684304
v 1.594043 -0.023348 5.376175
v 0.000000 -0.023348 5.447327
v 4.923998 -0.023348 1.106754
v -9.948131 -0.023348 9.988198
v 9.948131 -0.023348 -9.908064
v 0.000000 -0.023348 -6.090895
v 0.450109 -0.023348 -6.051085
v 0.881335 -0.023348 -5.925878
v 1.274793 -0.023348 -5.709492
v 1.621217 -0.023348 -5.419365
v 1.911344 -0.023348 -5.072941
v 2.127731 -0.023348 -4.679482
v 2.252939 -0.023348 -4.248257
v 2.292748 -0.023348 -3.798148
v 2.252939 -0.023348 -3.348039
v 2.221782 -0.023348 -2.931937
v 2.287547 -0.023348 -2.583851
v 1.217737 -0.023348 -1.551202
v 0.937959 -0.023348 -1.472989
v 0.752659 -0.023348 -1.061043
v -0.664388 -0.023349 -0.252756
v -2.711659 -0.023349 1.136339
v -2.289571 -0.068802 0.822727
v -2.128271 -0.068802 0.338500
v -0.752659 -0.023349 -1.061043
v -3.267419 -0.068802 1.307026
v -2.093810 -0.023349 -0.188499
v -3.829737 -0.068802 1.362481
v -1.217737 -0.023349 -1.551202
v -2.052241 -0.068802 -0.630426
v -1.589445 -0.068802 -1.358290
v -1.913980 -0.023349 -1.012086
v -4.386100 -0.068802 1.297468
v -0.937959 -0.068802 -1.472989
v -3.968041 -0.023349 -0.285014
v -3.770716 -0.023349 -0.438716
v -5.321812 -0.023349 0.822566
v -4.327300 -0.023349 -0.207113
v -3.803754 -0.023349 -0.791396
v -4.744427 -0.023349 -0.143589
v -3.995957 -0.023349 -0.914765
v -2.486701 -0.023349 -2.354727
v -5.457924 -0.023349 0.477136
v -2.287547 -0.068802 -2.583851
v -2.855705 -0.023349 -2.295512
v -5.115357 -0.023349 -0.033015
v -4.273775 -0.068802 -0.962711
v -5.374914 -0.023349 0.161572
v -2.221782 -0.023349 -2.931937
v -4.603615 -0.023349 -1.004657
v -3.318382 -0.023349 -2.349805
v -4.951897 -0.023349 -1.110030
v -3.798546 -0.068802 -2.461210
v -0.450109 -0.023349 -6.051085
v -5.246811 -0.068802 -1.322627
v -4.923998 -0.023349 1.106754
v -4.236752 -0.068802 -2.581769
v -0.881335 -0.023349 -5.925878
v -5.416545 -0.023349 -1.686245
v -4.573546 -0.023349 -2.663522
v -5.413896 -0.023349 -2.090654
v -4.871118 -0.068802 -2.635221
v -5.191662 -0.023349 -2.425623
v -3.720796 -0.023349 -0.622688
v -2.252939 -0.023349 -3.348039
v -2.292748 -0.023349 -3.798148
v -2.252939 -0.023349 -4.248257
v -2.127731 -0.068802 -4.679482
v -1.911344 -0.068802 -5.072940
v -1.274793 -0.068802 -5.709490
v -1.621217 -0.068802 -5.419365
v -9.948131 -0.068802 -9.908064
v -9.948131 -5.364049 9.988198
v 5.968878 -5.364049 9.988198
v 9.948131 -5.364049 -9.908064
v -9.948131 -5.409503 -9.908064
v 5.968878 -0.158998 9.988198
v 5.830723 -0.023349 9.988198
v 5.505064 -0.023348 8.306912
v 5.089908 -0.023348 7.536709
v 4.819982 -0.023348 6.424370
v 5.103574 -0.023348 5.607966
v 5.717438 -0.023348 5.290541
v 6.302859 -0.023348 4.962099
v 6.886762 -0.023348 4.407786
v 7.262569 -0.023348 3.681771
v 7.859033 -0.023348 1.489570
v 8.111602 -0.023348 0.232463
v 7.908386 -0.023348 -0.868248
v 7.389703 -0.023348 -1.538873
v 6.710729 -0.023348 -2.098556
v 6.390917 -0.023348 -2.511538
v 6.310132 -0.023348 -3.037598
v 6.465780 -0.023348 -3.445996
v 6.668101 -0.023348 -3.859540
v 6.768638 -0.023348 -4.114361
v 6.715309 -0.023348 -4.349353
v 6.524972 -0.023348 -4.780004
v 6.379272 -0.023348 -5.210112
v 6.598666 -0.023348 -5.752430
v 7.088439 -0.023348 -6.026189
v 7.794428 -0.023348 -5.958592
v 8.005137 -0.023348 -5.803883
v 8.079812 -0.023348 -6.368899
v 8.397460 -0.023348 -7.063389
v 8.802231 -0.023348 -7.333304
v 9.455309 -0.023348 -7.402350
v 9.948131 -0.023349 -7.119974
vt 0.000000 0.000000
vt 0.456419 0.210594
vt 0.435378 0.216317
vt 0.419882 0.231803
vt 0.414874 0.251837
vt 0.420112 0.273901
vt 0.435356 0.295478
vt 0.451720 0.317520
vt 0.460320 0.340982
vt 0.464304 0.371483
vt 0.466821 0.414643
vt 0.467660 0.464406
vt 0.466607 0.514718
vt 0.462171 0.555343
vt 0.452858 0.576047
vt 0.438796 0.579978
vt 0.420113 0.570282
vt 0.403802 0.552882
vt 0.396853 0.533699
vt 0.394764 0.511488
vt 0.393032 0.485001
vt 0.384925 0.460663
vt 0.363710 0.444901
vt 0.335777 0.436322
vt 0.307515 0.433535
vt 0.279552 0.436802
vt 0.252516 0.446388
vt 0.232522 0.460671
vt 0.225681 0.478033
vt 0.229853 0.493893
vt 0.242899 0.503673
vt 0.261542 0.509231
vt 0.282507 0.512423
vt 0.300563 0.516339
vt 0.310481 0.524064
vt 0.312990 0.533311
vt 0.308821 0.541790
vt 0.299160 0.547991
vt 0.285197 0.550400
vt 0.268619 0.552509
vt 0.251114 0.557805
vt 0.236292 0.568490
vt 0.227761 0.586766
vt 0.227894 0.607092
vt 0.239063 0.623927
vt 0.255174 0.634462
vt 0.270130 0.635884
vt 0.287058 0.631775
vt 0.309082 0.625716
vt 0.333216 0.620117
vt 0.356470 0.617388
vt 0.375017 0.620364
vt 0.385026 0.631880
vt 0.388332 0.649375
vt 0.386766 0.670289
vt 0.384765 0.692911
vt 0.386766 0.715534
vt 0.393059 0.737208
vt 0.403935 0.756983
vt 0.418516 0.774395
vt 0.435928 0.788977
vt 0.455703 0.799853
vt 0.477377 0.806146
vt 0.500000 0.808146
vt 1.000000 1.000000
vt 0.000000 1.000000
vt 0.000000 0.000000
vt 1.000000 0.000000
vt 1.000000 1.000000
vt 0.000000 1.000000
vt 1.000000 0.000000
vt 1.000000 1.000000
vt 0.000000 1.000000
vt 0.000000 0.084142
vt 0.008680 0.000000
vt 1.000000 0.000000
vt 1.000000 1.000000
vt 0.000000 1.000000
vt 0.793056 -0.000000
vt 0.776688 0.084503
vt 0.755821 0.123214
vt 0.742760 0.155069
vt 0.760238 0.224841
vt 0.790179 0.239649
vt 0.817701 0.253766
vt 0.846133 0.280475
vt 0.865219 0.317213
vt 0.895000 0.427147
vt 0.907695 0.490330
vt 0.897481 0.545653
vt 0.871412 0.579358
vt 0.836633 0.606705
vt 0.815915 0.627874
vt 0.811242 0.654334
vt 0.825816 0.674743
vt 0.844803 0.691283
vt 0.856339 0.703071
vt 0.846219 0.716042
vt 0.828234 0.742101
vt 0.820627 0.763878
vt 0.831653 0.791135
vt 0.856270 0.804894
vt 0.891753 0.801497
vt 0.902344 0.793721
vt 0.906097 0.822119
vt 0.922062 0.857025
vt 0.942406 0.870591
vt 0.975230 0.874061
vt 1.000000 0.859869
vt 0.522623 0.806146
vt 0.544297 0.799853
vt 0.564072 0.788977
vt 0.581484 0.774394
vt 0.596065 0.756983
vt 0.606941 0.737208
vt 0.613234 0.715534
vt 0.615235 0.692911
vt 0.613234 0.670289
vt 0.611668 0.649375
vt 0.614974 0.631880
vt 0.624983 0.620364
vt 0.643530 0.617388
vt 0.666784 0.620117
vt 0.690918 0.625716
vt 0.712942 0.631775
vt 0.729870 0.635884
vt 0.744826 0.634462
vt 0.760936 0.623927
vt 0.772106 0.607092
vt 0.772239 0.586766
vt 0.763708 0.568490
vt 0.748886 0.557805
vt 0.731381 0.552509
vt 0.714803 0.550400
vt 0.700840 0.547991
vt 0.691179 0.541790
vt 0.687010 0.533311
vt 0.689519 0.524064
vt 0.699437 0.516339
vt 0.717493 0.512423
vt 0.738458 0.509231
vt 0.757101 0.503673
vt 0.770147 0.493893
vt 0.774319 0.478033
vt 0.767478 0.460671
vt 0.747484 0.446388
vt 0.720448 0.436802
vt 0.692485 0.433535
vt 0.664223 0.436322
vt 0.636290 0.444901
vt 0.615075 0.460663
vt 0.606968 0.485001
vt 0.605236 0.511488
vt 0.603147 0.533699
vt 0.596198 0.552882
vt 0.579887 0.570282
vt 0.561204 0.579978
vt 0.547143 0.576047
vt 0.537829 0.555343
vt 0.533393 0.514718
vt 0.532340 0.464406
vt 0.533179 0.414643
vt 0.535696 0.371483
vt 0.539680 0.340982
vt 0.548280 0.317520
vt 0.564644 0.295478
vt 0.579888 0.273901
vt 0.585126 0.251837
vt 0.580118 0.231803
vt 0.564622 0.216317
vt 0.543581 0.210594
vt 0.521941 0.219853
vt 0.500000 0.228227
vt 0.478059 0.219853
vn -0.002003 0.999995 -0.002305
vn -0.000608 1.000000 -0.000700
vn -0.002546 0.999992 -0.002930
vn -0.002546 0.999992 -0.002930
vn -0.002546 0.999992 -0.002930
vn -0.002546 0.999992 -0.002930
vn -0.002546 0.999992 -0.002930
vn -0.002546 0.999992 -0.002930
vn -0.002546 0.999992 -0.002930
vn -0.002546 0.999992 -0.002930
vn -0.002546 0.999992 -0.002930
vn -0.002546 0.999992 -0.002930
vn -0.002546 0.999992 -0.002930
vn -0.002546 0.999992 -0.002930
vn -0.002546 0.999992 -0.002930
vn -0.002546 0.999992 -0.002930
vn -0.002546 0.999992 -0.002930
vn -0.002546 0.999992 -0.002930
vn -0.002546 0.999992 -0.002930
vn -0.002546 0.999992 -0.002930
vn -0.002546 0.999992 -0.002930
vn -0.002546 0.999992 -0.002930
vn -0.002546 0.999992 -0.002930
vn -0.002546 0.999992 -0.002930
vn -0.002546 0.999992 -0.002930
vn -0.002546 0.999992 -0.002930
vn -0.002546 0.999992 -0.002930
vn -0.002546 0.999992 -0.002930
vn -0.002546 0.999992 -0.002930
vn -0.002546 0.999992 -0.002930
vn -0.002546 0.999992 -0.002930
vn -0.002546 0.999992 -0.002930
vn -0.002546 0.999992 -0.002930
vn -0.002546 0.999992 -0.002930
vn -0.002546 0.999992 -0.002930
vn -0.002546 0.999992 -0.002930
vn -0.002546 0.999992 -0.002930
vn -0.002546 0.999992 -0.002930
vn -0.002546 0.999992 -0.002930
vn -0.002546 0.999992 -0.002930
vn -0.002546 0.999992 -0.002930
vn -0.002546 0.999992 -0.002930
vn -0.002546 0.999992 -0.002930
vn -0.002546 0.999992 -0.002930
vn -0.002546 0.999992 -0.002930
vn -0.002546 0.999992 -0.002930
vn -0.002546 0.999992 -0.002930
vn -0.002546 0.999992 -0.002930
vn -0.002546 0.999992 -0.002930
vn -0.002546 0.999992 -0.002930
vn -0.002546 0.999992 -0.002930
vn -0.002546 0.999992 -0.002930
vn -0.002546 0.999992 -0.002930
vn -0.002546 0.999992 -0.002930
vn -0.002546 0.999992 -0.002930
vn -0.002546 0.999992 -0.002930
vn -0.002546 0.999992 -0.002930
vn -0.002546 0.999992 -0.002930
vn -0.002546 0.999992 -0.002930
vn -0.002546 0.999992 -0.002930
vn -0.002546 0.999992 -0.002930
vn -0.002546 0.999992 -0.002930
vn -0.002546 0.999992 -0.002930
vn -0.002286 0.999994 -0.002632
vn -0.000760 0.999999 -0.000875
vn -0.002546 0.999992 -0.002930
vn 0.000000 0.000000 -1.000000
vn 0.000000 0.000000 -1.000000
vn 0.000000 0.000000 -1.000000
vn 0.000000 0.000000 -1.000000
vn -1.000000 0.000000 0.000000
vn -1.000000 0.000000 0.000000
vn -1.000000 0.000000 0.000000
vn -1.000000 0.000000 0.000000
vn 0.000000 0.000000 1.000000
vn 0.000000 0.000000 1.000000
vn 0.000000 0.000000 1.000000
vn 0.000000 0.000000 1.000000
vn 0.000000 0.000000 1.000000
vn -0.002003 0.999995 -0.002305
vn 0.000000 1.000000 0.000000
vn 0.000000 1.000000 0.000000
vn 0.000000 1.000000 0.000000
vn 0.000000 1.000000 0.000000
vn 0.000000 1.000000 0.000000
vn 0.000000 1.000000 0.000000
vn 0.000000 1.000000 0.000000
vn 0.000000 1.000000 0.000000
vn 0.000000 1.000000 0.000000
vn 0.000000 1.000000 0.000000
vn 0.000000 1.000000 0.000000
vn 0.000000 1.000000 0.000000
vn 0.000000 1.000000 0.000000
vn 0.000000 1.000000 0.000000
vn 0.000000 1.000000 0.000000
vn 0.000000 1.000000 0.000000
vn 0.000000 1.000000 0.000000
vn 0.000000 1.000000 0.000000
vn 0.000000 1.000000 0.000000
vn 0.000000 1.000000 0.000000
vn 0.000000 1.000000 0.000000
vn 0.000000 1.000000 0.000000
vn 0.000000 1.000000 0.000000
vn 0.000000 1.000000 0.000000
vn 0.000000 1.000000 0.000000
vn 0.000000 1.000000 0.000000
vn 0.000000 1.000000 0.000000
vn 0.000000 1.000000 0.000000
vn 0.000000 1.000000 0.000000
vn 0.000000 1.000000 0.000000
vn 0.000000 1.000000 0.000000
vn -0.000760 0.999999 -0.000875
vn -0.002286 0.999994 -0.002632
vn 0.000000 1.000000 0.000000
vn 0.000000 1.000000 0.000000
vn 0.000000 1.000000 0.000000
vn 0.000000 1.000000 0.000000
vn 0.000000 1.000000 0.000000
vn 0.000000 1.000000 0.000000
vn 0.000000 1.000000 0.000000
vn 0.000000 1.000000 0.000000
vn 0.000000 1.000000 0.000000
vn 0.000000 1.000000 0.000000
vn 0.000000 1.000000 0.000000
vn 0.000000 1.000000 0.000000
vn 0.000000 1.000000 0.000000
vn 0.000000 1.000000 0.000000
vn 0.000000 1.000000 0.000000
vn 0.000000 1.000000 0.000000
vn 0.000000 1.000000 0.000000
vn 0.000000 1.000000 0.000000
vn 0.000000 1.000000 0.000000
vn 0.000000 1.000000 0.000000
vn 0.000000 1.000000 0.000000
vn 0.000000 1.000000 0.000000
vn 0.000000 1.000000 0.000000
vn 0.000000 1.000000 0.000000
vn 0.000000 1.000000 0.000000
vn 0.000000 1.000000 0.000000
vn 0.000000 1.000000 0.000000
vn 0.000000 1.000000 0.000000
vn 0.000000 1.000000 0.000000
vn 0.000000 1.000000 0.000000
vn 0.000000 1.000000 0.000000
vn 0.000000 1.000000 0.000000
vn 0.000000 1.000000 0.000000
vn 0.000000 1.000000 0.000000
vn 0.000000 1.000000 0.000000
vn 0.000000 1.000000 0.000000
vn 0.000000 1.000000 0.000000
vn 0.000000 1.000000 0.000000
vn 0.000000 1.000000 0.000000
vn 0.000000 1.000000 0.000000
vn 0.000000 1.000000 0.000000
vn 0.000000 1.000000 0.000000
vn 0.000000 1.000000 0.000000
vn 0.000000 1.000000 0.000000
vn 0.000000 1.000000 0.000000
vn 0.000000 1.000000 0.000000
vn 0.000000 1.000000 0.000000
vn 0.000000 1.000000 0.000000
vn 0.000000 1.000000 0.000000
vn 0.000000 1.000000 0.000000
vn 0.000000 1.000000 0.000000
vn 0.000000 1.000000 0.000000
vn 0.000000 1.000000 0.000000
vn 0.000000 1.000000 0.000000
vn 0.000000 1.000000 0.000000
vn 0.000000 1.000000 0.000000
vn 0.000000 1.000000 0.000000
vn 0.000000 1.000000 0.000000
vn 0.000000 1.000000 0.000000
vn 0.000000 1.000000 0.000000
vn 0.000000 1.000000 0.000000
vn 0.000000 1.000000 0.000000
vn 0.000000 1.000000 0.000000
vn 0.000000 1.000000 0.000000
vn 0.000000 1.000000 0.000000
vn -0.000608 1.000000 -0.000700
s off
g initialShadingGroup pPlane5
f 63/1/1 46/2/2 43/3/3 34/4/4 28/5/5 23/6/6 21/7/7 20/8/8 17/9/9 13/10/10 7/11/11 4/12/12 80/13/13 84/14/14 93/15/15 88/16/16 90/17/17 91/18/18 89/19/19 86/20/20 83/21/21 82/22/22 81/23/23 85/24/24 87/25/25 92/26/26 115/27/27 96/28/28 102/29/29 107/30/30 105/31/31 99/32/32 97/33/33 94/34/34 95/35/35 123/36/36 98/37/37 100/38/38 106/39/39 109/40/40 111/41/41 114/42/42 118/43/43 120/44/44 122/45/45 121/46/46 119/47/47 116/48/48 112/49/49 110/50/50 104/51/51 101/52/52 103/53/53 108/54/54 124/55/55 125/56/56 126/57/57 127/58/58 128/59/59 130/60/60 129/61/61 117/62/62 113/63/63 65/64/64 64/65/65 131/66/66
f 131/67/67 64/68/68 134/69/69 135/70/70
f 63/1/71 131/71/72 135/72/73 132/73/74
f 136/74/75 137/75/76 63/76/77 132/77/78 133/78/79
f 63/1/80 137/79/81 138/80/82 139/81/83 140/82/84 141/83/85 142/84/86 143/85/87 144/86/88 145/87/89 146/88/90 147/89/91 148/90/92 149/91/93 150/92/94 151/93/95 152/94/96 153/95/97 154/96/98 155/97/99 156/98/100 157/99/101 158/100/102 159/101/103 160/102/104 161/103/105 162/104/106 163/105/107 164/106/108 165/107/109 166/108/110 167/109/111 64/65/112 65/64/113 66/110/114 67/111/115 68/112/116 69/113/117 70/114/118 71/115/119 72/116/120 73/117/121 74/118/122 75/119/123 76/120/124 2/121/125 3/122/126 8/123/127 10/124/128 12/125/129 15/126/130 19/127/131 22/128/132 31/129/133 37/130/134 39/131/135 36/132/136 32/133/137 29/134/138 26/135/139 25/136/140 50/137/141 30/138/142 33/139/143 40/140/144 42/141/145 45/142/146 51/143/147 53/144/148 56/145/149 62/146/150 52/147/151 49/148/152 44/149/153 35/150/154 24/151/155 18/152/156 14/153/157 11/154/158 6/155/159 5/156/160 77/157/161 78/158/162 79/159/163 1/160/164 9/161/165 16/162/166 27/163/167 38/164/168 41/165/169 47/166/170 55/167/171 58/168/172 60/169/173 59/170/174 57/171/175 54/172/176 61/173/177 48/174/178 46/2/179
