# This file uses centimeters as units for non-parametric coordinates.

mtllib TunnelShards.mtl
g default
v -0.800685 -0.425640 -10.967839
v 0.494576 -0.425640 -10.967839
v -0.800685 0.083579 -10.967839
v 0.494576 0.083579 -10.967839
v -0.800685 0.083579 -24.978553
v 0.494576 0.083579 -24.978553
v -0.800685 -0.425640 -24.978553
v 0.494576 -0.425640 -24.978553
vt 0.375000 0.000000
vt 0.625000 0.000000
vt 0.375000 0.250000
vt 0.625000 0.250000
vt 0.375000 0.500000
vt 0.625000 0.500000
vt 0.375000 0.750000
vt 0.625000 0.750000
vt 0.375000 1.000000
vt 0.625000 1.000000
vt 0.875000 0.000000
vt 0.875000 0.250000
vt 0.125000 0.000000
vt 0.125000 0.250000
vn 0.000000 0.000000 1.000000
vn 0.000000 0.000000 1.000000
vn 0.000000 0.000000 1.000000
vn 0.000000 0.000000 1.000000
vn 0.000000 1.000000 0.000000
vn 0.000000 1.000000 0.000000
vn 0.000000 1.000000 0.000000
vn 0.000000 1.000000 0.000000
vn 0.000000 0.000000 -1.000000
vn 0.000000 0.000000 -1.000000
vn 0.000000 0.000000 -1.000000
vn 0.000000 0.000000 -1.000000
vn 0.000000 -1.000000 0.000000
vn 0.000000 -1.000000 0.000000
vn 0.000000 -1.000000 0.000000
vn 0.000000 -1.000000 0.000000
vn 1.000000 0.000000 0.000000
vn 1.000000 0.000000 0.000000
vn 1.000000 0.000000 0.000000
vn 1.000000 0.000000 0.000000
vn -1.000000 0.000000 0.000000
vn -1.000000 0.000000 0.000000
vn -1.000000 0.000000 0.000000
vn -1.000000 0.000000 0.000000
s off
g pCube20
usemtl initialShadingGroup
f 1/1/1 2/2/2 4/4/3 3/3/4
f 3/3/5 4/4/6 6/6/7 5/5/8
f 5/5/9 6/6/10 8/8/11 7/7/12
f 7/7/13 8/8/14 2/10/15 1/9/16
f 2/2/17 8/11/18 6/12/19 4/4/20
f 7/13/21 1/1/22 3/3/23 5/14/24
g default
v -3.722139 5.343885 -10.967842
v -3.633552 4.051656 -10.967842
v -3.214112 5.378710 -10.967842
v -3.125525 4.086482 -10.967842
v -3.214112 5.378710 -22.425170
v -3.125525 4.086482 -22.425170
v -3.722139 5.343885 -22.425170
v -3.633552 4.051656 -22.425170
v 3.722139 5.343884 -10.967842
v 3.633552 4.051656 -10.967842
v 3.214112 5.378711 -10.967842
v 3.125525 4.086482 -10.967842
v 3.214112 5.378711 -22.425170
v 3.125525 4.086482 -22.425170
v 3.722139 5.343884 -22.425170
v 3.633552 4.051656 -22.425170
vt 0.375000 0.000000
vt 0.625000 0.000000
vt 0.375000 0.250000
vt 0.625000 0.250000
vt 0.375000 0.500000
vt 0.625000 0.500000
vt 0.375000 0.750000
vt 0.625000 0.750000
vt 0.375000 1.000000
vt 0.625000 1.000000
vt 0.875000 0.000000
vt 0.875000 0.250000
vt 0.125000 0.000000
vt 0.125000 0.250000
vt 0.375000 0.000000
vt 0.625000 0.000000
vt 0.625000 0.250000
vt 0.375000 0.250000
vt 0.625000 0.500000
vt 0.375000 0.500000
vt 0.625000 0.750000
vt 0.375000 0.750000
vt 0.625000 1.000000
vt 0.375000 1.000000
vt 0.875000 0.000000
vt 0.875000 0.250000
vt 0.125000 0.000000
vt 0.125000 0.250000
vn 0.000000 0.000000 1.000000
vn 0.000000 0.000000 1.000000
vn 0.000000 0.000000 1.000000
vn 0.000000 0.000000 1.000000
vn 0.997658 0.068393 0.000000
vn 0.997658 0.068393 0.000000
vn 0.997658 0.068393 0.000000
vn 0.997658 0.068393 0.000000
vn 0.000000 0.000000 -1.000000
vn 0.000000 0.000000 -1.000000
vn 0.000000 0.000000 -1.000000
vn 0.000000 0.000000 -1.000000
vn -0.997659 -0.068393 0.000000
vn -0.997659 -0.068393 0.000000
vn -0.997659 -0.068393 0.000000
vn -0.997659 -0.068393 0.000000
vn 0.068391 -0.997659 0.000000
vn 0.068391 -0.997659 0.000000
vn 0.068391 -0.997659 0.000000
vn 0.068391 -0.997659 0.000000
vn -0.068391 0.997659 0.000000
vn -0.068391 0.997659 0.000000
vn -0.068391 0.997659 0.000000
vn -0.068391 0.997659 0.000000
vn 0.000000 -0.000000 1.000000
vn 0.000000 -0.000000 1.000000
vn 0.000000 -0.000000 1.000000
vn 0.000000 -0.000000 1.000000
vn -0.997658 0.068393 0.000000
vn -0.997658 0.068393 0.000000
vn -0.997658 0.068393 0.000000
vn -0.997658 0.068393 0.000000
vn 0.000000 0.000000 -1.000000
vn 0.000000 0.000000 -1.000000
vn 0.000000 0.000000 -1.000000
vn 0.000000 0.000000 -1.000000
vn 0.997658 -0.068393 0.000000
vn 0.997658 -0.068393 0.000000
vn 0.997658 -0.068393 0.000000
vn 0.997658 -0.068393 0.000000
vn -0.068392 -0.997659 0.000000
vn -0.068392 -0.997659 0.000000
vn -0.068392 -0.997659 0.000000
vn -0.068392 -0.997659 0.000000
vn 0.068392 0.997659 0.000000
vn 0.068392 0.997659 0.000000
vn 0.068392 0.997659 0.000000
vn 0.068392 0.997659 0.000000
s off
g pCube17
usemtl initialShadingGroup
f 9/15/25 10/16/26 12/18/27 11/17/28
f 11/17/29 12/18/30 14/20/31 13/19/32
f 13/19/33 14/20/34 16/22/35 15/21/36
f 15/21/37 16/22/38 10/24/39 9/23/40
f 10/16/41 16/25/42 14/26/43 12/18/44
f 15/27/45 9/15/46 11/17/47 13/28/48
f 17/29/49 19/32/50 20/31/51 18/30/52
f 19/32/53 21/34/54 22/33/55 20/31/56
f 21/34/57 23/36/58 24/35/59 22/33/60
f 23/36/61 17/38/62 18/37/63 24/35/64
f 18/30/65 20/31/66 22/40/67 24/39/68
f 23/41/69 21/42/70 19/32/71 17/29/72
g default
v -3.637256 4.001593 -10.967842
v -3.407690 2.726837 -10.967842
v -3.136100 4.091844 -10.967842
v -2.906533 2.817089 -10.967842
v -3.136100 4.091844 -24.377124
v -2.906533 2.817089 -24.377124
v -3.637256 4.001593 -24.377124
v -3.407690 2.726837 -24.377124
v 3.637256 4.001593 -10.967842
v 3.407690 2.726837 -10.967842
v 3.136099 4.091844 -10.967842
v 2.906534 2.817089 -10.967842
v 3.136099 4.091844 -24.377124
v 2.906534 2.817089 -24.377124
v 3.637256 4.001593 -24.377124
v 3.407690 2.726837 -24.377124
vt 0.375000 0.000000
vt 0.625000 0.000000
vt 0.375000 0.250000
vt 0.625000 0.250000
vt 0.375000 0.500000
vt 0.625000 0.500000
vt 0.375000 0.750000
vt 0.625000 0.750000
vt 0.375000 1.000000
vt 0.625000 1.000000
vt 0.875000 0.000000
vt 0.875000 0.250000
vt 0.125000 0.000000
vt 0.125000 0.250000
vt 0.375000 0.000000
vt 0.625000 0.000000
vt 0.625000 0.250000
vt 0.375000 0.250000
vt 0.625000 0.500000
vt 0.375000 0.500000
vt 0.625000 0.750000
vt 0.375000 0.750000
vt 0.625000 1.000000
vt 0.375000 1.000000
vt 0.875000 0.000000
vt 0.875000 0.250000
vt 0.125000 0.000000
vt 0.125000 0.250000
vn 0.000000 0.000000 1.000000
vn 0.000000 0.000000 1.000000
vn 0.000000 0.000000 1.000000
vn 0.000000 0.000000 1.000000
vn 0.984168 0.177235 0.000000
vn 0.984168 0.177235 0.000000
vn 0.984168 0.177235 0.000000
vn 0.984168 0.177235 0.000000
vn 0.000000 -0.000001 -1.000000
vn 0.000000 -0.000001 -1.000000
vn 0.000000 -0.000001 -1.000000
vn 0.000000 -0.000001 -1.000000
vn -0.984169 -0.177235 0.000000
vn -0.984169 -0.177235 0.000000
vn -0.984169 -0.177235 0.000000
vn -0.984169 -0.177235 0.000000
vn 0.177235 -0.984169 0.000000
vn 0.177235 -0.984169 0.000000
vn 0.177235 -0.984169 0.000000
vn 0.177235 -0.984169 0.000000
vn -0.177235 0.984169 0.000000
vn -0.177235 0.984169 0.000000
vn -0.177235 0.984169 0.000000
vn -0.177235 0.984169 0.000000
vn 0.000000 0.000000 1.000000
vn 0.000000 0.000000 1.000000
vn 0.000000 0.000000 1.000000
vn 0.000000 0.000000 1.000000
vn -0.984169 0.177235 0.000000
vn -0.984169 0.177235 0.000000
vn -0.984169 0.177235 0.000000
vn -0.984169 0.177235 0.000000
vn -0.000000 0.000001 -1.000000
vn -0.000000 0.000001 -1.000000
vn -0.000000 0.000001 -1.000000
vn -0.000000 0.000001 -1.000000
vn 0.984169 -0.177235 0.000000
vn 0.984169 -0.177235 0.000000
vn 0.984169 -0.177235 0.000000
vn 0.984169 -0.177235 0.000000
vn -0.177235 -0.984168 0.000000
vn -0.177235 -0.984168 0.000000
vn -0.177235 -0.984168 0.000000
vn -0.177235 -0.984168 0.000000
vn 0.177234 0.984169 0.000000
vn 0.177234 0.984169 0.000000
vn 0.177234 0.984169 0.000000
vn 0.177234 0.984169 0.000000
s off
g pCube16
usemtl initialShadingGroup
f 25/43/73 26/44/74 28/46/75 27/45/76
f 27/45/77 28/46/78 30/48/79 29/47/80
f 29/47/81 30/48/82 32/50/83 31/49/84
f 31/49/85 32/50/86 26/52/87 25/51/88
f 26/44/89 32/53/90 30/54/91 28/46/92
f 31/55/93 25/43/94 27/45/95 29/56/96
f 33/57/97 35/60/98 36/59/99 34/58/100
f 35/60/101 37/62/102 38/61/103 36/59/104
f 37/62/105 39/64/106 40/63/107 38/61/108
f 39/64/109 33/66/110 34/65/111 40/63/112
f 34/58/113 36/59/114 38/68/115 40/67/116
f 39/69/117 37/70/118 35/60/119 33/57/120
g default
v -3.394372 2.682664 -10.967842
v -2.956968 1.463492 -10.967842
v -2.915067 2.854625 -10.967842
v -2.477663 1.635453 -10.967842
v -2.915067 2.854625 -23.630095
v -2.477663 1.635453 -23.630095
v -3.394372 2.682664 -23.630095
v -2.956968 1.463492 -23.630095
v 3.394372 2.682664 -10.967842
v 2.956968 1.463492 -10.967842
v 2.915067 2.854625 -10.967842
v 2.477663 1.635453 -10.967842
v 2.915067 2.854625 -23.630095
v 2.477663 1.635453 -23.630095
v 3.394372 2.682664 -23.630095
v 2.956968 1.463492 -23.630095
vt 0.375000 0.000000
vt 0.625000 0.000000
vt 0.375000 0.250000
vt 0.625000 0.250000
vt 0.375000 0.500000
vt 0.625000 0.500000
vt 0.375000 0.750000
vt 0.625000 0.750000
vt 0.375000 1.000000
vt 0.625000 1.000000
vt 0.875000 0.000000
vt 0.875000 0.250000
vt 0.125000 0.000000
vt 0.125000 0.250000
vt 0.375000 0.000000
vt 0.625000 0.000000
vt 0.625000 0.250000
vt 0.375000 0.250000
vt 0.625000 0.500000
vt 0.375000 0.500000
vt 0.625000 0.750000
vt 0.375000 0.750000
vt 0.625000 1.000000
vt 0.375000 1.000000
vt 0.875000 0.000000
vt 0.875000 0.250000
vt 0.125000 0.000000
vt 0.125000 0.250000
vn 0.000000 0.000000 1.000000
vn 0.000000 0.000000 1.000000
vn 0.000000 0.000000 1.000000
vn 0.000000 0.000000 1.000000
vn 0.941255 0.337695 0.000000
vn 0.941255 0.337695 0.000000
vn 0.941255 0.337695 0.000000
vn 0.941255 0.337695 0.000000
vn 0.000000 0.000000 -1.000000
vn 0.000000 0.000000 -1.000000
vn 0.000000 0.000000 -1.000000
vn 0.000000 0.000000 -1.000000
vn -0.941256 -0.337695 0.000000
vn -0.941256 -0.337695 0.000000
vn -0.941256 -0.337695 0.000000
vn -0.941256 -0.337695 0.000000
vn 0.337695 -0.941256 0.000000
vn 0.337695 -0.941256 0.000000
vn 0.337695 -0.941256 0.000000
vn 0.337695 -0.941256 0.000000
vn -0.337695 0.941256 0.000000
vn -0.337695 0.941256 0.000000
vn -0.337695 0.941256 0.000000
vn -0.337695 0.941256 0.000000
vn -0.000000 0.000000 1.000000
vn -0.000000 0.000000 1.000000
vn -0.000000 0.000000 1.000000
vn -0.000000 0.000000 1.000000
vn -0.941256 0.337695 0.000000
vn -0.941256 0.337695 0.000000
vn -0.941256 0.337695 0.000000
vn -0.941256 0.337695 0.000000
vn -0.000000 0.000001 -1.000000
vn -0.000000 0.000001 -1.000000
vn -0.000000 0.000001 -1.000000
vn -0.000000 0.000001 -1.000000
vn 0.941255 -0.337696 0.000000
vn 0.941255 -0.337696 0.000000
vn 0.941255 -0.337696 0.000000
vn 0.941255 -0.337696 0.000000
vn -0.337695 -0.941256 0.000000
vn -0.337695 -0.941256 0.000000
vn -0.337695 -0.941256 0.000000
vn -0.337695 -0.941256 0.000000
vn 0.337695 0.941256 0.000000
vn 0.337695 0.941256 0.000000
vn 0.337695 0.941256 0.000000
vn 0.337695 0.941256 0.000000
s off
g pCube15
usemtl initialShadingGroup
f 41/71/121 42/72/122 44/74/123 43/73/124
f 43/73/125 44/74/126 46/76/127 45/75/128
f 45/75/129 46/76/130 48/78/131 47/77/132
f 47/77/133 48/78/134 42/80/135 41/79/136
f 42/72/137 48/81/138 46/82/139 44/74/140
f 47/83/141 41/71/142 43/73/143 45/84/144
f 49/85/145 51/88/146 52/87/147 50/86/148
f 51/88/149 53/90/150 54/89/151 52/87/152
f 53/90/153 55/92/154 56/91/155 54/89/156
f 55/92/157 49/94/158 50/93/159 56/91/160
f 50/86/161 52/87/162 54/96/163 56/95/164
f 55/97/165 53/98/166 51/88/167 49/85/168
g default
v -1.845398 0.267838 -10.967842
v -0.689792 -0.317207 -10.967842
v -1.615394 0.722152 -10.967842
v -0.459788 0.137108 -10.967842
v -1.615394 0.722152 -22.433702
v -0.459788 0.137108 -22.433702
v -1.845398 0.267838 -22.433702
v -0.689792 -0.317207 -22.433702
v 1.845398 0.267838 -10.967842
v 0.689792 -0.317207 -10.967842
v 1.615394 0.722152 -10.967842
v 0.459788 0.137108 -10.967842
v 1.615394 0.722152 -22.433702
v 0.459788 0.137108 -22.433702
v 1.845398 0.267838 -22.433702
v 0.689792 -0.317207 -22.433702
vt 0.375000 0.000000
vt 0.625000 0.000000
vt 0.375000 0.250000
vt 0.625000 0.250000
vt 0.375000 0.500000
vt 0.625000 0.500000
vt 0.375000 0.750000
vt 0.625000 0.750000
vt 0.375000 1.000000
vt 0.625000 1.000000
vt 0.875000 0.000000
vt 0.875000 0.250000
vt 0.125000 0.000000
vt 0.125000 0.250000
vt 0.375000 0.000000
vt 0.625000 0.000000
vt 0.625000 0.250000
vt 0.375000 0.250000
vt 0.625000 0.500000
vt 0.375000 0.500000
vt 0.625000 0.750000
vt 0.375000 0.750000
vt 0.625000 1.000000
vt 0.375000 1.000000
vt 0.875000 0.000000
vt 0.875000 0.250000
vt 0.125000 0.000000
vt 0.125000 0.250000
vn 0.000000 0.000000 1.000000
vn 0.000000 0.000000 1.000000
vn 0.000000 0.000000 1.000000
vn 0.000000 0.000000 1.000000
vn 0.451681 0.892180 0.000000
vn 0.451681 0.892180 0.000000
vn 0.451681 0.892180 0.000000
vn 0.451681 0.892180 0.000000
vn 0.000000 0.000000 -1.000000
vn 0.000000 0.000000 -1.000000
vn 0.000000 0.000000 -1.000000
vn 0.000000 0.000000 -1.000000
vn -0.451681 -0.892180 0.000000
vn -0.451681 -0.892180 0.000000
vn -0.451681 -0.892180 0.000000
vn -0.451681 -0.892180 0.000000
vn 0.892180 -0.451681 0.000000
vn 0.892180 -0.451681 0.000000
vn 0.892180 -0.451681 0.000000
vn 0.892180 -0.451681 0.000000
vn -0.892180 0.451680 0.000000
vn -0.892180 0.451680 0.000000
vn -0.892180 0.451680 0.000000
vn -0.892180 0.451680 0.000000
vn 0.000000 0.000000 1.000000
vn 0.000000 0.000000 1.000000
vn 0.000000 0.000000 1.000000
vn 0.000000 0.000000 1.000000
vn -0.451681 0.892180 0.000000
vn -0.451681 0.892180 0.000000
vn -0.451681 0.892180 0.000000
vn -0.451681 0.892180 0.000000
vn 0.000001 -0.000001 -1.000000
vn 0.000001 -0.000001 -1.000000
vn 0.000001 -0.000001 -1.000000
vn 0.000001 -0.000001 -1.000000
vn 0.451681 -0.892180 0.000000
vn 0.451681 -0.892180 0.000000
vn 0.451681 -0.892180 0.000000
vn 0.451681 -0.892180 0.000000
vn -0.892180 -0.451680 0.000000
vn -0.892180 -0.451680 0.000000
vn -0.892180 -0.451680 0.000000
vn -0.892180 -0.451680 0.000000
vn 0.892180 0.451681 0.000000
vn 0.892180 0.451681 0.000000
vn 0.892180 0.451681 0.000000
vn 0.892180 0.451681 0.000000
s off
g pCube13
usemtl initialShadingGroup
f 57/99/169 58/100/170 60/102/171 59/101/172
f 59/101/173 60/102/174 62/104/175 61/103/176
f 61/103/177 62/104/178 64/106/179 63/105/180
f 63/105/181 64/106/182 58/108/183 57/107/184
f 58/100/185 64/109/186 62/110/187 60/102/188
f 63/111/189 57/99/190 59/101/191 61/112/192
f 65/113/193 67/116/194 68/115/195 66/114/196
f 67/116/197 69/118/198 70/117/199 68/115/200
f 69/118/201 71/120/202 72/119/203 70/117/204
f 71/120/205 65/122/206 66/121/207 72/119/208
f 66/114/209 68/115/210 70/124/211 72/123/212
f 71/125/213 69/126/214 67/116/215 65/113/216
g default
v -2.855275 1.305376 -10.967842
v -1.969671 0.360175 -10.967842
v -2.483679 1.653542 -10.967842
v -1.598074 0.708341 -10.967842
v -2.483679 1.653542 -24.335807
v -1.598074 0.708341 -24.335807
v -2.855275 1.305376 -24.335807
v -1.969671 0.360175 -24.335807
v 2.855275 1.305376 -10.967842
v 1.969671 0.360174 -10.967842
v 2.483679 1.653542 -10.967842
v 1.598074 0.708341 -10.967842
v 2.483679 1.653542 -24.335807
v 1.598074 0.708341 -24.335807
v 2.855275 1.305376 -24.335807
v 1.969671 0.360174 -24.335807
vt 0.375000 0.000000
vt 0.625000 0.000000
vt 0.375000 0.250000
vt 0.625000 0.250000
vt 0.375000 0.500000
vt 0.625000 0.500000
vt 0.375000 0.750000
vt 0.625000 0.750000
vt 0.375000 1.000000
vt 0.625000 1.000000
vt 0.875000 0.000000
vt 0.875000 0.250000
vt 0.125000 0.000000
vt 0.125000 0.250000
vt 0.375000 0.000000
vt 0.625000 0.000000
vt 0.625000 0.250000
vt 0.375000 0.250000
vt 0.625000 0.500000
vt 0.375000 0.500000
vt 0.625000 0.750000
vt 0.375000 0.750000
vt 0.625000 1.000000
vt 0.375000 1.000000
vt 0.875000 0.000000
vt 0.875000 0.250000
vt 0.125000 0.000000
vt 0.125000 0.250000
vn 0.000000 0.000000 1.000000
vn 0.000000 0.000000 1.000000
vn 0.000000 0.000000 1.000000
vn 0.000000 0.000000 1.000000
vn 0.729738 0.683727 0.000000
vn 0.729738 0.683727 0.000000
vn 0.729738 0.683727 0.000000
vn 0.729738 0.683727 0.000000
vn 0.000000 0.000000 -1.000000
vn 0.000000 0.000000 -1.000000
vn 0.000000 0.000000 -1.000000
vn 0.000000 0.000000 -1.000000
vn -0.729738 -0.683727 0.000000
vn -0.729738 -0.683727 0.000000
vn -0.729738 -0.683727 0.000000
vn -0.729738 -0.683727 0.000000
vn 0.683727 -0.729738 0.000000
vn 0.683727 -0.729738 0.000000
vn 0.683727 -0.729738 0.000000
vn 0.683727 -0.729738 0.000000
vn -0.683727 0.729738 0.000000
vn -0.683727 0.729738 0.000000
vn -0.683727 0.729738 0.000000
vn -0.683727 0.729738 0.000000
vn 0.000000 0.000000 1.000000
vn 0.000000 0.000000 1.000000
vn 0.000000 0.000000 1.000000
vn 0.000000 0.000000 1.000000
vn -0.729738 0.683727 0.000000
vn -0.729738 0.683727 0.000000
vn -0.729738 0.683727 0.000000
vn -0.729738 0.683727 0.000000
vn -0.000002 0.000002 -1.000000
vn -0.000002 0.000002 -1.000000
vn -0.000002 0.000002 -1.000000
vn -0.000002 0.000002 -1.000000
vn 0.729738 -0.683727 0.000000
vn 0.729738 -0.683727 0.000000
vn 0.729738 -0.683727 0.000000
vn 0.729738 -0.683727 0.000000
vn -0.683727 -0.729738 0.000000
vn -0.683727 -0.729738 0.000000
vn -0.683727 -0.729738 0.000000
vn -0.683727 -0.729738 0.000000
vn 0.683726 0.729738 0.000000
vn 0.683726 0.729738 0.000000
vn 0.683726 0.729738 0.000000
vn 0.683726 0.729738 0.000000
s off
g pCube14
usemtl initialShadingGroup
f 73/127/217 74/128/218 76/130/219 75/129/220
f 75/129/221 76/130/222 78/132/223 77/131/224
f 77/131/225 78/132/226 80/134/227 79/133/228
f 79/133/229 80/134/230 74/136/231 73/135/232
f 74/128/233 80/137/234 78/138/235 76/130/236
f 79/139/237 73/127/238 75/129/239 77/140/240
f 81/141/241 83/144/242 84/143/243 82/142/244
f 83/144/245 85/146/246 86/145/247 84/143/248
f 85/146/249 87/148/250 88/147/251 86/145/252
f 87/148/253 81/150/254 82/149/255 88/147/256
f 82/142/257 84/143/258 86/152/259 88/151/260
f 87/153/261 85/154/262 83/144/263 81/141/264
g default
v -3.775161 6.641362 -10.967842
v -3.734763 5.346731 -10.967842
v -3.266190 6.657243 -10.967842
v -3.225792 5.362612 -10.967842
v -3.266190 6.657243 -23.641639
v -3.225792 5.362612 -23.641639
v -3.775161 6.641362 -23.641639
v -3.734763 5.346731 -23.641639
v 3.775161 6.641362 -10.967842
v 3.734763 5.346730 -10.967842
v 3.266189 6.657244 -10.967842
v 3.225791 5.362613 -10.967842
v 3.266189 6.657244 -23.641639
v 3.225791 5.362613 -23.641639
v 3.775161 6.641362 -23.641639
v 3.734763 5.346730 -23.641639
vt 0.375000 0.000000
vt 0.625000 0.000000
vt 0.375000 0.250000
vt 0.625000 0.250000
vt 0.375000 0.500000
vt 0.625000 0.500000
vt 0.375000 0.750000
vt 0.625000 0.750000
vt 0.375000 1.000000
vt 0.625000 1.000000
vt 0.875000 0.000000
vt 0.875000 0.250000
vt 0.125000 0.000000
vt 0.125000 0.250000
vt 0.375000 0.000000
vt 0.625000 0.000000
vt 0.625000 0.250000
vt 0.375000 0.250000
vt 0.625000 0.500000
vt 0.375000 0.500000
vt 0.625000 0.750000
vt 0.375000 0.750000
vt 0.625000 1.000000
vt 0.375000 1.000000
vt 0.875000 0.000000
vt 0.875000 0.250000
vt 0.125000 0.000000
vt 0.125000 0.250000
vn 0.000000 0.000000 1.000000
vn 0.000000 0.000000 1.000000
vn 0.000000 0.000000 1.000000
vn 0.000000 0.000000 1.000000
vn 0.999514 0.031189 0.000000
vn 0.999514 0.031189 0.000000
vn 0.999514 0.031189 0.000000
vn 0.999514 0.031189 0.000000
vn 0.000000 0.000000 -1.000000
vn 0.000000 0.000000 -1.000000
vn 0.000000 0.000000 -1.000000
vn 0.000000 0.000000 -1.000000
vn -0.999514 -0.031189 0.000000
vn -0.999514 -0.031189 0.000000
vn -0.999514 -0.031189 0.000000
vn -0.999514 -0.031189 0.000000
vn 0.031188 -0.999514 0.000000
vn 0.031188 -0.999514 0.000000
vn 0.031188 -0.999514 0.000000
vn 0.031188 -0.999514 0.000000
vn -0.031187 0.999514 0.000000
vn -0.031187 0.999514 0.000000
vn -0.031187 0.999514 0.000000
vn -0.031187 0.999514 0.000000
vn -0.000000 0.000000 1.000000
vn -0.000000 0.000000 1.000000
vn -0.000000 0.000000 1.000000
vn -0.000000 0.000000 1.000000
vn -0.999514 0.031189 0.000000
vn -0.999514 0.031189 0.000000
vn -0.999514 0.031189 0.000000
vn -0.999514 0.031189 0.000000
vn -0.000000 0.000000 -1.000000
vn -0.000000 0.000000 -1.000000
vn -0.000000 0.000000 -1.000000
vn -0.000000 0.000000 -1.000000
vn 0.999514 -0.031189 0.000000
vn 0.999514 -0.031189 0.000000
vn 0.999514 -0.031189 0.000000
vn 0.999514 -0.031189 0.000000
vn -0.031190 -0.999514 0.000000
vn -0.031190 -0.999514 0.000000
vn -0.031190 -0.999514 0.000000
vn -0.031190 -0.999514 0.000000
vn 0.031189 0.999514 0.000000
vn 0.031189 0.999514 0.000000
vn 0.031189 0.999514 0.000000
vn 0.031189 0.999514 0.000000
s off
g pCube18
usemtl initialShadingGroup
f 89/155/265 90/156/266 92/158/267 91/157/268
f 91/157/269 92/158/270 94/160/271 93/159/272
f 93/159/273 94/160/274 96/162/275 95/161/276
f 95/161/277 96/162/278 90/164/279 89/163/280
f 90/156/281 96/165/282 94/166/283 92/158/284
f 95/167/285 89/155/286 91/157/287 93/168/288
f 97/169/289 99/172/290 100/171/291 98/170/292
f 99/172/293 101/174/294 102/173/295 100/171/296
f 101/174/297 103/176/298 104/175/299 102/173/300
f 103/176/301 97/178/302 98/177/303 104/175/304
f 98/170/305 100/171/306 102/180/307 104/179/308
f 103/181/309 101/182/310 99/172/311 97/169/312
g default
v -3.775401 7.936429 -10.967842
v -3.775401 6.641167 -10.967842
v -3.266182 7.936429 -10.967842
v -3.266182 6.641167 -10.967842
v -3.266182 7.936429 -24.978553
v -3.266182 6.641167 -24.978553
v -3.775401 7.936429 -24.978553
v -3.775401 6.641167 -24.978553
v 3.775400 7.936429 -10.967842
v 3.775400 6.641167 -10.967842
v 3.266182 7.936429 -10.967842
v 3.266182 6.641167 -10.967842
v 3.266182 7.936429 -24.978553
v 3.266182 6.641167 -24.978553
v 3.775400 7.936429 -24.978553
v 3.775400 6.641167 -24.978553
vt 0.375000 0.000000
vt 0.625000 0.000000
vt 0.375000 0.250000
vt 0.625000 0.250000
vt 0.375000 0.500000
vt 0.625000 0.500000
vt 0.375000 0.750000
vt 0.625000 0.750000
vt 0.375000 1.000000
vt 0.625000 1.000000
vt 0.875000 0.000000
vt 0.875000 0.250000
vt 0.125000 0.000000
vt 0.125000 0.250000
vt 0.375000 0.000000
vt 0.625000 0.000000
vt 0.625000 0.250000
vt 0.375000 0.250000
vt 0.625000 0.500000
vt 0.375000 0.500000
vt 0.625000 0.750000
vt 0.375000 0.750000
vt 0.625000 1.000000
vt 0.375000 1.000000
vt 0.875000 0.000000
vt 0.875000 0.250000
vt 0.125000 0.000000
vt 0.125000 0.250000
vn 0.000000 0.000000 1.000000
vn 0.000000 0.000000 1.000000
vn 0.000000 0.000000 1.000000
vn 0.000000 0.000000 1.000000
vn 1.000000 0.000000 0.000000
vn 1.000000 0.000000 0.000000
vn 1.000000 0.000000 0.000000
vn 1.000000 0.000000 0.000000
vn 0.000000 0.000000 -1.000000
vn 0.000000 0.000000 -1.000000
vn 0.000000 0.000000 -1.000000
vn 0.000000 0.000000 -1.000000
vn -1.000000 -0.000000 0.000000
vn -1.000000 -0.000000 0.000000
vn -1.000000 -0.000000 0.000000
vn -1.000000 -0.000000 0.000000
vn 0.000000 -1.000000 0.000000
vn 0.000000 -1.000000 0.000000
vn 0.000000 -1.000000 0.000000
vn 0.000000 -1.000000 0.000000
vn 0.000000 1.000000 0.000000
vn 0.000000 1.000000 0.000000
vn 0.000000 1.000000 0.000000
vn 0.000000 1.000000 0.000000
vn 0.000000 0.000000 1.000000
vn 0.000000 0.000000 1.000000
vn 0.000000 0.000000 1.000000
vn 0.000000 0.000000 1.000000
vn -1.000000 -0.000000 0.000000
vn -1.000000 -0.000000 0.000000
vn -1.000000 -0.000000 0.000000
vn -1.000000 -0.000000 0.000000
vn 0.000000 0.000000 -1.000000
vn 0.000000 0.000000 -1.000000
vn 0.000000 0.000000 -1.000000
vn 0.000000 0.000000 -1.000000
vn 1.000000 0.000000 0.000000
vn 1.000000 0.000000 0.000000
vn 1.000000 0.000000 0.000000
vn 1.000000 0.000000 0.000000
vn 0.000000 -1.000000 0.000000
vn 0.000000 -1.000000 0.000000
vn 0.000000 -1.000000 0.000000
vn 0.000000 -1.000000 0.000000
vn 0.000000 1.000000 0.000000
vn 0.000000 1.000000 0.000000
vn 0.000000 1.000000 0.000000
vn 0.000000 1.000000 0.000000
s off
g pCube19
usemtl initialShadingGroup
f 105/183/313 106/184/314 108/186/315 107/185/316
f 107/185/317 108/186/318 110/188/319 109/187/320
f 109/187/321 110/188/322 112/190/323 111/189/324
f 111/189/325 112/190/326 106/192/327 105/191/328
f 106/184/329 112/193/330 110/194/331 108/186/332
f 111/195/333 105/183/334 107/185/335 109/196/336
f 113/197/337 115/200/338 116/199/339 114/198/340
f 115/200/341 117/202/342 118/201/343 116/199/344
f 117/202/345 119/204/346 120/203/347 118/201/348
f 119/204/349 113/206/350 114/205/351 120/203/352
f 114/198/353 116/199/354 118/208/355 120/207/356
f 119/209/357 117/210/358 115/200/359 113/197/360
