# This file uses centimeters as units for non-parametric coordinates.

mtllib Wallpiece.mtl
g default
v 0.732219 -0.334561 -0.237912
v 0.622863 -0.334561 -0.452536
v 0.452536 -0.334561 -0.622863
v 0.237912 -0.334561 -0.732219
v 0.000000 -0.334561 -0.769901
v 0.000000 -0.334561 0.769900
v 0.237912 -0.334561 0.732219
v 0.452536 -0.334561 0.622863
v 0.622863 -0.334561 0.452536
v 0.732219 -0.334561 0.237912
v 0.769900 -0.334561 0.000000
v 0.884307 0.489559 -0.317606
v 0.751930 0.564005 -0.604123
v 0.545747 0.679956 -0.831504
v 0.285940 0.826062 -0.977491
v -0.002057 0.988023 -1.027795
v -0.002057 0.988023 1.027795
v 0.285940 0.826062 0.977491
v 0.545746 0.679956 0.831503
v 0.751929 0.564005 0.604123
v 0.884307 0.489560 0.317606
v 0.929922 0.463908 0.000000
v 0.000000 -0.334561 0.000000
v -0.002057 0.988023 0.000000
v 0.753313 0.563227 -0.218635
v 0.662185 0.614474 -0.415869
v 0.143152 0.906362 0.000000
v 0.520252 0.694293 -0.572395
v 0.341405 0.794871 -0.672891
v 0.143152 0.906362 -0.707519
v 0.143152 0.906362 0.707519
v 0.341405 0.794871 0.672890
v 0.520252 0.694293 0.572395
v 0.662185 0.614474 0.415869
v 0.753313 0.563227 0.218635
v 0.784712 0.545569 0.000000
v 0.624005 -0.579816 -0.163775
v 0.548726 -0.579816 -0.311519
v 0.119956 -0.579816 -0.000000
v 0.431476 -0.579816 -0.428770
v 0.283732 -0.579816 -0.504049
v 0.119956 -0.579816 -0.529988
v 0.119956 -0.579816 0.529988
v 0.283732 -0.579816 0.504049
v 0.431476 -0.579816 0.428769
v 0.548726 -0.579816 0.311519
v 0.624005 -0.579816 0.163775
v 0.649944 -0.579816 -0.000000
v 0.453785 -1.258998 -0.142142
v 0.386028 -1.258998 -0.270370
v 0.000101 -1.258998 -0.000000
v 0.280493 -1.258998 -0.372133
v 0.147511 -1.258998 -0.437468
v 0.000101 -1.258998 -0.459981
v 0.000101 -1.258998 0.459981
v 0.147511 -1.258998 0.437468
v 0.280493 -1.258998 0.372132
v 0.386028 -1.258998 0.270370
v 0.453785 -1.258998 0.142142
v 0.477133 -1.258998 -0.000000
v 0.626607 -0.886518 -0.190434
v 0.659115 -0.886518 -0.000000
v 0.626607 -0.886518 0.190433
v 0.532264 -0.886518 0.362226
v 0.385322 -0.886518 0.498561
v 0.200164 -0.886518 0.586094
v -0.005085 -0.886518 0.616255
v -0.005085 -0.886518 -0.000000
v -0.005085 -0.886518 -0.616256
v 0.200164 -0.886518 -0.586094
v 0.385322 -0.886518 -0.498561
v 0.532264 -0.886518 -0.362226
v 0.241479 -1.546310 -0.079981
v 0.204716 -1.546310 -0.152132
v -0.004676 -1.731264 -0.000000
v 0.147456 -1.546310 -0.209392
v 0.075304 -1.546310 -0.246155
v -0.004676 -1.546310 -0.258822
v -0.004676 -1.546310 0.258822
v 0.075304 -1.546310 0.246155
v 0.147456 -1.546310 0.209392
v 0.204716 -1.546310 0.152132
v 0.241478 -1.546310 0.079980
v 0.254146 -1.546310 -0.000000
vt 0.637634 0.488418
vt 0.637634 0.444363
vt 0.911439 0.413248
vt 0.896158 0.472060
vt 0.637634 0.409401
vt 0.935240 0.366574
vt 0.637634 0.537253
vt 0.890892 0.537253
vt 0.637634 0.586089
vt 0.896158 0.602447
vt 0.637634 0.630144
vt 0.911439 0.661259
vt 0.637634 0.665106
vt 0.935240 0.707933
vt 0.164157 0.971105
vt 0.123671 0.981624
vt 0.145091 0.736477
vt 0.175417 0.736477
vt 0.091542 0.998008
vt 0.121023 0.736477
vt 0.209035 0.967480
vt 0.209035 0.736477
vt 0.253913 0.971105
vt 0.242652 0.736477
vt 0.294399 0.981624
vt 0.272979 0.736477
vt 0.326528 0.998008
vt 0.297047 0.736477
vt 0.380184 0.732736
vt 0.234955 0.732736
vt 0.234955 0.427675
vt 0.343743 0.427675
vt 0.089725 0.732736
vt 0.126166 0.427675
vt 0.199298 0.370998
vt 0.199298 0.212963
vt 0.560139 0.212963
vt 0.560139 0.423934
vt 0.199298 0.054929
vt 0.560139 0.001992
vt 0.601702 0.492819
vt 0.624150 0.536874
vt 0.473850 0.585709
vt 0.631884 0.585709
vt 0.566740 0.457857
vt 0.624149 0.634544
vt 0.522685 0.435410
vt 0.601702 0.678599
vt 0.473850 0.427675
vt 0.566740 0.713562
vt 0.522685 0.736009
vt 0.473850 0.743743
vt 0.436087 0.878883
vt 0.420635 0.909210
vt 0.332623 0.845265
vt 0.396568 0.933277
vt 0.441412 0.845265
vt 0.366241 0.948729
vt 0.436087 0.811648
vt 0.332623 0.954054
vt 0.420635 0.781321
vt 0.396568 0.757254
vt 0.366241 0.741801
vt 0.332623 0.736477
vt 0.183807 0.278157
vt 0.156635 0.336969
vt 0.138213 0.298327
vt 0.156918 0.257842
vt 0.114312 0.383643
vt 0.109079 0.330456
vt 0.193170 0.212963
vt 0.163364 0.212963
vt 0.060983 0.413609
vt 0.072368 0.351085
vt 0.183807 0.147770
vt 0.156918 0.168085
vt 0.001867 0.423934
vt 0.031673 0.358193
vt 0.156634 0.088957
vt 0.138213 0.127600
vt 0.001867 0.212963
vt 0.031673 0.212963
vt 0.114312 0.042284
vt 0.109079 0.095470
vt 0.001867 0.001992
vt 0.031673 0.067734
vt 0.060983 0.012318
vt 0.072368 0.074842
vt 0.659712 0.362834
vt 0.615657 0.362834
vt 0.625515 0.035237
vt 0.678845 0.065228
vt 0.566822 0.362834
vt 0.566399 0.001992
vt 0.685536 0.001992
vt 0.734371 0.001992
vt 0.744230 0.329589
vt 0.685114 0.362834
vt 0.778426 0.001992
vt 0.797559 0.299598
vt 0.468101 0.689206
vt 0.431389 0.709851
vt 0.419551 0.427675
vt 0.449878 0.427675
vt 0.390695 0.732736
vt 0.385933 0.427675
vt 0.006628 0.427675
vt 0.047323 0.450560
vt 0.035484 0.732737
vt 0.001867 0.732737
vt 0.084034 0.471205
vt 0.065811 0.732737
vt 0.601702 0.492819
vt 0.624150 0.536874
vt 0.566740 0.457857
vt 0.522685 0.435410
vt 0.473850 0.427675
vt 0.473850 0.585709
vt 0.522685 0.736009
vt 0.473850 0.743743
vt 0.566740 0.713562
vt 0.601702 0.678599
vt 0.624149 0.634544
vt 0.631884 0.585709
vt 0.624150 0.536874
vt 0.631884 0.585709
vt 0.624149 0.634544
vt 0.601702 0.678599
vt 0.566740 0.713562
vt 0.522685 0.736009
vt 0.473850 0.743743
vt 0.473850 0.585709
vt 0.473850 0.427675
vt 0.522685 0.435410
vt 0.566740 0.457857
vt 0.601702 0.492819
vt 0.601702 0.492819
vt 0.624150 0.536874
vt 0.566740 0.457857
vt 0.522685 0.435410
vt 0.473850 0.427675
vt 0.473850 0.585709
vt 0.522685 0.736009
vt 0.473850 0.743743
vt 0.566740 0.713562
vt 0.601702 0.678599
vt 0.624149 0.634544
vt 0.631884 0.585709
vn 0.929374 -0.202481 -0.308652
vn 0.781034 -0.214380 -0.586539
vn 0.758375 -0.210503 -0.616893
vn 0.923450 -0.201148 -0.326772
vn 0.550294 -0.223889 -0.804394
vn 0.505982 -0.214065 -0.835559
vn 0.262550 -0.223058 -0.938783
vn 0.200637 -0.205526 -0.957864
vn 0.113584 -0.216951 -0.969552
vn 0.101660 -0.199370 -0.974637
vn 0.113585 -0.216951 0.969552
vn 0.262551 -0.223058 0.938782
vn 0.200637 -0.205526 0.957864
vn 0.101660 -0.199370 0.974637
vn 0.550294 -0.223889 0.804394
vn 0.505983 -0.214065 0.835559
vn 0.781034 -0.214380 0.586538
vn 0.758375 -0.210503 0.616893
vn 0.929373 -0.202481 0.308653
vn 0.923450 -0.201148 0.326773
vn 0.980364 -0.197197 0.000001
vn 0.980548 -0.196277 0.000001
vn 0.608379 -0.651653 -0.453016
vn 0.714464 -0.657999 -0.237864
vn 0.419777 -0.907627 0.000000
vn 0.442519 -0.643490 -0.624578
vn 0.232675 -0.636234 -0.735574
vn 0.119312 -0.629043 -0.768160
vn 0.232675 -0.636234 0.735574
vn 0.119312 -0.629043 0.768160
vn 0.442519 -0.643489 0.624578
vn 0.608380 -0.651653 0.453014
vn 0.714464 -0.657998 0.237864
vn 0.750930 -0.660382 0.000002
vn 0.000000 1.000000 0.000000
vn 0.000000 1.000000 0.000000
vn 0.000000 1.000000 0.000000
vn 0.000000 1.000000 0.000000
vn 0.000000 1.000000 0.000000
vn 0.000000 1.000000 0.000000
vn 0.000000 1.000000 0.000000
vn 0.000000 1.000000 0.000000
vn 0.000000 1.000000 0.000000
vn 0.000000 1.000000 0.000000
vn 0.000000 1.000000 0.000000
vn 0.000000 1.000000 0.000000
vn 0.490174 0.871625 -0.000000
vn 0.490174 0.871625 0.000000
vn 0.490174 0.871624 0.000000
vn 0.490174 0.871625 -0.000000
vn 0.490173 0.871625 0.000000
vn 0.490174 0.871625 0.000000
vn 0.490174 0.871625 -0.000000
vn 0.490173 0.871625 0.000000
vn 0.490173 0.871625 -0.000000
vn 0.490173 0.871625 -0.000000
vn 0.490172 0.871626 0.000000
vn 0.490172 0.871626 0.000000
vn 0.490173 0.871625 0.000000
vn 0.490174 0.871625 0.000000
vn 0.490174 0.871625 0.000000
vn 0.490173 0.871625 0.000000
vn 0.490174 0.871625 0.000000
vn 0.490174 0.871625 0.000000
vn 0.490174 0.871625 0.000000
vn 0.490174 0.871625 0.000000
vn 0.490173 0.871625 -0.000000
vn 0.490173 0.871625 -0.000000
vn 0.490173 0.871625 -0.000000
vn 0.490173 0.871625 -0.000000
vn -0.939701 0.121886 0.319541
vn -0.783667 0.127288 0.608000
vn -0.803138 0.126803 0.582143
vn -0.945099 0.121653 0.303297
vn -0.538593 0.130282 0.832432
vn -0.574732 0.130257 0.807909
vn -0.233293 0.126386 0.964158
vn -0.280939 0.127549 0.951212
vn -0.126870 0.122757 0.984294
vn -0.126870 0.122757 0.984294
vn 0.999878 -0.015606 0.000000
vn 0.999878 -0.015606 0.000000
vn 0.999878 -0.015606 0.000000
vn 0.999878 -0.015606 0.000000
vn -0.126870 0.122757 -0.984294
vn -0.233293 0.126386 -0.964158
vn -0.280939 0.127549 -0.951212
vn -0.126870 0.122757 -0.984294
vn 0.999878 -0.015606 0.000000
vn 0.999878 -0.015606 0.000000
vn -0.538593 0.130282 -0.832432
vn -0.574732 0.130257 -0.807909
vn -0.783667 0.127288 -0.608000
vn -0.803138 0.126803 -0.582143
vn -0.939701 0.121886 -0.319541
vn -0.945099 0.121653 -0.303297
vn -0.992856 0.119315 -0.000000
vn -0.992857 0.119315 -0.000000
vn -1.000000 0.000508 0.000000
vn -0.999999 0.001066 0.000000
vn -0.999999 -0.001556 0.000000
vn -0.999999 -0.001556 0.000000
vn -1.000000 0.000508 0.000000
vn -0.999999 -0.001556 0.000000
vn 0.763874 -0.293155 -0.574941
vn 0.908004 -0.286676 -0.305525
vn 0.821842 -0.495754 -0.280720
vn 0.695722 -0.483503 -0.531221
vn 0.547337 -0.300887 -0.780954
vn 0.502586 -0.468637 -0.726489
vn 0.284218 -0.306844 -0.908332
vn 0.263390 -0.456994 -0.849578
vn 0.142931 -0.305768 -0.941317
vn 0.133465 -0.448662 -0.883679
vn -0.999999 0.001259 0.000000
vn -0.999994 0.003423 0.000000
vn -0.999972 -0.007439 0.000821
vn -0.999995 -0.003276 0.000000
vn 0.284218 -0.306844 0.908332
vn 0.142931 -0.305768 0.941317
vn 0.133466 -0.448662 0.883679
vn 0.263390 -0.456994 0.849578
vn -0.999994 0.003423 0.000000
vn -0.999972 -0.007439 -0.000821
vn 0.547337 -0.300887 0.780954
vn 0.502586 -0.468637 0.726489
vn 0.763874 -0.293155 0.574940
vn 0.695723 -0.483503 0.531219
vn 0.908004 -0.286676 0.305525
vn 0.821842 -0.495754 0.280720
vn 0.958779 -0.284152 0.000002
vn 0.865749 -0.500478 0.000002
vn -0.999903 0.013496 0.003473
vn -0.999909 0.013496 0.000000
vn -0.999903 0.013496 -0.003473
s 1
g pCylinder18
usemtl initialShadingGroup
f 1/1/1 2/2/2 13/3/3 12/4/4
f 2/2/2 3/5/5 14/6/6 13/3/3
f 3/89/5 4/90/7 15/91/8 14/92/6
f 4/90/7 5/93/9 16/94/10 15/91/8
f 6/95/11 7/96/12 18/97/13 17/98/14
f 7/96/12 8/99/15 19/100/16 18/97/13
f 8/13/15 9/11/17 20/12/18 19/14/16
f 9/11/17 10/9/19 21/10/20 20/12/18
f 10/9/19 11/7/21 22/8/22 21/10/20
f 11/7/21 1/1/1 12/4/4 22/8/22
f 74/137/23 73/138/24 75/142/25
f 76/139/26 74/137/23 75/142/25
f 77/140/27 76/139/26 75/142/25
f 78/141/28 77/140/27 75/142/25
f 80/143/29 79/144/30 75/142/25
f 81/145/31 80/143/29 75/142/25
f 82/146/32 81/145/31 75/142/25
f 83/147/33 82/146/32 75/142/25
f 84/148/34 83/147/33 75/142/25
f 73/138/24 84/148/34 75/142/25
s 5
f 37/53/35 38/54/36 39/55/37
f 38/54/36 40/56/38 39/55/37
f 40/56/38 41/58/39 39/55/37
f 41/58/39 42/60/40 39/55/37
f 43/64/41 44/63/42 39/55/37
f 44/63/42 45/62/43 39/55/37
f 45/62/43 46/61/44 39/55/37
f 46/61/44 47/59/45 39/55/37
f 47/59/45 48/57/46 39/55/37
f 48/57/46 37/53/35 39/55/37
s 7
f 12/65/47 13/66/48 26/67/49 25/68/50
f 13/66/48 14/69/51 28/70/52 26/67/49
f 14/69/51 15/73/53 29/74/54 28/70/52
f 15/73/53 16/77/55 30/78/56 29/74/54
f 16/77/55 24/81/57 27/82/58 30/78/56
f 17/85/59 18/87/60 32/88/61 31/86/62
f 24/81/57 17/85/59 31/86/62 27/82/58
f 18/87/60 19/83/63 33/84/64 32/88/61
f 19/83/63 20/79/65 34/80/66 33/84/64
f 20/79/65 21/75/67 35/76/68 34/80/66
f 21/75/67 22/71/69 36/72/70 35/76/68
f 22/71/69 12/65/47 25/68/50 36/72/70
s 9
f 25/15/71 26/16/72 38/17/73 37/18/74
f 26/16/72 28/19/75 40/20/76 38/17/73
f 28/101/75 29/102/77 41/103/78 40/104/76
f 29/102/77 30/105/79 42/106/80 41/103/78
s 10
f 30/29/81 27/30/82 39/31/83 42/32/84
s 9
f 31/107/85 32/108/86 44/109/87 43/110/88
s 10
f 27/30/82 31/33/89 43/34/90 39/31/83
s 9
f 32/108/86 33/111/91 45/112/92 44/109/87
f 33/27/91 34/25/93 46/26/94 45/28/92
f 34/25/93 35/23/95 47/24/96 46/26/94
f 35/23/95 36/21/97 48/22/98 47/24/96
f 36/21/97 25/15/71 37/18/74 48/22/98
s 12
f 5/35/99 23/36/100 24/37/101 16/38/102
f 23/36/100 6/39/103 17/40/104 24/37/101
s 1
f 72/136/105 61/125/106 49/114/107 50/113/108
f 71/135/109 72/136/105 50/113/108 52/115/110
f 70/134/111 71/135/109 52/115/110 53/116/112
f 69/133/113 70/134/111 53/116/112 54/117/114
s 12
f 68/132/115 69/133/116 54/117/117 51/118/118
s 1
f 66/130/119 67/131/120 55/120/121 56/119/122
s 12
f 67/131/123 68/132/115 51/118/118 55/120/124
s 1
f 65/129/125 66/130/119 56/119/122 57/121/126
f 64/128/127 65/129/125 57/121/126 58/122/128
f 63/127/129 64/128/127 58/122/128 59/123/130
f 62/126/131 63/127/129 59/123/130 60/124/132
f 61/125/106 62/126/131 60/124/132 49/114/107
f 1/42/1 11/44/21 62/126/131 61/125/106
f 11/44/21 10/46/19 63/127/129 62/126/131
f 10/46/19 9/48/17 64/128/127 63/127/129
f 9/48/17 8/50/15 65/129/125 64/128/127
f 8/50/15 7/51/12 66/130/119 65/129/125
f 7/51/12 6/52/11 67/131/120 66/130/119
s 12
f 6/52/103 23/43/100 68/132/115 67/131/123
f 23/43/100 5/49/99 69/133/116 68/132/115
s 1
f 5/49/9 4/47/7 70/134/111 69/133/113
f 4/47/7 3/45/5 71/135/109 70/134/111
f 3/45/5 2/41/2 72/136/105 71/135/109
f 2/41/2 1/42/1 61/125/106 72/136/105
f 50/113/108 49/114/107 73/138/24 74/137/23
f 52/115/110 50/113/108 74/137/23 76/139/26
f 53/116/112 52/115/110 76/139/26 77/140/27
f 54/117/114 53/116/112 77/140/27 78/141/28
s 12
f 51/118/118 54/117/117 78/141/133 75/142/134
s 1
f 56/119/122 55/120/121 79/144/30 80/143/29
s 12
f 55/120/124 51/118/118 75/142/134 79/144/135
s 1
f 57/121/126 56/119/122 80/143/29 81/145/31
f 58/122/128 57/121/126 81/145/31 82/146/32
f 59/123/130 58/122/128 82/146/32 83/147/33
f 60/124/132 59/123/130 83/147/33 84/148/34
f 49/114/107 60/124/132 84/148/34 73/138/24
